<svg xmlns="http://www.w3.org/2000/svg" width="190" height="110" viewBox="0 0 190 110">
  <g id="Grupo_223579" data-name="Grupo 223579" transform="translate(-180 -6061)">
    <g id="Grupo_153162" data-name="Grupo 153162" transform="translate(0 2665)">
      <rect id="Rectángulo_40420" data-name="Rectángulo 40420" width="190" height="110" transform="translate(180 3396)" fill="none"/>
      <g id="Grupo_131655" data-name="Grupo 131655" transform="translate(0 -4286)">
        <rect id="Rectángulo_40418" data-name="Rectángulo 40418" width="50" height="50" rx="8" transform="translate(207 7687)" fill="#e2872c" opacity="0.2"/>
        <rect id="Rectángulo_40419" data-name="Rectángulo 40419" width="50" height="50" rx="8" transform="translate(293 7737)" fill="#81af1d" opacity="0.2"/>
      </g>
      <g id="decision" transform="translate(206.559 3401)">
        <g id="Grupo_153073" data-name="Grupo 153073" transform="translate(23.905 1.465)">
          <path id="Trazado_262735" data-name="Trazado 262735" d="M236.115,7.5H182.99a2.938,2.938,0,0,0-2.93,2.93v70.7l57.031,1.953,1.953-72.656A2.938,2.938,0,0,0,236.115,7.5Z" transform="translate(-150.74 -7.5)" fill="#e1dee2"/>
          <path id="Trazado_262736" data-name="Trazado 262736" d="M235.138,25.43v2.93H180.06v68.75h56.055a2.938,2.938,0,0,0,2.93-2.93V22.5h-.977A2.938,2.938,0,0,0,235.138,25.43Z" transform="translate(-150.74 -19.57)" fill="#c5bec6"/>
          <path id="Trazado_262737" data-name="Trazado 262737" d="M206.115,37.5H152.99a2.938,2.938,0,0,0-2.93,2.93v70.7l57.031,1.953,1.953-72.656A2.938,2.938,0,0,0,206.115,37.5Z" transform="translate(-126.599 -31.641)" fill="#faf8f8"/>
          <path id="Trazado_262738" data-name="Trazado 262738" d="M205.138,55.43v66.309a1.465,1.465,0,0,1-1.465,1.465H150.06v.977a2.938,2.938,0,0,0,2.93,2.93h53.125a2.938,2.938,0,0,0,2.93-2.93V52.5h-.977A2.938,2.938,0,0,0,205.138,55.43Z" transform="translate(-126.599 -43.711)" fill="#e1dee2"/>
          <path id="Trazado_262739" data-name="Trazado 262739" d="M78.985,462.333a9.384,9.384,0,0,0-1.279-.086H44.851a8.19,8.19,0,0,0-7.355,4.346l45.134,1.953a9.674,9.674,0,0,0-3.645-6.213Z" transform="translate(-36.02 -373.429)" fill="#eb9f52"/>
          <path id="Trazado_262740" data-name="Trazado 262740" d="M80.456,470.854s-1.188-7.294-7.551-8.167a12.349,12.349,0,0,1,1.132,2.293,1.463,1.463,0,0,1-1.376,1.967H31.416a12.668,12.668,0,0,0-1.476,3.906Z" transform="translate(-29.94 -373.783)" fill="#e2872c"/>
          <path id="Trazado_262741" data-name="Trazado 262741" d="M304.7,426.834c.492-.852,1.21-4.066-.46-4.948-4.53-2.318-15.7-7.762-15.7-7.762l-2.93,1.383V419.2s10.3,6.948,14.57,9.712C301.787,429.915,304.212,427.686,304.7,426.834Z" transform="translate(-235.681 -334.705)" fill="#eb9f52"/>
          <path id="Trazado_262742" data-name="Trazado 262742" d="M365.944,454.75c-.293-.169-.881-.478-1.67-.882a7.335,7.335,0,0,1-4.055,7.024c.744.481,1.306.836,1.6,1.005a4.126,4.126,0,1,0,4.126-7.147Z" transform="translate(-295.711 -366.687)" fill="#e2872c"/>
          <path id="Trazado_262743" data-name="Trazado 262743" d="M241.122,386.743,229.611,380.1l-2.93,1.479v3.6l11.511,6.646Z" transform="translate(-188.255 -307.324)" fill="#ba6f24"/>
          <path id="Trazado_262744" data-name="Trazado 262744" d="M0,0H5.859V6.479H0Z" transform="matrix(0.5, -0.866, 0.866, 0.5, 32.813, 74.608)" fill="#94591c"/>
          <path id="Trazado_262745" data-name="Trazado 262745" d="M171.858,345.6s4.126,2.28,2.769,4.631L171.7,355.3c-1.357,2.351-5.395-.082-5.395-.082l-3.415-8.387Z" transform="translate(-136.921 -279.562)" fill="#d09180"/>
          <path id="Trazado_262746" data-name="Trazado 262746" d="M111.212,280.127,108.8,274.9l-11.87,1.088c-1.469,2.545-1.469,6.667-2.938,9.212s-5.039,4.606-6.508,7.15l4.993,10.824,5.736-.526Z" transform="translate(-76.244 -222.671)" fill="#eb9f52"/>
          <path id="Trazado_262747" data-name="Trazado 262747" d="M155.416,301.676c-2.14,3.47-6.983,6.317-9,9.814s-2.063,9.115-4,12.7l6.135-.562c1.469-2.545,1.469-6.667,2.938-9.212s5.039-4.606,6.508-7.15Z" transform="translate(-120.448 -244.22)" fill="#e2872c"/>
          <path id="Trazado_262748" data-name="Trazado 262748" d="M72.037,402.263c2.661,0,7.9-3.475,7.9-3.475L59.79,390.12a8.281,8.281,0,0,0-.355,4.284c.393,1.466,2.364,3.37,4.866,5.111A17.8,17.8,0,0,0,72.037,402.263Z" transform="translate(-53.551 -315.389)" fill="#eb9f52"/>
          <path id="Trazado_262749" data-name="Trazado 262749" d="M91.844,436.635c-1.466.393-4.1-.362-6.859-1.659,4.071,2.831,9.549,5.228,11.934,4.589a8.313,8.313,0,0,0,3.537-2.446v-2.93H95.382A8.31,8.31,0,0,1,91.844,436.635Z" transform="translate(-74.234 -350.851)" fill="#e2872c"/>
          <path id="Trazado_262750" data-name="Trazado 262750" d="M66.885,363.062a2.026,2.026,0,0,0-2.818.755L62.691,366.2a9.986,9.986,0,0,0-.805,1.917l14.908,8.607,6.018-2.084c.57-.987-1.223-3.088-3.939-4.657Z" transform="translate(-55.647 -293.386)" fill="#c0f748"/>
          <path id="Trazado_262751" data-name="Trazado 262751" d="M140.3,399.676a1.88,1.88,0,0,1,.556,2.7l-1.375,2.382a9.93,9.93,0,0,1-1.26,1.655l5.074,2.93a9.922,9.922,0,0,0,1.26-1.655l1.375-2.382a2.063,2.063,0,0,0-.755-2.818Z" transform="translate(-117.069 -323.079)" fill="#a0d925"/>
          <path id="Trazado_262752" data-name="Trazado 262752" d="M162.1,239.375c1.331,2.3.943,8.583.943,8.583L145.464,234.84A8.282,8.282,0,0,1,149,232.391c1.466-.393,4.1.362,6.859,1.659A17.794,17.794,0,0,1,162.1,239.375Z" transform="translate(-122.901 -188.383)" fill="#eb9f52"/>
          <path id="Trazado_262753" data-name="Trazado 262753" d="M203.534,246.425c-.393-1.466-2.364-3.37-4.866-5.111,4.487,2.11,9.3,5.656,9.941,8.04a8.309,8.309,0,0,1-.35,4.287l-2.537,1.465-2.537-4.395A8.311,8.311,0,0,0,203.534,246.425Z" transform="translate(-165.713 -195.647)" fill="#e2872c"/>
          <path id="Trazado_262754" data-name="Trazado 262754" d="M131.522,252.215a2.026,2.026,0,0,1-.755-2.818l1.375-2.382a10.005,10.005,0,0,1,1.258-1.656l14.908,8.607,1.2,6.254c-.57.987-3.286.485-6-1.083Z" transform="translate(-110.837 -198.901)" fill="#c0f748"/>
          <path id="Trazado_262755" data-name="Trazado 262755" d="M197.227,294.6a1.879,1.879,0,0,0,2.619-.87l1.375-2.382a9.92,9.92,0,0,0,.8-1.919l5.074,2.93a9.937,9.937,0,0,1-.8,1.919l-1.375,2.382a2.063,2.063,0,0,1-2.818.755Z" transform="translate(-164.554 -234.363)" fill="#a0d925"/>
        </g>
        <g id="Grupo_153074" data-name="Grupo 153074" transform="translate(22.441)">
          <path id="Trazado_262756" data-name="Trazado 262756" d="M410.071,85.5a1.465,1.465,0,0,0-1.465,1.465V143.9a1.466,1.466,0,0,1-1.465,1.465h-1.465v-8.047a1.465,1.465,0,1,0-2.93,0v13.418a1.466,1.466,0,0,1-1.465,1.465h-7.219a1.465,1.465,0,0,0,0,2.93h7.219a4.4,4.4,0,0,0,4.395-4.395v-2.441h1.465a4.4,4.4,0,0,0,4.395-4.395V86.963A1.465,1.465,0,0,0,410.071,85.5Z" transform="translate(-320.302 -68.799)"/>
          <path id="Trazado_262757" data-name="Trazado 262757" d="M205.939,0H152.814a4.4,4.4,0,0,0-4.395,4.395V5.859h-1.465a4.4,4.4,0,0,0-4.395,4.395V25.241a1.465,1.465,0,0,0,2.93,0V10.254a1.466,1.466,0,0,1,1.465-1.465H200.08a1.466,1.466,0,0,1,1.465,1.465v52.4a1.465,1.465,0,0,0,2.93,0v-52.4a4.4,4.4,0,0,0-4.395-4.395h-48.73V4.395a1.466,1.466,0,0,1,1.465-1.465h53.125A1.466,1.466,0,0,1,207.4,4.395V12.3a1.465,1.465,0,1,0,2.93,0V4.395A4.4,4.4,0,0,0,205.939,0Z" transform="translate(-119.099)"/>
          <path id="Trazado_262758" data-name="Trazado 262758" d="M193.7,173.23H227.8a1.465,1.465,0,0,0,0-2.93H193.7a1.465,1.465,0,0,0,0,2.93Z" transform="translate(-159.076 -137.038)"/>
          <path id="Trazado_262759" data-name="Trazado 262759" d="M193.7,133.23h28.234a1.465,1.465,0,1,0,0-2.93H193.7a1.465,1.465,0,1,0,0,2.93Z" transform="translate(-159.076 -104.851)"/>
          <path id="Trazado_262760" data-name="Trazado 262760" d="M193.7,93.23H233.22a1.465,1.465,0,0,0,0-2.93H193.7a1.465,1.465,0,0,0,0,2.93Z" transform="translate(-159.076 -72.663)"/>
          <path id="Trazado_262761" data-name="Trazado 262761" d="M94.87,210.359c-1.847-1.066-14.689-7.342-17.089-8.513h6.24a1.465,1.465,0,0,0,0-2.93H72.657L64.2,194.033H96.585a1.465,1.465,0,0,0,0-2.93H62.67a7.68,7.68,0,0,0-1.542-1.692,13.771,13.771,0,0,0,.932-1.083,3.526,3.526,0,0,0,3.481-1.737l.214-.371h30.83a1.465,1.465,0,0,0,0-2.93H67.37a12.488,12.488,0,0,0,1.043-4.883H96.585a1.465,1.465,0,0,0,0-2.93H67.565a19.319,19.319,0,0,0-5.333-4.883H96.585a1.465,1.465,0,0,0,0-2.93H56.952c-2.352-1.055-5.319-2.047-7.33-1.509a5.868,5.868,0,0,0-.791.277V153.2a1.465,1.465,0,1,0-2.93,0v15.294a12.278,12.278,0,0,0-1.959,2.451l-1.367,2.368a3.423,3.423,0,0,0-.392,2.633,3.528,3.528,0,0,0,.619,1.271,23.905,23.905,0,0,0-1.111,3.951,15.554,15.554,0,0,1-1.307,4.188,1.465,1.465,0,1,0,2.537,1.465,17.761,17.761,0,0,0,1.631-5.023,28.89,28.89,0,0,1,.722-2.835l14.033,8.1a28.9,28.9,0,0,1-2.095,2.042,17.754,17.754,0,0,0-3.534,3.924,17.761,17.761,0,0,0-1.631,5.023,28.889,28.889,0,0,1-.722,2.835l-14.031-8.1c.414-.467.883-.924,1.353-1.362a1.465,1.465,0,1,0-2-2.142,18.809,18.809,0,0,0-2.1,2.236,3.522,3.522,0,0,0-1.411.1,3.423,3.423,0,0,0-2.084,1.656l-1.367,2.368c-.862,1.494-1.98,4.8-1.306,7.313.863,3.223,6.361,6.609,8.026,7.57.185.107.419.239.694.39H32.736c-6.908,0-9.742,6.2-10.276,9.482a1.465,1.465,0,0,0,1.446,1.7H74.422a1.465,1.465,0,0,0,1.446-1.7c-.534-3.28-3.368-9.482-10.276-9.482H51.117a11.42,11.42,0,0,0,1.538-2.008l1.375-2.382a3.53,3.53,0,0,0-.237-3.887,13.809,13.809,0,0,0,.472-1.346,7.393,7.393,0,0,0,2.481.5,4.244,4.244,0,0,0,1.062-.128,3.469,3.469,0,0,0,1.128-.519l7.541,4.354h-7.8a1.465,1.465,0,0,0,0,2.93H71.554l1.512.873c1.014.684,14.253,9.611,16.213,10.742a5.591,5.591,0,0,0,5.591-9.684Zm-21.564-4.3-12.624-7.288,1.465-2.537,12.624,7.288ZM50.38,168.987a2.094,2.094,0,0,1,.533-.059c1.443,0,4.347.931,7.812,2.931,3.968,2.291,6.354,4.647,6.661,5.791a4.587,4.587,0,0,1,.063,1.637l-16.516-9.535a4.563,4.563,0,0,1,1.447-.766Zm-5.3,5.837.019-.032,1.375-2.382c.09-.156.2-.325.329-.5l17.841,10.3a5.917,5.917,0,0,1-.27.535L63,185.126a.6.6,0,0,1-.817.219l-16.863-9.736a.634.634,0,0,1-.3-.386A.5.5,0,0,1,45.085,174.824ZM37.866,207.99c-3.968-2.291-6.354-4.647-6.661-5.791a4.56,4.56,0,0,1-.06-1.636L47.661,210.1a4.585,4.585,0,0,1-1.45.764,1.826,1.826,0,0,1-.373.054h-.325C44.021,210.85,41.2,209.917,37.866,207.99ZM72.5,219.17H25.842a10.947,10.947,0,0,1,.918-1.893,6.681,6.681,0,0,1,5.976-3.43H65.591C69.841,213.847,71.725,217.088,72.5,219.17Zm-21-14.108-1.375,2.382a5.979,5.979,0,0,1-.329.5l-17.841-10.3c.089-.2.179-.379.27-.535l1.375-2.382.018-.033a.5.5,0,0,1,.314-.254.583.583,0,0,1,.157-.021.657.657,0,0,1,.327.089l16.863,9.736a.6.6,0,0,1,.219.817Zm3.471-6.64a14.51,14.51,0,0,1,1.249-3.926,14.5,14.5,0,0,1,2.775-3.044,3.984,3.984,0,0,1,1.407,1.63.475.475,0,0,1-.053.415l-2.93,5.074a.475.475,0,0,1-.332.254A3.981,3.981,0,0,1,54.966,198.422ZM94.38,216.531a2.665,2.665,0,0,1-3.636.974c-1.416-.817-9.832-6.452-14.95-9.9l1.563-2.708c5.545,2.709,14.632,7.18,16.048,8a2.665,2.665,0,0,1,.974,3.636Z" transform="translate(-22.441 -122.099)"/>
        </g>
      </g>
    </g>
  </g>
</svg>
