<svg xmlns="http://www.w3.org/2000/svg" width="685" height="327" viewBox="0 0 685 327">
  <g id="Grupo_223577" data-name="Grupo 223577" transform="translate(6203 10854)">
    <g id="Grupo_156487" data-name="Grupo 156487">
      <g id="Rectángulo_295002" data-name="Rectángulo 295002" transform="translate(-6203 -10854)" fill="#fff" stroke="#e53935" stroke-width="4">
        <rect width="685" height="327" rx="20" stroke="none"/>
        <rect x="2" y="2" width="681" height="323" rx="18" fill="none"/>
      </g>
      <g id="Rectángulo_296407" data-name="Rectángulo 296407" transform="translate(-5989 -10847)" fill="#fff" stroke="#81af1d" stroke-width="1">
        <rect width="137" height="19" rx="5" stroke="none"/>
        <rect x="0.5" y="0.5" width="136" height="18" rx="4.5" fill="none"/>
      </g>
      <g id="Rectángulo_296408" data-name="Rectángulo 296408" transform="translate(-5989 -10809)" fill="#fff" stroke="#81af1d" stroke-width="1">
        <rect width="137" height="19" rx="5" stroke="none"/>
        <rect x="0.5" y="0.5" width="136" height="18" rx="4.5" fill="none"/>
      </g>
      <g id="Rectángulo_296409" data-name="Rectángulo 296409" transform="translate(-5989 -10771)" fill="#fff" stroke="#81af1d" stroke-width="1">
        <rect width="137" height="19" rx="5" stroke="none"/>
        <rect x="0.5" y="0.5" width="136" height="18" rx="4.5" fill="none"/>
      </g>
      <g id="Rectángulo_296414" data-name="Rectángulo 296414" transform="translate(-5989 -10653)" fill="#fff" stroke="#81af1d" stroke-width="1">
        <rect width="137" height="19" rx="5" stroke="none"/>
        <rect x="0.5" y="0.5" width="136" height="18" rx="4.5" fill="none"/>
      </g>
      <g id="Rectángulo_296415" data-name="Rectángulo 296415" transform="translate(-5850 -10602)" fill="#fff" stroke="#81af1d" stroke-width="1">
        <rect width="137" height="19" rx="5" stroke="none"/>
        <rect x="0.5" y="0.5" width="136" height="18" rx="4.5" fill="none"/>
      </g>
      <g id="Rectángulo_296416" data-name="Rectángulo 296416" transform="translate(-5850 -10577)" fill="#fff" stroke="#81af1d" stroke-width="1">
        <rect width="137" height="19" rx="5" stroke="none"/>
        <rect x="0.5" y="0.5" width="136" height="18" rx="4.5" fill="none"/>
      </g>
      <g id="Rectángulo_296417" data-name="Rectángulo 296417" transform="translate(-5850 -10552)" fill="#fff" stroke="#81af1d" stroke-width="1">
        <rect width="137" height="19" rx="5" stroke="none"/>
        <rect x="0.5" y="0.5" width="136" height="18" rx="4.5" fill="none"/>
      </g>
      <g id="Rectángulo_296411" data-name="Rectángulo 296411" transform="translate(-5810 -10780)" fill="#fff" stroke="#81af1d" stroke-width="1">
        <rect width="114" height="19" rx="5" stroke="none"/>
        <rect x="0.5" y="0.5" width="113" height="18" rx="4.5" fill="none"/>
      </g>
      <g id="Rectángulo_296412" data-name="Rectángulo 296412" transform="translate(-5810 -10735)" fill="#fff" stroke="#81af1d" stroke-width="1">
        <rect width="114" height="19" rx="5" stroke="none"/>
        <rect x="0.5" y="0.5" width="113" height="18" rx="4.5" fill="none"/>
      </g>
      <g id="Rectángulo_296410" data-name="Rectángulo 296410" transform="translate(-6007 -10733)" fill="#fff" stroke="#81af1d" stroke-width="1">
        <rect width="155" height="19" rx="5" stroke="none"/>
        <rect x="0.5" y="0.5" width="154" height="18" rx="4.5" fill="none"/>
      </g>
      <g id="Rectángulo_296413" data-name="Rectángulo 296413" transform="translate(-6028 -10691)" fill="#fff" stroke="#81af1d" stroke-width="1">
        <rect width="176" height="19" rx="5" stroke="none"/>
        <rect x="0.5" y="0.5" width="175" height="18" rx="4.5" fill="none"/>
      </g>
      <text id="APRONTE" transform="translate(-5920 -10834)" fill="#12263f" font-size="12" font-family="Roboto-Bold, Roboto" font-weight="700"><tspan x="-21.521" y="0">Apronte</tspan></text>
      <text id="Caña" transform="translate(-5901 -10814)" fill="#12263f" font-size="11" font-family="Roboto-Bold, Roboto" font-weight="700"><tspan x="-12.576" y="0">Caña</tspan></text>
      <text id="Jugos" transform="translate(-5899 -10777)" fill="#12263f" font-size="11" font-family="Roboto-Bold, Roboto" font-weight="700"><tspan x="-15.227" y="0">Jugos</tspan></text>
      <text id="Jugos-2" data-name="Jugos" transform="translate(-5899 -10739)" fill="#12263f" font-size="11" font-family="Roboto-Bold, Roboto" font-weight="700"><tspan x="-15.227" y="0">Jugos</tspan></text>
      <text id="Jugos-3" data-name="Jugos" transform="translate(-5899 -10699.75)" fill="#12263f" font-size="11" font-family="Roboto-Bold, Roboto" font-weight="700"><tspan x="-15.227" y="0">Jugos</tspan></text>
      <text id="Mieles" transform="translate(-5897 -10658.75)" fill="#12263f" font-size="11" font-family="Roboto-Bold, Roboto" font-weight="700"><tspan x="-16.508" y="0">Mieles</tspan></text>
      <text id="Panela" transform="translate(-5940 -10617.75)" fill="#12263f" font-size="11" font-family="Roboto-Bold, Roboto" font-weight="700"><tspan x="-16.927" y="0">Panela</tspan></text>
      <text id="Bloque" transform="translate(-5757 -10608.75)" fill="#12263f" font-size="11" font-family="Roboto-Bold, Roboto" font-weight="700"><tspan x="-17.236" y="0">Bloque</tspan></text>
      <text id="Vapor_de_agua" data-name="Vapor de agua" transform="translate(-6072 -10637)" fill="#12263f" font-size="11" font-family="Roboto-Bold, Roboto" font-weight="700"><tspan x="-35.559" y="0">Vapor de agua</tspan></text>
      <text id="Vapor_de_agua-2" data-name="Vapor de agua" transform="translate(-6084 -10670)" fill="#12263f" font-size="11" font-family="Roboto-Bold, Roboto" font-weight="700"><tspan x="-35.559" y="0">Vapor de agua</tspan></text>
      <text id="Cal" transform="translate(-6060 -10687)" fill="#12263f" font-size="11" font-family="Roboto-Bold, Roboto" font-weight="700"><tspan x="-8.006" y="0">Cal</tspan></text>
      <text id="Bagacillo" transform="translate(-6059 -10758)" fill="#12263f" font-size="11" font-family="Roboto-Bold, Roboto" font-weight="700"><tspan x="-22.9" y="0">Bagacillo</tspan></text>
      <text id="Cal-2" data-name="Cal" transform="translate(-6044 -10729)" fill="#12263f" font-size="11" font-family="Roboto-Bold, Roboto" font-weight="700"><tspan x="-8.006" y="0">Cal</tspan></text>
      <text id="Cachaza" transform="translate(-6057 -10708)" fill="#12263f" font-size="11" font-family="Roboto-Bold, Roboto" font-weight="700"><tspan x="-21.189" y="0">Cachaza</tspan></text>
      <text id="Guásimo_balso_cadillo" data-name="Guásimo, balso, cadillo" transform="translate(-6117 -10720)" fill="#12263f" font-size="11" font-family="Roboto-Bold, Roboto" font-weight="700"><tspan x="-57.197" y="0">Guásimo, balso, cadillo</tspan></text>
      <text id="Bagazo_55_" data-name="Bagazo 55%" transform="translate(-5730 -10796)" fill="#12263f" font-size="11" font-family="Roboto-Bold, Roboto" font-weight="700"><tspan x="-30.153" y="0">Bagazo 55%</tspan></text>
      <text id="Aire" transform="translate(-5654 -10768)" fill="#12263f" font-size="11" font-family="Roboto-Bold, Roboto" font-weight="700"><tspan x="-10.138" y="0">Aire</tspan></text>
      <text id="Bagazo_30_h" data-name="Bagazo 30% h" transform="translate(-5712 -10746)" fill="#12263f" font-size="11" font-family="Roboto-Bold, Roboto" font-weight="700"><tspan x="-34.601" y="0">Bagazo 30% h</tspan></text>
      <text id="Energía" transform="translate(-5753 -10696)" fill="#12263f" font-size="11" font-family="Roboto-Bold, Roboto" font-weight="700"><tspan x="-18.748" y="0">Energía</tspan></text>
      <text id="Aire-2" data-name="Aire" transform="translate(-5654 -10733)" fill="#12263f" font-size="11" font-family="Roboto-Bold, Roboto" font-weight="700"><tspan x="-10.138" y="0">Aire</tspan></text>
      <text id="Ceniza_emisiones" data-name="Ceniza, emisiones" transform="translate(-5619 -10716)" fill="#12263f" font-size="11" font-family="Roboto-Bold, Roboto" font-weight="700"><tspan x="-45.039" y="0">Ceniza, emisiones</tspan></text>
      <text id="Extracción" transform="translate(-5920 -10796)" fill="#12263f" font-size="12" font-family="Roboto-Bold, Roboto" font-weight="700"><tspan x="-28.374" y="0">Extracción</tspan></text>
      <text id="Prelimpieza" transform="translate(-5920 -10758)" fill="#12263f" font-size="12" font-family="Roboto-Bold, Roboto" font-weight="700"><tspan x="-32.159" y="0">Prelimpieza</tspan></text>
      <text id="PUNTEO_Y_BATIDO" data-name="PUNTEO Y BATIDO" transform="translate(-5920 -10640)" fill="#12263f" font-size="12" font-family="Roboto-Bold, Roboto" font-weight="700"><tspan x="-42.237" y="0">Punteo y batido</tspan></text>
      <text id="Moldeo" transform="translate(-5781 -10589)" fill="#12263f" font-size="12" font-family="Roboto-Bold, Roboto" font-weight="700"><tspan x="-20.256" y="0">Moldeo</tspan></text>
      <text id="Enfriamiento" transform="translate(-5781 -10564)" fill="#12263f" font-size="12" font-family="Roboto-Bold, Roboto" font-weight="700"><tspan x="-34.603" y="0">Enfriamiento</tspan></text>
      <text id="Empaque" transform="translate(-5781 -10539)" fill="#12263f" font-size="12" font-family="Roboto-Bold, Roboto" font-weight="700"><tspan x="-25.154" y="0">Empaque</tspan></text>
      <text id="Bagaceras" transform="translate(-5753 -10767)" fill="#12263f" font-size="12" font-family="Roboto-Bold, Roboto" font-weight="700"><tspan x="-28.462" y="0">Bagaceras</tspan></text>
      <text id="Combustión" transform="translate(-5753 -10722)" fill="#12263f" font-size="12" font-family="Roboto-Bold, Roboto" font-weight="700"><tspan x="-32.704" y="0">Combustión</tspan></text>
      <text id="Clarificación_y_encalado" data-name="Clarificación y encalado" transform="translate(-5929 -10719)" fill="#12263f" font-size="12" font-family="Roboto-Bold, Roboto" font-weight="700"><tspan x="-64.512" y="0">Clarificación y encalado</tspan></text>
      <text id="Evaporación_y_concentración" data-name="Evaporación y concentración" transform="translate(-5940 -10677)" fill="#12263f" font-size="12" font-family="Roboto-Bold, Roboto" font-weight="700"><tspan x="-77.496" y="0">Evaporación y concentración</tspan></text>
      <path id="Trazado_263950" data-name="Trazado 263950" d="M-5920.5-10828v17" fill="none" stroke="#81af1d" stroke-width="1"/>
      <path id="Trazado_263951" data-name="Trazado 263951" d="M-5920.5-10828v17.25" transform="translate(0 37.75)" fill="none" stroke="#81af1d" stroke-width="1"/>
      <path id="Trazado_263967" data-name="Trazado 263967" d="M-5920.5-10828v9.25" transform="translate(168 112)" fill="none" stroke="#81af1d" stroke-width="1"/>
      <path id="Trazado_263965" data-name="Trazado 263965" d="M-5920.5-10828v9.25" transform="translate(168 36.75)" fill="none" stroke="#81af1d" stroke-width="1"/>
      <path id="Trazado_263966" data-name="Trazado 263966" d="M-5920.5-10828v24" transform="translate(168 67)" fill="none" stroke="#81af1d" stroke-width="1"/>
      <path id="Trazado_263970" data-name="Trazado 263970" d="M-5920.5-10828v24" transform="translate(-16495.5 -4850) rotate(90)" fill="none" stroke="#81af1d" stroke-width="1"/>
      <path id="Trazado_263971" data-name="Trazado 263971" d="M-5920.5-10828v24" transform="translate(-16495.5 -4812) rotate(90)" fill="none" stroke="#81af1d" stroke-width="1"/>
      <path id="Trazado_263972" data-name="Trazado 263972" d="M-5920.5-10828v24" transform="translate(5134.5 -16640) rotate(-90)" fill="none" stroke="#81af1d" stroke-width="1"/>
      <path id="Trazado_263958" data-name="Trazado 263958" d="M0,0V41.25" transform="translate(-5989 -10761.5) rotate(90)" fill="none" stroke="#81af1d" stroke-width="1"/>
      <path id="Trazado_263959" data-name="Trazado 263959" d="M0,0V41.25" transform="translate(-5989 -10732.5) rotate(90)" fill="none" stroke="#81af1d" stroke-width="1"/>
      <path id="Trazado_263964" data-name="Trazado 263964" d="M0,0V86.25" transform="translate(-5852 -10800) rotate(-90)" fill="none" stroke="#81af1d" stroke-width="1"/>
      <path id="Trazado_263969" data-name="Trazado 263969" d="M0,0V48.167" transform="translate(-5826 -10700) rotate(-90)" fill="none" stroke="#81af1d" stroke-width="1"/>
      <path id="Trazado_263962" data-name="Trazado 263962" d="M0,0V41.25" transform="translate(-6005 -10690.5) rotate(90)" fill="none" stroke="#81af1d" stroke-width="1"/>
      <path id="Trazado_263960" data-name="Trazado 263960" d="M0,0V20.75" transform="translate(-6011.5 -10714.5) rotate(90)" fill="none" stroke="#81af1d" stroke-width="1"/>
      <path id="Trazado_263963" data-name="Trazado 263963" d="M0,0V10.75" transform="translate(-6033.5 -10672) rotate(90)" fill="none" stroke="#81af1d" stroke-width="1"/>
      <path id="Trazado_263961" data-name="Trazado 263961" d="M0,0V48" transform="translate(-6007 -10723.5) rotate(90)" fill="none" stroke="#81af1d" stroke-width="1"/>
      <path id="Trazado_263952" data-name="Trazado 263952" d="M-5920.5-10828v17.25" transform="translate(0 75.75)" fill="none" stroke="#81af1d" stroke-width="1"/>
      <path id="Trazado_263953" data-name="Trazado 263953" d="M-5920.5-10828v22" transform="translate(0 113)" fill="none" stroke="#81af1d" stroke-width="1"/>
      <path id="Trazado_263954" data-name="Trazado 263954" d="M-5920.5-10828v17" transform="translate(0 156)" fill="none" stroke="#81af1d" stroke-width="1"/>
      <path id="Trazado_263956" data-name="Trazado 263956" d="M-5920.5-10828v5" transform="translate(135 244)" fill="none" stroke="#81af1d" stroke-width="1"/>
      <path id="Trazado_263957" data-name="Trazado 263957" d="M-5920.5-10828v5" transform="translate(135 269)" fill="none" stroke="#81af1d" stroke-width="1"/>
      <path id="Polígono_6" data-name="Polígono 6" d="M3.5,0,7,4H0Z" transform="translate(-5917 -10809) rotate(180)" fill="#81af1d"/>
      <path id="Polígono_7" data-name="Polígono 7" d="M3.5,0,7,4H0Z" transform="translate(-5917 -10771) rotate(180)" fill="#81af1d"/>
      <path id="Polígono_23" data-name="Polígono 23" d="M3.5,0,7,4H0Z" transform="translate(-5749 -10704.75) rotate(180)" fill="#81af1d"/>
      <path id="Polígono_24" data-name="Polígono 24" d="M3.5,0,7,4H0Z" transform="translate(-5852.5 -10720) rotate(-90)" fill="#81af1d"/>
      <path id="Polígono_25" data-name="Polígono 25" d="M3.5,0,7,4H0Z" transform="translate(-5852.5 -10677) rotate(-90)" fill="#81af1d"/>
      <path id="Polígono_21" data-name="Polígono 21" d="M3.5,0,7,4H0Z" transform="translate(-5749 -10780) rotate(180)" fill="#81af1d"/>
      <path id="Polígono_22" data-name="Polígono 22" d="M3.5,0,7,4H0Z" transform="translate(-5749 -10735) rotate(180)" fill="#81af1d"/>
      <path id="Polígono_26" data-name="Polígono 26" d="M3.5,0,7,4H0Z" transform="translate(-5693.5 -10767) rotate(-90)" fill="#81af1d"/>
      <path id="Polígono_27" data-name="Polígono 27" d="M3.5,0,7,4H0Z" transform="translate(-5693.5 -10729) rotate(-90)" fill="#81af1d"/>
      <path id="Polígono_28" data-name="Polígono 28" d="M3.5,0,7,4H0Z" transform="translate(-5667.5 -10723) rotate(90)" fill="#81af1d"/>
      <path id="Polígono_14" data-name="Polígono 14" d="M3.5,0,7,4H0Z" transform="translate(-6032.25 -10758) rotate(-90)" fill="#81af1d"/>
      <path id="Polígono_15" data-name="Polígono 15" d="M3.5,0,7,4H0Z" transform="translate(-6032.25 -10729) rotate(-90)" fill="#81af1d"/>
      <path id="Polígono_20" data-name="Polígono 20" d="M3.5,0,7,4H0Z" transform="translate(-5763.75 -10803.5) rotate(90)" fill="#81af1d"/>
      <path id="Polígono_18" data-name="Polígono 18" d="M3.5,0,7,4H0Z" transform="translate(-6048.25 -10687) rotate(-90)" fill="#81af1d"/>
      <path id="Polígono_16" data-name="Polígono 16" d="M3.5,0,7,4H0Z" transform="translate(-6008.25 -10718) rotate(90)" fill="#81af1d"/>
      <path id="Polígono_19" data-name="Polígono 19" d="M3.5,0,7,4H0Z" transform="translate(-6030.25 -10675.5) rotate(90)" fill="#81af1d"/>
      <path id="Polígono_17" data-name="Polígono 17" d="M3.5,0,7,4H0Z" transform="translate(-6057 -10720) rotate(-90)" fill="#81af1d"/>
      <path id="Polígono_8" data-name="Polígono 8" d="M3.5,0,7,4H0Z" transform="translate(-5917 -10733) rotate(180)" fill="#81af1d"/>
      <path id="Polígono_9" data-name="Polígono 9" d="M3.5,0,7,4H0Z" transform="translate(-5917 -10691) rotate(180)" fill="#81af1d"/>
      <path id="Polígono_10" data-name="Polígono 10" d="M3.5,0,7,4H0Z" transform="translate(-5917 -10653) rotate(180)" fill="#81af1d"/>
      <path id="Polígono_12" data-name="Polígono 12" d="M3.5,0,7,4H0Z" transform="translate(-5782 -10577) rotate(180)" fill="#81af1d"/>
      <path id="Polígono_13" data-name="Polígono 13" d="M3.5,0,7,4H0Z" transform="translate(-5782 -10552) rotate(180)" fill="#81af1d"/>
      <path id="Polígono_11" data-name="Polígono 11" d="M3.5,0,7,4H0Z" transform="translate(-5782 -10602) rotate(180)" fill="#81af1d"/>
      <path id="Trazado_263955" data-name="Trazado 263955" d="M-5920.5-10634v12.5h135.25v18" fill="none" stroke="#81af1d" stroke-width="1"/>
      <path id="Trazado_263968" data-name="Trazado 263968" d="M-5850.5-10723h24.5v43h-24.5" transform="translate(0 -0.5)" fill="none" stroke="#81af1d" stroke-width="1"/>
    </g>
  </g>
</svg>
