<svg xmlns="http://www.w3.org/2000/svg" xmlns:xlink="http://www.w3.org/1999/xlink" width="180" height="180" viewBox="0 0 180 180">
  <defs>
    <filter id="Elipse_4724" x="0" y="0" width="180" height="180" filterUnits="userSpaceOnUse">
      <feOffset dy="5" input="SourceAlpha"/>
      <feGaussianBlur stdDeviation="5" result="blur"/>
      <feFlood flood-opacity="0.161"/>
      <feComposite operator="in" in2="blur"/>
      <feComposite in="SourceGraphic"/>
    </filter>
    <clipPath id="clip-path">
      <path id="path141" d="M0-682.665H90v90H0Z" transform="translate(0 682.665)" fill="#12263f"/>
    </clipPath>
  </defs>
  <g id="Grupo_223575" data-name="Grupo 223575" transform="translate(-711 -3733)">
    <g transform="matrix(1, 0, 0, 1, 711, 3733)" filter="url(#Elipse_4724)">
      <circle id="Elipse_4724-2" data-name="Elipse 4724" cx="75" cy="75" r="75" transform="translate(15 10)" fill="#a0d925"/>
    </g>
    <g id="aceite-de-palma_1_" data-name="aceite-de-palma (1)" transform="translate(756 3772.998)">
      <g id="g135" transform="translate(0 0.002)">
        <g id="g137">
          <g id="g139" clip-path="url(#clip-path)">
            <g id="g145" transform="translate(41.542 8.819)">
              <path id="path147" d="M-214.378-296.729h14.006a4.5,4.5,0,0,1,3.265,1.384,4.507,4.507,0,0,1,1.274,3.312,4.621,4.621,0,0,1-4.624,4.387l-.032,21.286a8.815,8.815,0,0,0,4.481,7.606,23.09,23.09,0,0,1,11.613,20,22.9,22.9,0,0,1-8.787,18.093,1.379,1.379,0,0,0-.53,1.089,4.029,4.029,0,0,1-4.024,4.025H-217.1a4.038,4.038,0,0,1-3.481-2.008,1.318,1.318,0,0,1-.06-1.207.971.971,0,0,0,.089-.424,92.059,92.059,0,0,0-5.887-31.521,1.318,1.318,0,0,1,.149-1.234,23.259,23.259,0,0,1,7.461-6.812,8.815,8.815,0,0,0,4.481-7.606v-21.254A4.639,4.639,0,0,1-219-292.1a4.461,4.461,0,0,1,1.3-3.227A4.691,4.691,0,0,1-214.378-296.729Zm16.642,78.544a1.389,1.389,0,0,0,1.388-1.388,4,4,0,0,1,1.535-3.16,20.283,20.283,0,0,0,7.782-16.022,20.448,20.448,0,0,0-10.284-17.71,11.457,11.457,0,0,1-5.809-9.895v-21.254a2.672,2.672,0,0,1,2.669-2.669,2.015,2.015,0,0,0,1.988-1.838,1.892,1.892,0,0,0-.534-1.391,1.89,1.89,0,0,0-1.37-.581h-14.006a2.039,2.039,0,0,0-1.444.612,1.844,1.844,0,0,0-.545,1.33,1.914,1.914,0,0,0,1.9,1.868,2.691,2.691,0,0,1,2.753,2.669v21.254a11.457,11.457,0,0,1-5.809,9.895,20.611,20.611,0,0,0-6.2,5.475,95.075,95.075,0,0,1,5.807,31.749,3.589,3.589,0,0,1-.061.741,1.386,1.386,0,0,0,.877.315Z" transform="translate(226.526 296.729)" fill="#12263f"/>
            </g>
            <g id="g149" transform="translate(54.557 0)">
              <path id="path151" d="M-71.575-65.434h-9.551a1.318,1.318,0,0,1-1.318-1.318v-6.782a3.358,3.358,0,0,1,3.354-3.354h5.479a3.358,3.358,0,0,1,3.354,3.354v6.782A1.318,1.318,0,0,1-71.575-65.434Zm-8.232-2.637h6.914v-5.464a.718.718,0,0,0-.718-.718H-79.09a.718.718,0,0,0-.718.718Z" transform="translate(82.444 76.889)" fill="#12263f"/>
            </g>
            <g id="g153" transform="translate(8.399 37.348)">
              <path id="path155" d="M-116.469-10.385h0a2.386,2.386,0,0,1,1.894.952,2.366,2.366,0,0,1,.385,2.095,33.549,33.549,0,0,1-16.468,20,2.631,2.631,0,0,1-1.242.316A2.627,2.627,0,0,1-133.942,12a2.605,2.605,0,0,1-.53-2.182c.971-4.7,4.6-16.065,17.281-20.092A2.382,2.382,0,0,1-116.469-10.385ZM-131.89,10.352A31.013,31.013,0,0,0-116.861-7.606C-127.438-4.015-130.816,5.156-131.89,10.352Z" transform="translate(134.527 10.385)" fill="#12263f"/>
            </g>
            <g id="g157" transform="translate(25.927 31.624)">
              <path id="path159" d="M-3.541-49.907h0a24.459,24.459,0,0,1-9.823-2.1,2.368,2.368,0,0,1-1.415-1.984,2.385,2.385,0,0,1,1.088-2.2A33.052,33.052,0,0,1,4.039-61.3a35.155,35.155,0,0,1,7.833.9,2.6,2.6,0,0,1,1.979,2.007,2.6,2.6,0,0,1-.98,2.644A27.9,27.9,0,0,1-3.541-49.907Zm-8.316-4.327a21.73,21.73,0,0,0,8.315,1.691,25.253,25.253,0,0,0,14.821-5.308,33.7,33.7,0,0,0-7.24-.812A30.458,30.458,0,0,0-11.857-54.234Z" transform="translate(14.788 61.3)" fill="#12263f"/>
            </g>
            <g id="g161" transform="translate(23.827 38.176)">
              <path id="path163" d="M-26.992-11.6a1.265,1.265,0,0,1,.892.341,21.947,21.947,0,0,0,8.029,1.851,1.318,1.318,0,0,1,1.061.6c5.5,8.452,12.16,23.178,12.615,45.34a3.593,3.593,0,0,1-1.034,2.607,3.588,3.588,0,0,1-2.583,1.086h-13.9a3.627,3.627,0,0,1-2.638-1.144,3.631,3.631,0,0,1-.969-2.711C-24.206,16.459-28.16,2.8-30.633-3.562a1.318,1.318,0,0,1,.063-1.093,29.04,29.04,0,0,0,2.224-5.457.919.919,0,0,1,.047-.555,1.4,1.4,0,0,1,.992-.9A1.56,1.56,0,0,1-26.992-11.6Zm8.136,4.794A24.46,24.46,0,0,1-26.11-8.416a32.215,32.215,0,0,1-1.852,4.457c2.559,6.79,6.384,20.644,5.079,40.5a.972.972,0,0,0,.263.735.968.968,0,0,0,.713.309h13.9a.972.972,0,0,0,.7-.294.976.976,0,0,0,.281-.708C-7.463,15.532-13.614,1.442-18.856-6.807Z" transform="translate(30.723 11.601)" fill="#12263f"/>
            </g>
            <g id="g165" transform="translate(1.252 28.584)">
              <path id="path167" d="M-168.7-63.276h0c-9.613-.022-16.251-5.754-19.352-9.169a2.6,2.6,0,0,1-.476-2.778,2.6,2.6,0,0,1,2.315-1.609q.741-.03,1.46-.029a33.522,33.522,0,0,1,22.892,8.872c.029.028.1.1.124.13a1.376,1.376,0,0,1,.324,1.136,1.318,1.318,0,0,1-.635,1.569,1.319,1.319,0,0,1-1.59-.271,23.466,23.466,0,0,0-4.394,1.971A1.318,1.318,0,0,1-168.7-63.276Zm-16.057-10.949q-.668,0-1.355.027c2.779,3.032,8.652,8.125,17.068,8.281a25.251,25.251,0,0,1,3.616-1.666A31.013,31.013,0,0,0-184.755-74.225Z" transform="translate(188.737 76.861)" fill="#12263f"/>
            </g>
            <g id="g169" transform="translate(16.594 13.037)">
              <path id="path171" d="M-67.94-163.889a1.268,1.268,0,0,1-.862-.326,29.3,29.3,0,0,0-3.945-3.009,1.318,1.318,0,0,1-.409-.414,33.825,33.825,0,0,1-5-20.176,2.636,2.636,0,0,1,2.629-2.46,2.6,2.6,0,0,1,1.8.725c3.3,3.143,8.823,9.833,8.715,19.329a1.318,1.318,0,0,1-.1.487,28.737,28.737,0,0,0-1.508,4.774,1.358,1.358,0,0,1-.893,1A1.425,1.425,0,0,1-67.94-163.889Zm-3.131-5.391q1.259.82,2.405,1.725c.258-.881.592-1.871,1.023-2.941,0-8.368-4.936-14.323-7.9-17.142A31.34,31.34,0,0,0-71.071-169.28Z" transform="translate(78.225 190.273)" fill="#12263f"/>
            </g>
            <g id="g173" transform="translate(25.588 16.347)">
              <path id="path175" d="M-103.7-11.531h0a2.641,2.641,0,0,1,1.99.91,2.614,2.614,0,0,1,.614,2.077,27.946,27.946,0,0,1-7.389,15.638,1.318,1.318,0,0,1-.594.346,29.762,29.762,0,0,0-8.213,3.573,1.318,1.318,0,0,1-1.524.922,1.315,1.315,0,0,1-.852-.583l-.144-.135a1.318,1.318,0,0,1-.411-1.192,33.567,33.567,0,0,1,15.133-21.153A2.615,2.615,0,0,1-103.7-11.531Zm-6.416,16.522a25.4,25.4,0,0,0,6.405-13.87A31.091,31.091,0,0,0-116.859,7.706,33.058,33.058,0,0,1-110.114,4.991Z" transform="translate(120.239 11.531)" fill="#12263f"/>
            </g>
            <g id="g177" transform="translate(26.342 48.012)">
              <path id="path179" d="M-94.507-10a1.319,1.319,0,0,1,.156.009,1.318,1.318,0,0,1,1.035.743A78.586,78.586,0,0,1-89.654-.056a1.318,1.318,0,0,1-.209,1.217,6.19,6.19,0,0,1-4.311,2.4,6.181,6.181,0,0,1-4.29-1.15.273.273,0,0,0-.162-.054.267.267,0,0,0-.2.092,6.239,6.239,0,0,1-3.97,1.991,6.291,6.291,0,0,1-.638.032,6.222,6.222,0,0,1-3.355-.982,1.318,1.318,0,0,1-.589-.884c-.4-2.287-.884-4.531-1.438-6.668a1.318,1.318,0,0,1,.315-1.233,1.318,1.318,0,0,1,1.21-.393,3.62,3.62,0,0,0,1.74-.1,3.6,3.6,0,0,0,2.023-1.578,2.887,2.887,0,0,1,2.486-1.405,2.9,2.9,0,0,1,1.213.265,3.581,3.581,0,0,0,1.5.326,3.615,3.615,0,0,0,1.066-.162,3.591,3.591,0,0,0,1.737-1.173A1.318,1.318,0,0,1-94.507-10ZM-92.4.038c-.765-2.256-1.624-4.455-2.563-6.564a6.254,6.254,0,0,1-1.526.706,6.249,6.249,0,0,1-1.843.279,6.2,6.2,0,0,1-2.589-.564c-.164-.027-.276-.014-.35.108a6.238,6.238,0,0,1-3.5,2.732,6.258,6.258,0,0,1-1.071.231c.352,1.486.67,3.011.952,4.558a3.576,3.576,0,0,0,1.829.292A3.605,3.605,0,0,0-100.77.665a2.918,2.918,0,0,1,2.144-.946A2.9,2.9,0,0,1-96.92.273a3.571,3.571,0,0,0,2.479.664A3.571,3.571,0,0,0-92.4.038Z" transform="translate(108.859 10)" fill="#12263f"/>
            </g>
            <g id="g181" transform="translate(29.016 67.21)">
              <path id="path183" d="M-139.861-51.667a6.6,6.6,0,0,1-4.242-1.551,1.318,1.318,0,0,1-.469-1.012c.008-2.751-.084-5.491-.274-8.143a1.318,1.318,0,0,1,.682-1.25,1.318,1.318,0,0,1,1.421.1,3.91,3.91,0,0,0,2.692.769,3.952,3.952,0,0,0,2.536-1.216,3.036,3.036,0,0,1,2.19-.943,3,3,0,0,1,1.815.608,3.913,3.913,0,0,0,2.7.776A3.962,3.962,0,0,0-127.97-65.1a1.318,1.318,0,0,1,1.347-.5,1.318,1.318,0,0,1,1,1.028c.48,2.411.876,4.913,1.179,7.435a1.318,1.318,0,0,1-.1.672,6.582,6.582,0,0,1-5.52,4c-.187.016-.374.023-.557.023a6.535,6.535,0,0,1-3.948-1.317.387.387,0,0,0-.234-.08.382.382,0,0,0-.279.123A6.586,6.586,0,0,1-139.3-51.69Q-139.584-51.666-139.861-51.667Zm-2.074-3.228a3.941,3.941,0,0,0,2.411.577,3.952,3.952,0,0,0,2.536-1.216,3.036,3.036,0,0,1,2.19-.943,3,3,0,0,1,1.815.608,3.922,3.922,0,0,0,2.367.79q.167,0,.336-.014a3.949,3.949,0,0,0,3.172-2.1c-.192-1.549-.419-3.087-.681-4.6a6.588,6.588,0,0,1-2.8.892,6.52,6.52,0,0,1-4.505-1.294.387.387,0,0,0-.234-.08.382.382,0,0,0-.279.123,6.586,6.586,0,0,1-4.227,2.027,6.577,6.577,0,0,1-2.248-.2C-141.989-58.535-141.94-56.718-141.935-54.895Z" transform="translate(144.849 65.631)" fill="#12263f"/>
            </g>
            <g id="g185" transform="translate(41.543 52.939)">
              <path id="path187" d="M-92.812,27.06h-19.362a4.038,4.038,0,0,1-3.48-2.008,1.318,1.318,0,0,1-.06-1.207.973.973,0,0,0,.089-.425A92.052,92.052,0,0,0-121.512-8.1a1.318,1.318,0,0,1,.147-1.231l.077-.113A1.318,1.318,0,0,1-120.21-10h14.64a1.318,1.318,0,0,1,1.318,1.318,1.318,1.318,0,0,1-1.318,1.318h-12.85a95.654,95.654,0,0,1,5.43,30.73,3.588,3.588,0,0,1-.062.741,1.386,1.386,0,0,0,.877.315h19.362a1.389,1.389,0,0,0,1.388-1.388,4,4,0,0,1,1.535-3.16A20.283,20.283,0,0,0-82.108,3.854,20.239,20.239,0,0,0-85.472-7.363H-99.417a1.318,1.318,0,0,1-1.318-1.318A1.318,1.318,0,0,1-99.417-10h14.64a1.318,1.318,0,0,1,1.076.556,22.869,22.869,0,0,1,4.23,13.3,22.9,22.9,0,0,1-8.787,18.093,1.379,1.379,0,0,0-.53,1.089A4.029,4.029,0,0,1-92.812,27.06Z" transform="translate(121.601 10)" fill="#12263f"/>
            </g>
            <g id="g189" transform="translate(64.943 25.874)">
              <path id="path191" d="M-35.806,18.8a1.318,1.318,0,0,1-1.035-.5,20.433,20.433,0,0,0-5.14-4.627A1.318,1.318,0,0,1-42.5,12.06,1.318,1.318,0,0,1-41,11.27a6.908,6.908,0,0,0,1.449.155A6.893,6.893,0,0,0-32.666,4.54a6.893,6.893,0,0,0-6.885-6.885,6.92,6.92,0,0,0-6.455,4.491,1.318,1.318,0,0,1-1.469.838,1.318,1.318,0,0,1-1.085-1.3v-8.2A1.318,1.318,0,0,1-48-7.6a14.66,14.66,0,0,1,5.583-2.378,1.318,1.318,0,0,1,1.549,1.038A1.318,1.318,0,0,1-41.9-7.39a12.011,12.011,0,0,0-4.02,1.582v3.285a9.54,9.54,0,0,1,6.372-2.459A9.532,9.532,0,0,1-30.03,4.54a9.538,9.538,0,0,1-7.4,9.284,23.056,23.056,0,0,1,2.072,2.126A12.227,12.227,0,0,0-27.393,4.54a12.187,12.187,0,0,0-8.96-11.728,1.318,1.318,0,0,1-.925-1.619,1.318,1.318,0,0,1,1.619-.925A14.83,14.83,0,0,1-24.756,4.54,14.87,14.87,0,0,1-35.44,18.749,1.317,1.317,0,0,1-35.806,18.8Z" transform="translate(48.56 10.002)" fill="#12263f"/>
            </g>
          </g>
        </g>
      </g>
    </g>
  </g>
</svg>
