<svg xmlns="http://www.w3.org/2000/svg" xmlns:xlink="http://www.w3.org/1999/xlink" width="180" height="180" viewBox="0 0 180 180">
  <defs>
    <filter id="Elipse_4725" x="0" y="0" width="180" height="180" filterUnits="userSpaceOnUse">
      <feOffset dy="5" input="SourceAlpha"/>
      <feGaussianBlur stdDeviation="5" result="blur"/>
      <feFlood flood-opacity="0.161"/>
      <feComposite operator="in" in2="blur"/>
      <feComposite in="SourceGraphic"/>
    </filter>
  </defs>
  <g id="Grupo_223576" data-name="Grupo 223576" transform="translate(-1131 -3733)">
    <g transform="matrix(1, 0, 0, 1, 1131, 3733)" filter="url(#Elipse_4725)">
      <circle id="Elipse_4725-2" data-name="Elipse 4725" cx="75" cy="75" r="75" transform="translate(15 10)" fill="#a0d925"/>
    </g>
    <g id="_08-tree" data-name="08-tree" transform="translate(1169.999 3763)">
      <path id="Trazado_262815" data-name="Trazado 262815" d="M38.884,69.232A12.135,12.135,0,0,1,26.892,58.848a8.7,8.7,0,0,1-8.777-8.654,8.536,8.536,0,0,1,1.038-4.067,8.493,8.493,0,0,1-2.162-3.193,8.367,8.367,0,0,1-2.338.338A8.644,8.644,0,0,1,11.432,26.6a11.769,11.769,0,0,1-.241-2.371A12.13,12.13,0,0,1,23.307,12.116a11.769,11.769,0,0,1,2.371.241A8.609,8.609,0,0,1,36.4,7.363a12.116,12.116,0,0,1,23.136,3.022,8.164,8.164,0,0,1,1.987.211,8.654,8.654,0,0,1,17.175,1.52,8.492,8.492,0,0,1-.173,1.731A8.654,8.654,0,0,1,87.347,22.5a4.945,4.945,0,0,1-.017.511A12.169,12.169,0,0,1,96,34.616a12.024,12.024,0,0,1-5.435,10.1,8.516,8.516,0,0,1,.242,2.018,8.664,8.664,0,0,1-8.654,8.654A8.664,8.664,0,0,1,73.5,64.04a8.555,8.555,0,0,1-5.776-2.25,8.32,8.32,0,0,1-2.878.519,8.638,8.638,0,0,1-6.987-3.591A12.164,12.164,0,0,1,49.828,62.3,12.126,12.126,0,0,1,38.884,69.232Zm-10.373-14.1a1.731,1.731,0,0,1,1.731,1.784c0,.023-.009.152-.01.173a8.654,8.654,0,0,0,16.811,2.878,1.731,1.731,0,0,1,1.731-1.154l.173.012c.1,0,.208.016.315.016A8.581,8.581,0,0,0,56.7,54.593a1.752,1.752,0,0,1,1.72-.833,1.731,1.731,0,0,1,1.438,1.258,5.18,5.18,0,0,0,7.442,3.173,1.731,1.731,0,0,1,2.176.431,5.165,5.165,0,0,0,9.211-3.237,5.083,5.083,0,0,0-.273-1.558A1.731,1.731,0,0,1,80.6,51.651a5.075,5.075,0,0,0,1.558.273,5.172,5.172,0,0,0,4.735-7.3,1.731,1.731,0,0,1,.815-2.25A8.638,8.638,0,0,0,85.1,26.059a1.731,1.731,0,0,1-1.428-2.177,5.134,5.134,0,0,0-7.442-5.918,1.731,1.731,0,0,1-2.172-2.607,5.118,5.118,0,0,0,1.177-3.242,5.192,5.192,0,1,0-10.385,0,4.611,4.611,0,0,0,.076.711,1.767,1.767,0,0,1-.749,1.72,1.719,1.719,0,0,1-1.85.064,4.869,4.869,0,0,0-3.981-.573,1.731,1.731,0,0,1-2.167-1.731.96.96,0,0,1,.01-.173,8.654,8.654,0,0,0-17.074-1.982,1.731,1.731,0,0,1-2.622,1.064,5.154,5.154,0,0,0-7.906,3.543,1.731,1.731,0,0,1-2.305,1.353A8.63,8.63,0,0,0,15.186,27.2a1.731,1.731,0,0,1-1.353,2.305,5.177,5.177,0,1,0,3.462,9.542,1.731,1.731,0,0,1,2.61,1.3,5.123,5.123,0,0,0,2.489,3.894,1.731,1.731,0,0,1,.433,2.607,5.123,5.123,0,0,0-1.25,3.339,5.192,5.192,0,0,0,5.192,5.192,5.125,5.125,0,0,0,1.307-.192,1.7,1.7,0,0,1,.436-.057Z" transform="translate(0 0)" fill="#12263f"/>
      <path id="Trazado_262816" data-name="Trazado 262816" d="M38.116,70.677H30.933A4.938,4.938,0,0,1,26,65.744V64.221a5.17,5.17,0,0,1,.192-1.364,79.389,79.389,0,0,0,1.362-7.993l3.429.471a80.279,80.279,0,0,1-1.449,8.419,1.812,1.812,0,0,0-.073.467v1.523a1.473,1.473,0,0,0,1.471,1.471h7.183Z" transform="translate(14.615 40.095)" fill="#12263f"/>
      <path id="Trazado_262817" data-name="Trazado 262817" d="M30.6,54.765l-3.436-.433c.142-1.118.286-2.274.428-3.451l3.436.414C30.881,52.472,30.738,53.642,30.6,54.765Z" transform="translate(15.463 37.184)" fill="#12263f"/>
      <path id="Trazado_262818" data-name="Trazado 262818" d="M31.08,58.769l-3.439-.4c1.251-10.847,2.352-22.35,2.352-22.466l3.462.338C33.436,36.35,32.335,47.886,31.08,58.769Z" transform="translate(15.815 26.24)" fill="#12263f"/>
      <path id="Trazado_262819" data-name="Trazado 262819" d="M40.183,87.386H33V83.924h7.183a1.473,1.473,0,0,0,1.471-1.471V80.93a1.859,1.859,0,0,0-.073-.467c-1.786-6.6-4.976-39.957-5.12-41.366V32h3.462v6.923c.026.173,3.289,34.315,5,40.639a5.213,5.213,0,0,1,.192,1.367v1.523a4.938,4.938,0,0,1-4.933,4.933Z" transform="translate(19.731 23.386)" fill="#12263f"/>
      <path id="Trazado_262820" data-name="Trazado 262820" d="M37.863,56.661l-1.212-3.244L46,49.911a5.215,5.215,0,0,0,3.373-4.862V36h3.462v9.049a8.694,8.694,0,0,1-5.616,8.1Z" transform="translate(22.399 26.309)" fill="#12263f"/>
      <path id="Trazado_262821" data-name="Trazado 262821" d="M41.462,45.385H38V41.923h3.462a1.731,1.731,0,0,0,1.731-1.731V35h3.462v5.192A5.192,5.192,0,0,1,41.462,45.385Z" transform="translate(23.385 25.578)" fill="#12263f"/>
      <path id="Trazado_262822" data-name="Trazado 262822" d="M32.2,47.593l-5.407-1.471A3.45,3.45,0,0,1,24,42.726V39h3.462v3.726c.057.009.113.022.173.036l5.478,1.49Z" transform="translate(13.154 28.502)" fill="#12263f"/>
      <path id="Trazado_262823" data-name="Trazado 262823" d="M34.123,55.149l-7.616-3.508A8.64,8.64,0,0,1,21,43.587V38h3.462v5.587a5.215,5.215,0,0,0,3.37,4.862l7.738,3.557Z" transform="translate(10.961 27.771)" fill="#12263f"/>
    </g>
  </g>
</svg>
