<svg xmlns="http://www.w3.org/2000/svg" width="150" height="150" viewBox="0 0 150 150">
  <g id="Grupo_223581" data-name="Grupo 223581" transform="translate(-1146 -1784)">
    <circle id="Elipse_4715" data-name="Elipse 4715" cx="75" cy="75" r="75" transform="translate(1146 1784)" fill="#e2872c"/>
    <circle id="Elipse_4716" data-name="Elipse 4716" cx="63" cy="63" r="63" transform="translate(1158 1796)" fill="#fff"/>
    <g id="fabrica-ecologica_1_" data-name="fabrica-ecologica (1)" transform="translate(1181 1819)">
      <path id="Trazado_262971" data-name="Trazado 262971" d="M65.366,15.5H53.26l.294-5.142A2.5,2.5,0,0,1,56.049,8h6.528a2.5,2.5,0,0,1,2.5,2.358Z" transform="translate(-44.938 -6.75)" fill="#edebfd"/>
      <path id="Trazado_262972" data-name="Trazado 262972" d="M63.792,62.25H50.97L51.328,56H63.434Z" transform="translate(-43.006 -47.25)" fill="#e2872c"/>
      <path id="Trazado_262973" data-name="Trazado 262973" d="M56.25,126H40l1.714-30H54.536Z" transform="translate(-33.75 -81)" fill="#edebfd"/>
      <path id="Trazado_262974" data-name="Trazado 262974" d="M81.929,15.5h-6.25l-.294-5.142A2.5,2.5,0,0,0,72.89,8h6.25a2.5,2.5,0,0,1,2.5,2.358Z" transform="translate(-61.501 -6.75)" fill="#d2d2fc"/>
      <path id="Trazado_262975" data-name="Trazado 262975" d="M97.348,62.25H91.1L90.74,56h6.25Z" transform="translate(-76.562 -47.25)" fill="#ba6f24"/>
      <path id="Trazado_262976" data-name="Trazado 262976" d="M100.994,126h-6.25L93.03,96h6.25Z" transform="translate(-78.494 -81)" fill="#d2d2fc"/>
      <path id="Trazado_262977" data-name="Trazado 262977" d="M55.5,321.75H8V290.5a2.5,2.5,0,0,1,2.5-2.5h45Z" transform="translate(-6.75 -243)" fill="#edebfd"/>
      <path id="Trazado_262978" data-name="Trazado 262978" d="M280,288h5v33.75h-5Z" transform="translate(-236.25 -243)" fill="#d2d2fc"/>
      <path id="Trazado_262979" data-name="Trazado 262979" d="M165,376.25h-5V372.5A12.5,12.5,0,0,1,172.5,360h5v3.75A12.5,12.5,0,0,1,165,376.25Z" transform="translate(-135 -303.75)" fill="#a0d925"/>
      <path id="Trazado_262980" data-name="Trazado 262980" d="M177.5,360v3.75a12.5,12.5,0,0,1-12.5,12.5h-5a12.5,12.5,0,0,0,12.5-12.5V360Z" transform="translate(-135 -303.75)" fill="#81af1d"/>
      <path id="Trazado_262981" data-name="Trazado 262981" d="M60.5,376.25h5V372.5A12.5,12.5,0,0,0,53,360H48v3.75A12.5,12.5,0,0,0,60.5,376.25Z" transform="translate(-40.5 -303.75)" fill="#a0d925"/>
      <path id="Trazado_262982" data-name="Trazado 262982" d="M65.5,372.5v3.75h-5V372.5A12.5,12.5,0,0,0,48,360h5A12.5,12.5,0,0,1,65.5,372.5Z" transform="translate(-40.5 -303.75)" fill="#81af1d"/>
      <path id="Trazado_262983" data-name="Trazado 262983" d="M312,186.7h30v-48.75c-28.138-10.72-26-10-26.833-10A3.167,3.167,0,0,0,312,131.113Z" transform="translate(-263.25 -107.946)" fill="#edebfd"/>
      <path id="Trazado_262984" data-name="Trazado 262984" d="M342.726,137.946V186.7h-6.25V139.2l-23.616-9a3.169,3.169,0,0,1,3.033-2.253C316.726,127.946,314.587,127.226,342.726,137.946Z" transform="translate(-263.976 -107.946)" fill="#d2d2fc"/>
      <path id="Trazado_262985" data-name="Trazado 262985" d="M201.366,15.5H189.26l.294-5.142A2.5,2.5,0,0,1,192.049,8h6.528a2.5,2.5,0,0,1,2.5,2.358Z" transform="translate(-159.688 -6.75)" fill="#edebfd"/>
      <path id="Trazado_262986" data-name="Trazado 262986" d="M199.792,62.25H186.97l.358-6.25h12.106Z" transform="translate(-157.756 -47.25)" fill="#e2872c"/>
      <path id="Trazado_262987" data-name="Trazado 262987" d="M192.25,126H176l1.714-30h12.822Z" transform="translate(-148.5 -81)" fill="#edebfd"/>
      <path id="Trazado_262988" data-name="Trazado 262988" d="M217.929,15.5h-6.25l-.294-5.142A2.5,2.5,0,0,0,208.89,8h6.25a2.5,2.5,0,0,1,2.5,2.358Z" transform="translate(-176.251 -6.75)" fill="#d2d2fc"/>
      <path id="Trazado_262989" data-name="Trazado 262989" d="M233.348,62.25H227.1L226.74,56h6.25Z" transform="translate(-191.312 -47.25)" fill="#ba6f24"/>
      <path id="Trazado_262990" data-name="Trazado 262990" d="M236.994,126h-6.25L229.03,96h6.25Z" transform="translate(-193.244 -81)" fill="#d2d2fc"/>
      <path id="Trazado_262991" data-name="Trazado 262991" d="M312,224h30v5H312Z" transform="translate(-263.25 -189)" fill="#e2872c"/>
      <path id="Trazado_262992" data-name="Trazado 262992" d="M464,224h6.25v5H464Z" transform="translate(-391.5 -189)" fill="#ba6f24"/>
      <path id="Trazado_262993" data-name="Trazado 262993" d="M380.5,416.25H368V402.5a2.5,2.5,0,0,1,2.5-2.5H378a2.5,2.5,0,0,1,2.5,2.5Z" transform="translate(-310.5 -337.5)" fill="#e2872c"/>
      <path id="Trazado_262994" data-name="Trazado 262994" d="M407.5,402.5v13.75h-5V402.5A2.5,2.5,0,0,0,400,400h5A2.5,2.5,0,0,1,407.5,402.5Z" transform="translate(-337.5 -337.5)" fill="#ba6f24"/>
      <path id="Trazado_262995" data-name="Trazado 262995" d="M79.2,28.832C51.179,18.159,53.07,18.75,51.917,18.75A4.422,4.422,0,0,0,47.5,23.167V43.75H44.931l-2.3-40.214A3.753,3.753,0,0,0,38.889,0H32.361a3.753,3.753,0,0,0-3.744,3.536l-2.3,40.214H23.681l-2.3-40.214A3.753,3.753,0,0,0,17.639,0H11.111A3.753,3.753,0,0,0,7.367,3.536L5.069,43.75H3.75A3.754,3.754,0,0,0,0,47.5V78.75A1.25,1.25,0,0,0,1.25,80h77.5A1.25,1.25,0,0,0,80,78.75V30a1.25,1.25,0,0,0-.805-1.168ZM51.917,21.25c.511,0-1.409-.671,25.583,9.612V33.75H50V23.167a1.919,1.919,0,0,1,1.917-1.917ZM77.5,38.75H50v-2.5H77.5ZM30.752,10H40.5l.214,3.75H30.538Zm1.609-7.5h6.528a1.251,1.251,0,0,1,1.248,1.179L40.355,7.5h-9.46l.218-3.821A1.251,1.251,0,0,1,32.361,2.5ZM30.395,16.25h10.46l1.572,27.5h-13.6ZM9.5,10h9.746l.214,3.75H9.288Zm1.609-7.5h6.528a1.251,1.251,0,0,1,1.248,1.179L19.105,7.5H9.645l.218-3.821A1.251,1.251,0,0,1,11.111,2.5ZM9.145,16.25h10.46l1.572,27.5H7.573ZM2.5,47.5a1.251,1.251,0,0,1,1.25-1.25H47.5V77.5H26.25V73.75H30A13.766,13.766,0,0,0,43.75,60V56.25A1.25,1.25,0,0,0,42.5,55h-5A13.768,13.768,0,0,0,25,63.025,13.768,13.768,0,0,0,12.5,55h-5a1.25,1.25,0,0,0-1.25,1.25V60A13.766,13.766,0,0,0,20,73.75h3.75V77.5H2.5ZM35.941,62.927a1.25,1.25,0,0,0-1.764-.118L26.25,69.745v-1A11.263,11.263,0,0,1,37.5,57.5h3.75V60A11.263,11.263,0,0,1,30,71.25H28.327l7.5-6.559a1.25,1.25,0,0,0,.118-1.764ZM23.75,69.745l-7.927-6.936a1.25,1.25,0,1,0-1.646,1.881l7.5,6.559H20A11.263,11.263,0,0,1,8.75,60V57.5H12.5A11.263,11.263,0,0,1,23.75,68.75Zm35,7.755V65A1.251,1.251,0,0,1,60,63.75h7.5A1.251,1.251,0,0,1,68.75,65V77.5Zm12.5,0V65a3.754,3.754,0,0,0-3.75-3.75H60A3.754,3.754,0,0,0,56.25,65V77.5H50V41.25H77.5V77.5Z"/>
      <path id="Trazado_262996" data-name="Trazado 262996" d="M347.75,352h-2.5a1.25,1.25,0,0,0,0,2.5h2.5a1.25,1.25,0,0,0,0-2.5Z" transform="translate(-290.25 -297)"/>
      <path id="Trazado_262997" data-name="Trazado 262997" d="M395.75,352h-2.5a1.25,1.25,0,0,0,0,2.5h2.5a1.25,1.25,0,0,0,0-2.5Z" transform="translate(-330.75 -297)"/>
      <path id="Trazado_262998" data-name="Trazado 262998" d="M443.75,352h-2.5a1.25,1.25,0,0,0,0,2.5h2.5a1.25,1.25,0,0,0,0-2.5Z" transform="translate(-371.25 -297)"/>
      <path id="Trazado_262999" data-name="Trazado 262999" d="M347.75,320h-2.5a1.25,1.25,0,0,0,0,2.5h2.5a1.25,1.25,0,0,0,0-2.5Z" transform="translate(-290.25 -270)"/>
      <path id="Trazado_263000" data-name="Trazado 263000" d="M395.75,320h-2.5a1.25,1.25,0,0,0,0,2.5h2.5a1.25,1.25,0,0,0,0-2.5Z" transform="translate(-330.75 -270)"/>
      <path id="Trazado_263001" data-name="Trazado 263001" d="M443.75,320h-2.5a1.25,1.25,0,0,0,0,2.5h2.5a1.25,1.25,0,0,0,0-2.5Z" transform="translate(-371.25 -270)"/>
      <path id="Trazado_263002" data-name="Trazado 263002" d="M347.75,288h-2.5a1.25,1.25,0,0,0,0,2.5h2.5a1.25,1.25,0,0,0,0-2.5Z" transform="translate(-290.25 -243)"/>
      <path id="Trazado_263003" data-name="Trazado 263003" d="M395.75,288h-2.5a1.25,1.25,0,0,0,0,2.5h2.5a1.25,1.25,0,0,0,0-2.5Z" transform="translate(-330.75 -243)"/>
      <path id="Trazado_263004" data-name="Trazado 263004" d="M443.75,288h-2.5a1.25,1.25,0,0,0,0,2.5h2.5a1.25,1.25,0,0,0,0-2.5Z" transform="translate(-371.25 -243)"/>
    </g>
  </g>
</svg>
