<svg xmlns="http://www.w3.org/2000/svg" xmlns:xlink="http://www.w3.org/1999/xlink" width="1240" height="593" viewBox="0 0 1240 593">
  <defs>
    <clipPath id="clip-path">
      <rect id="Rect치ngulo_293954" data-name="Rect치ngulo 293954" width="1240" height="593" rx="15" transform="translate(-5301 -11031)" fill="#c0f748"/>
    </clipPath>
    <filter id="Trazado_191271" x="-358.391" y="306.031" width="993.391" height="767.239" filterUnits="userSpaceOnUse">
      <feOffset dy="-12" input="SourceAlpha"/>
      <feGaussianBlur stdDeviation="5" result="blur"/>
      <feFlood flood-color="#007a64" flood-opacity="0.071"/>
      <feComposite operator="in" in2="blur"/>
      <feComposite in="SourceGraphic"/>
    </filter>
    <filter id="Trazado_191269" x="387.972" y="-239.214" width="1037.898" height="829.214" filterUnits="userSpaceOnUse">
      <feOffset dy="12" input="SourceAlpha"/>
      <feGaussianBlur stdDeviation="5" result="blur-2"/>
      <feFlood flood-color="#007a64" flood-opacity="0.09"/>
      <feComposite operator="in" in2="blur-2"/>
      <feComposite in="SourceGraphic"/>
    </filter>
    <filter id="Trazado_191270" x="655.458" y="-508.093" width="1037.898" height="829.214" filterUnits="userSpaceOnUse">
      <feOffset dy="12" input="SourceAlpha"/>
      <feGaussianBlur stdDeviation="5" result="blur-3"/>
      <feFlood flood-color="#007a64" flood-opacity="0.102"/>
      <feComposite operator="in" in2="blur-3"/>
      <feComposite in="SourceGraphic"/>
    </filter>
    <linearGradient id="linear-gradient" x1="0.711" y1="0.39" x2="-0.068" y2="1.64" gradientUnits="objectBoundingBox">
      <stop offset="0" stop-color="#c0f748"/>
      <stop offset="1" stop-color="#81af1d"/>
    </linearGradient>
    <linearGradient id="linear-gradient-2" x1="0.647" y1="0.361" x2="0.595" y2="-0.066" gradientUnits="objectBoundingBox">
      <stop offset="0" stop-color="#81af1d" stop-opacity="0"/>
      <stop offset="1" stop-color="#81af1d"/>
    </linearGradient>
  </defs>
  <g id="Grupo_223576" data-name="Grupo 223576" transform="translate(-180 -752)">
    <rect id="Rect치ngulo_293956" data-name="Rect치ngulo 293956" width="1240" height="593" rx="15" transform="translate(180 752)" fill="#e6fffb" opacity="0.5"/>
    <g id="Enmascarar_grupo_121" data-name="Enmascarar grupo 121" transform="translate(5481 11783)" clip-path="url(#clip-path)">
      <g id="Grupo_146560" data-name="Grupo 146560">
        <g transform="matrix(1, 0, 0, 1, -5301, -11031)" filter="url(#Trazado_191271)">
          <path id="Trazado_191271-2" data-name="Trazado 191271" d="M.368,514.565c3.358-41.362,29.4-79.751,64.269-102.892C97,390.2,136.526,380.019,165.9,354.6c52.121-45.1,43.529-113.224,64.451-172.676,20.941-59.5,79.666-102.868,143.41-101.747,46.986.825,91.471,23.845,138.457,24.595a148.787,148.787,0,0,0,89.745-28.643c32.484-23.877,55.282-56.141,95.228-68.757,43.9-13.864,93.572-7.781,133.457,14.966,54.274,30.959,90.135,88.746,103.215,149.844,12.359,57.712,4.718,121.873-31.2,168.7-48.665,63.448-141.885,88.62-173.112,162.236-17.9,42.192-10.848,91.95-29.726,133.715-19.872,43.96-69.5,72.472-117.483,67.491-51.258-5.319-92.109-43.083-136.426-69.386a331.209,331.209,0,0,0-203.157-44.073c-52.787,5.741-104.28,34.393-158.033,31.461-47.7-2.6-83.278-48.763-84.671-95.463a110.705,110.705,0,0,1,.319-12.3" transform="matrix(-1, -0.03, 0.03, -1, 595.4, 1070.27)" fill="#e6fffb" opacity="0.5"/>
        </g>
        <g transform="matrix(1, 0, 0, 1, -5301, -11031)" filter="url(#Trazado_191269)">
          <path id="Trazado_191269-2" data-name="Trazado 191269" d="M.367,190.321c3.358,41.362,29.4,79.751,64.269,102.892C97,314.689,136.526,324.867,165.9,350.287c52.121,45.1,43.529,113.224,64.451,172.676,20.941,59.5,79.666,102.868,143.41,101.747,46.986-.825,91.471-23.845,138.457-24.595a148.787,148.787,0,0,1,89.745,28.643c32.484,23.877,55.282,56.141,95.228,68.757,43.9,13.864,93.572,7.781,133.457-14.966C884.918,651.589,920.778,593.8,933.859,532.7c12.359-57.712,4.718-121.873-31.2-168.7-48.665-63.448-141.885-88.62-173.112-162.236-17.9-42.192-10.848-91.95-29.726-133.715C679.946,24.094,630.32-4.417,582.335.564,531.077,5.883,490.226,43.647,445.909,69.95a331.21,331.21,0,0,1-203.157,44.073c-52.787-5.741-104.28-34.393-158.033-31.461-47.7,2.6-83.278,48.763-84.671,95.463a110.706,110.706,0,0,0,.319,12.3" transform="matrix(0.99, 0.1, -0.1, 0.99, 476.65, -236.21)" fill="#e6fffb" opacity="0.5"/>
        </g>
        <g transform="matrix(1, 0, 0, 1, -5301, -11031)" filter="url(#Trazado_191270)">
          <path id="Trazado_191270-2" data-name="Trazado 191270" d="M.368,514.565c3.358-41.362,29.4-79.751,64.269-102.892C97,390.2,136.526,380.019,165.9,354.6c52.121-45.1,43.529-113.224,64.451-172.676,20.941-59.5,79.666-102.868,143.41-101.747,46.986.825,91.471,23.845,138.457,24.595a148.787,148.787,0,0,0,89.745-28.643c32.484-23.877,55.282-56.141,95.228-68.757,43.9-13.864,93.572-7.781,133.457,14.966,54.274,30.959,90.135,88.746,103.215,149.844,12.359,57.712,4.718,121.873-31.2,168.7-48.665,63.448-141.885,88.62-173.112,162.236-17.9,42.192-10.848,91.95-29.726,133.715-19.872,43.96-69.5,72.472-117.483,67.491-51.258-5.319-92.109-43.083-136.426-69.386a331.209,331.209,0,0,0-203.157-44.073c-52.787,5.741-104.28,34.393-158.033,31.461-47.7-2.6-83.278-48.763-84.671-95.463a110.705,110.705,0,0,1,.319-12.3" transform="matrix(-0.99, 0.1, -0.1, -0.99, 1678.36, 195.93)" fill="#e6fffb" opacity="0.5"/>
        </g>
      </g>
      <g id="Grupo_146561" data-name="Grupo 146561" transform="translate(-491.557 4.639)">
        <path id="Trazado_191281" data-name="Trazado 191281" d="M145.391,230.712a501.084,501.084,0,0,0,57.29-35.409,407.275,407.275,0,0,0,40.544-33.085c30.861-28.467,58.368-60.325,89.112-88.914a387.245,387.245,0,0,1,45.054-36.5A222.2,222.2,0,0,1,423.565,12.6,192.845,192.845,0,0,1,483.635.182,201.618,201.618,0,0,1,551.7,9.209V282.522H0c50.535-10.461,99.781-27.582,145.391-51.81" transform="translate(-3737.443 -10494.685) rotate(-90)" fill="url(#linear-gradient)"/>
        <path id="Trazado_191282" data-name="Trazado 191282" d="M153.824,112.886A595.2,595.2,0,0,0,218.292,97.2a461.224,461.224,0,0,0,47.686-17.339c37.143-15.751,71.915-34.832,108.976-50.7A439.385,439.385,0,0,1,427.876,10.1,268.672,268.672,0,0,1,478.723.831,238.74,238.74,0,0,1,539.966,3.6a230.96,230.96,0,0,1,63.452,21.1L533.153,237.217,0,123.1c51.528,2.32,103.518-.806,153.824-10.211" transform="translate(-3642.66 -10467.639) rotate(-90)" fill="url(#linear-gradient-2)"/>
      </g>
    </g>
  </g>
</svg>
