<svg xmlns="http://www.w3.org/2000/svg" width="190" height="110" viewBox="0 0 190 110">
  <g id="Grupo_223578" data-name="Grupo 223578" transform="translate(-180 -1574)">
    <g id="Grupo_153070" data-name="Grupo 153070" transform="translate(0 -1822)">
      <rect id="Rectángulo_40420" data-name="Rectángulo 40420" width="190" height="110" transform="translate(180 3396)" fill="none"/>
      <g id="Grupo_131655" data-name="Grupo 131655" transform="translate(0 -4286)">
        <rect id="Rectángulo_40418" data-name="Rectángulo 40418" width="50" height="50" rx="8" transform="translate(207 7687)" fill="#81af1d" opacity="0.2"/>
        <rect id="Rectángulo_40419" data-name="Rectángulo 40419" width="50" height="50" rx="8" transform="translate(293 7737)" fill="#e2872c" opacity="0.2"/>
      </g>
      <g id="azucar_3_" data-name="azucar (3)" transform="translate(212.362 3396)">
        <path id="Trazado_262692" data-name="Trazado 262692" d="M75.723,37.787,46.362,47.574,17,37.787l5.872-1.957,17.617-5.872L46.362,28l5.872,1.957L69.851,35.83Z" transform="translate(16.277 18.191)" fill="#eb9f52"/>
        <path id="Trazado_262693" data-name="Trazado 262693" d="M65.191,37.787,35.83,47.574,28,44.971l11.764-3.934a3.422,3.422,0,0,0,0-6.5L28,30.6l1.957-.646L35.83,28Z" transform="translate(26.808 18.191)" fill="#ebae70"/>
        <path id="Trazado_262694" data-name="Trazado 262694" d="M81.191,19V58.149H49.872V46.4L44,44.447V19Z" transform="translate(42.128 9.574)" fill="#eb9f52"/>
        <path id="Trazado_262695" data-name="Trazado 262695" d="M78.319,19V58.149H47v-7.83H58.821A11.669,11.669,0,0,0,70.489,38.651V19Z" transform="translate(45 9.574)" fill="#e2872c"/>
        <path id="Trazado_262696" data-name="Trazado 262696" d="M61.362,44.745V66.277L32,76.064V42.787L61.362,33Z" transform="translate(30.638 22.979)" fill="#eb9f52"/>
        <path id="Trazado_262697" data-name="Trazado 262697" d="M52.617,23.787V49.234L35,43.362V14Z" transform="translate(33.511 4.787)" fill="#eb9f52"/>
        <path id="Trazado_262698" data-name="Trazado 262698" d="M46.362,42.787V76.064L17,66.277V33Z" transform="translate(16.277 22.979)" fill="#eb9f52"/>
        <path id="Trazado_262699" data-name="Trazado 262699" d="M61.362,33V66.277L32,76.064v-7.83L46.6,63.36a12.986,12.986,0,0,0,8.887-12.312V34.957Z" transform="translate(30.638 22.979)" fill="#e2872c"/>
        <path id="Trazado_262700" data-name="Trazado 262700" d="M46.362,55.787v7.83L17,53.83V46Z" transform="translate(16.277 35.425)" fill="#e2872c"/>
        <path id="Trazado_262701" data-name="Trazado 262701" d="M37.617,10V47.191L20,53.064V19.787Z" transform="translate(19.149 0.957)" fill="#eb9f52"/>
        <path id="Trazado_262702" data-name="Trazado 262702" d="M37.617,10V47.191L20,53.064V47.191l3.347-1.116a12.275,12.275,0,0,0,8.4-11.647V13.269Z" transform="translate(19.149 0.957)" fill="#e2872c"/>
        <path id="Trazado_262703" data-name="Trazado 262703" d="M35,14l17.617,9.787H89.808L72.191,14Z" transform="translate(33.511 4.787)" fill="#eb9f52"/>
        <path id="Trazado_262704" data-name="Trazado 262704" d="M84.638,23.787H47.447L40.4,19.872H64.711A1.107,1.107,0,0,0,65.24,17.8L58.408,14h8.613Z" transform="translate(38.681 4.787)" fill="#ebae70"/>
        <path id="Trazado_262705" data-name="Trazado 262705" d="M55.808,10,38.191,19.787H1L18.617,10Z" transform="translate(0.957 0.957)" fill="#eb9f52"/>
        <path id="Trazado_262706" data-name="Trazado 262706" d="M55.808,10,38.191,19.787H1l7.047-3.915H31.105a12.078,12.078,0,0,0,5.931-1.546L44.827,10Z" transform="translate(0.957 0.957)" fill="#ebae70"/>
        <path id="Trazado_262707" data-name="Trazado 262707" d="M38.191,15V48.277l-5.872,1.957v3.915H1V15Z" transform="translate(0.957 5.745)" fill="#e2b298"/>
        <path id="Trazado_262708" data-name="Trazado 262708" d="M38.191,15V48.277l-5.872,1.957v3.915H1V15Z" transform="translate(0.957 5.745)" fill="#eb9f52"/>
        <path id="Trazado_262709" data-name="Trazado 262709" d="M38.191,29v5.872L32.319,36.83v3.915H1V29Z" transform="translate(0.957 19.149)" fill="#e2872c"/>
        <path id="Trazado_262710" data-name="Trazado 262710" d="M18.4,29.27a1.858,1.858,0,0,0-1.09-1.09A1.565,1.565,0,0,0,16.511,28l-.548.074a2.06,2.06,0,0,0-.91.53,2.148,2.148,0,0,0-.6,1.46v2.222a1.561,1.561,0,0,0,.178.795,1.858,1.858,0,0,0,1.09,1.09,1.565,1.565,0,0,0,.795.178l.548-.074a2.042,2.042,0,0,0,.91-.53,2.148,2.148,0,0,0,.6-1.46V30.065A1.561,1.561,0,0,0,18.4,29.27Z" transform="translate(13.832 18.192)" fill="#ba6f24"/>
        <path id="Trazado_262711" data-name="Trazado 262711" d="M9.4,28.27a1.541,1.541,0,0,0-.427-.664,1.553,1.553,0,0,0-.664-.427A1.565,1.565,0,0,0,7.511,27l-.548.074a2.06,2.06,0,0,0-.91.53,2.148,2.148,0,0,0-.6,1.46v2.222a1.52,1.52,0,0,0,.174.793,1.541,1.541,0,0,0,.427.664,1.553,1.553,0,0,0,.664.427,1.565,1.565,0,0,0,.795.178l.548-.074a2.042,2.042,0,0,0,.91-.53,2.148,2.148,0,0,0,.6-1.46V29.063A1.516,1.516,0,0,0,9.4,28.27Z" transform="translate(5.214 17.234)" fill="#ebae70"/>
        <path id="Trazado_262712" data-name="Trazado 262712" d="M15.4,19.27a1.858,1.858,0,0,0-1.09-1.09A1.565,1.565,0,0,0,13.511,18l-.548.074a2.06,2.06,0,0,0-.91.53,2.148,2.148,0,0,0-.6,1.46v2.222a1.561,1.561,0,0,0,.178.795,1.858,1.858,0,0,0,1.09,1.09,1.565,1.565,0,0,0,.795.178l.548-.074a2.042,2.042,0,0,0,.91-.53,2.148,2.148,0,0,0,.6-1.46V20.065A1.561,1.561,0,0,0,15.4,19.27Z" transform="translate(10.959 8.617)" fill="#ebae70"/>
        <path id="Trazado_262713" data-name="Trazado 262713" d="M23.4,38.27a1.858,1.858,0,0,0-1.09-1.09A1.565,1.565,0,0,0,21.511,37l-.548.074a2.06,2.06,0,0,0-.91.53,2.148,2.148,0,0,0-.6,1.46v2.222a1.561,1.561,0,0,0,.178.795,1.858,1.858,0,0,0,1.09,1.09,1.565,1.565,0,0,0,.795.178l.548-.074a2.042,2.042,0,0,0,.91-.53,2.148,2.148,0,0,0,.6-1.46V39.065A1.561,1.561,0,0,0,23.4,38.27Z" transform="translate(18.619 26.809)" fill="#ebae70"/>
        <path id="Trazado_262714" data-name="Trazado 262714" d="M27.4,46.27a1.858,1.858,0,0,0-1.09-1.09A1.565,1.565,0,0,0,25.511,45l-.548.074a2.06,2.06,0,0,0-.91.53,2.148,2.148,0,0,0-.6,1.46v2.222a1.56,1.56,0,0,0,.178.795,1.858,1.858,0,0,0,1.09,1.09,1.565,1.565,0,0,0,.795.178l.548-.074a2.042,2.042,0,0,0,.91-.53,2.148,2.148,0,0,0,.6-1.46V47.065A1.561,1.561,0,0,0,27.4,46.27Z" transform="translate(22.449 34.468)" fill="#ebae70"/>
        <path id="Trazado_262715" data-name="Trazado 262715" d="M50.4,23.27a1.541,1.541,0,0,0-.427-.664,2.3,2.3,0,0,0-1.458-.6l-.548.074a2.06,2.06,0,0,0-.91.53,2.148,2.148,0,0,0-.6,1.46v2.222a1.56,1.56,0,0,0,.178.795,1.541,1.541,0,0,0,.427.664,2.3,2.3,0,0,0,1.458.6l.548-.074a2.042,2.042,0,0,0,.91-.53,2.148,2.148,0,0,0,.6-1.46V24.065A1.561,1.561,0,0,0,50.4,23.27Z" transform="translate(44.47 12.447)" fill="#edd2c8"/>
        <path id="Trazado_262716" data-name="Trazado 262716" d="M39.4,41.27a1.541,1.541,0,0,0-.427-.664,2.3,2.3,0,0,0-1.458-.6l-.548.074a2.06,2.06,0,0,0-.91.53,2.148,2.148,0,0,0-.6,1.46v2.222a1.561,1.561,0,0,0,.178.795,1.541,1.541,0,0,0,.427.664,2.3,2.3,0,0,0,1.458.6l.548-.074a2.042,2.042,0,0,0,.91-.53,2.148,2.148,0,0,0,.6-1.46V42.065A1.561,1.561,0,0,0,39.4,41.27Z" transform="translate(33.938 29.681)" fill="#ebae70"/>
        <path id="Trazado_262717" data-name="Trazado 262717" d="M58.4,28.27a1.541,1.541,0,0,0-.427-.664,2.3,2.3,0,0,0-1.458-.6l-.548.074a2.06,2.06,0,0,0-.91.53,2.148,2.148,0,0,0-.6,1.46v2.222a1.561,1.561,0,0,0,.178.795,1.541,1.541,0,0,0,.427.664,2.3,2.3,0,0,0,1.458.6l.548-.074a2.042,2.042,0,0,0,.91-.53,2.148,2.148,0,0,0,.6-1.46V29.065A1.56,1.56,0,0,0,58.4,28.27Z" transform="translate(52.129 17.234)" fill="#edd2c8"/>
        <g id="Grupo_153072" data-name="Grupo 153072" transform="translate(0 9)">
          <path id="Trazado_262718" data-name="Trazado 262718" d="M124.268,26.864l-17.617-9.787a1.94,1.94,0,0,0-.949-.247H68.511A1.956,1.956,0,0,0,66.616,18.3a2,2,0,0,0-.043.491h-.02V45.434l-3.3-1.1a1.972,1.972,0,0,0-1.239,0l-3.294,1.1V10.957H58.7a1.905,1.905,0,0,0-.043-.491A1.956,1.956,0,0,0,56.766,9H19.574a1.94,1.94,0,0,0-.949.247L1.008,19.034A1.938,1.938,0,0,0,.02,20.745H0V59.894a1.956,1.956,0,0,0,1.957,1.957H31.319v27.4a1.953,1.953,0,0,0,1.339,1.856L62.02,100.9a1.93,1.93,0,0,0,1.237,0l29.362-9.787a1.953,1.953,0,0,0,1.339-1.856V69.681h29.362a1.956,1.956,0,0,0,1.957-1.957V28.574h-.02a1.938,1.938,0,0,0-.989-1.711Zm-53.8-4.751,13.7,7.612V51.306l-13.7-4.567Zm-50.387-9.2H49.212L38.644,18.787H9.511ZM3.915,57.936V22.7H37.191v7.83a1.957,1.957,0,1,0,3.915,0V21.9l13.7-7.613V46.738L41.106,51.3V38.362a1.957,1.957,0,1,0-3.915,0v14.25l-4.533,1.511a1.953,1.953,0,0,0-1.339,1.856v1.957Zm31.319.758,25.447,8.482V96.327L35.234,87.844ZM64.6,96.327V67.175l6.491-2.163A1.957,1.957,0,1,0,69.847,61.3l-7.209,2.4L39.466,55.979l23.172-7.724L85.81,55.979,77.679,58.69A1.957,1.957,0,0,0,78.918,62.4l11.124-3.709v29.15ZM93.957,65.766V55.979a1.953,1.953,0,0,0-1.339-1.856l-4.533-1.511V30.532H92a1.957,1.957,0,0,0,0-3.915H86.635L76.066,20.745H105.2l10.568,5.872H99.83a1.957,1.957,0,0,0,0,3.915h21.532V65.766Z" transform="translate(0 -9)"/>
          <path id="Trazado_262719" data-name="Trazado 262719" d="M41.957,41A1.956,1.956,0,0,0,40,42.957v1.957a1.957,1.957,0,1,0,3.915,0V42.957A1.956,1.956,0,0,0,41.957,41Z" transform="translate(38.298 21.638)" fill="#ba6f24"/>
          <path id="Trazado_262720" data-name="Trazado 262720" d="M52.957,30A1.956,1.956,0,0,0,51,31.957v1.957a1.957,1.957,0,1,0,3.915,0V31.957A1.956,1.956,0,0,0,52.957,30Z" transform="translate(48.83 11.106)" fill="#683919"/>
          <path id="Trazado_262721" data-name="Trazado 262721" d="M58.957,23A1.956,1.956,0,0,0,57,24.957v1.957a1.957,1.957,0,1,0,3.915,0V24.957A1.956,1.956,0,0,0,58.957,23Z" transform="translate(54.574 4.404)" fill="#683919"/>
          <path id="Trazado_262722" data-name="Trazado 262722" d="M12.957,26A1.956,1.956,0,0,0,11,27.957v1.957a1.957,1.957,0,1,0,3.915,0V27.957A1.956,1.956,0,0,0,12.957,26Z" transform="translate(10.532 7.277)" fill="#ba6f24"/>
          <path id="Trazado_262723" data-name="Trazado 262723" d="M6.957,19A1.956,1.956,0,0,0,5,20.957v1.957a1.957,1.957,0,1,0,3.915,0V20.957A1.956,1.956,0,0,0,6.957,19Z" transform="translate(4.787 0.574)" fill="#ba6f24"/>
          <path id="Trazado_262724" data-name="Trazado 262724" d="M36.957,47A1.956,1.956,0,0,0,35,48.957v1.957a1.957,1.957,0,0,0,3.915,0V48.957A1.956,1.956,0,0,0,36.957,47Z" transform="translate(33.511 27.383)" fill="#ba6f24"/>
          <path id="Trazado_262725" data-name="Trazado 262725" d="M21.957,45A1.956,1.956,0,0,0,20,46.957v1.957a1.957,1.957,0,1,0,3.915,0V46.957A1.956,1.956,0,0,0,21.957,45Z" transform="translate(19.149 25.468)" fill="#ba6f24"/>
          <path id="Trazado_262726" data-name="Trazado 262726" d="M27.957,41A1.956,1.956,0,0,0,26,42.957v1.957a1.957,1.957,0,1,0,3.915,0V42.957A1.956,1.956,0,0,0,27.957,41Z" transform="translate(24.894 21.638)" fill="#ba6f24"/>
          <path id="Trazado_262727" data-name="Trazado 262727" d="M7.915,39H5.957a1.957,1.957,0,1,0,0,3.915H7.915a1.957,1.957,0,1,0,0-3.915Z" transform="translate(3.83 19.723)" fill="#94591c"/>
          <path id="Trazado_262728" data-name="Trazado 262728" d="M10,41.957a1.956,1.956,0,0,0,1.957,1.957h1.957a1.957,1.957,0,1,0,0-3.915H11.957A1.956,1.956,0,0,0,10,41.957Z" transform="translate(9.574 20.681)" fill="#94591c"/>
          <path id="Trazado_262729" data-name="Trazado 262729" d="M12.915,37H10.957a1.957,1.957,0,1,0,0,3.915h1.957a1.957,1.957,0,1,0,0-3.915Z" transform="translate(8.617 17.808)" fill="#e2872c"/>
          <path id="Trazado_262730" data-name="Trazado 262730" d="M8.915,43H6.957a1.957,1.957,0,0,0,0,3.915H8.915a1.957,1.957,0,0,0,0-3.915Z" transform="translate(4.787 23.553)" fill="#e2872c"/>
          <path id="Trazado_262731" data-name="Trazado 262731" d="M51,48.957a1.956,1.956,0,0,0,1.957,1.957h1.957a1.957,1.957,0,1,0,0-3.915H52.957A1.956,1.956,0,0,0,51,48.957Z" transform="translate(48.83 27.383)" fill="#e2872c"/>
          <path id="Trazado_262732" data-name="Trazado 262732" d="M56,50.957a1.956,1.956,0,0,0,1.957,1.957h1.957a1.957,1.957,0,1,0,0-3.915H57.957A1.956,1.956,0,0,0,56,50.957Z" transform="translate(53.617 29.298)" fill="#94591c"/>
          <path id="Trazado_262733" data-name="Trazado 262733" d="M55.915,46.915a1.957,1.957,0,0,0,0-3.915H53.957a1.957,1.957,0,1,0,0,3.915Z" transform="translate(49.787 23.553)" fill="#94591c"/>
          <path id="Trazado_262734" data-name="Trazado 262734" d="M60.915,45.915a1.957,1.957,0,1,0,0-3.915H58.957a1.957,1.957,0,1,0,0,3.915Z" transform="translate(54.574 22.596)" fill="#e2872c"/>
        </g>
      </g>
    </g>
  </g>
</svg>
