<svg xmlns="http://www.w3.org/2000/svg" width="120" height="120" viewBox="0 0 120 120">
  <g id="Grupo_223604" data-name="Grupo 223604" transform="translate(-564.945 -6216)">
    <rect id="Rectángulo_294991" data-name="Rectángulo 294991" width="120" height="120" rx="15" transform="translate(564.945 6216)" fill="#a0d925"/>
    <g id="paquete" transform="translate(579.946 6230.998)">
      <g id="Grupo_153088" data-name="Grupo 153088" transform="translate(25.663 65.041)">
        <g id="Grupo_153087" data-name="Grupo 153087">
          <path id="Trazado_262775" data-name="Trazado 262775" d="M147.757,370a1.758,1.758,0,1,0,1.758,1.758A1.758,1.758,0,0,0,147.757,370Z" transform="translate(-145.999 -370.002)" fill="#12263f"/>
        </g>
      </g>
      <g id="Grupo_153090" data-name="Grupo 153090" transform="translate(0 0.002)">
        <g id="Grupo_153089" data-name="Grupo 153089" transform="translate(0)">
          <path id="Trazado_262776" data-name="Trazado 262776" d="M79.126,33.4,89.485,23.042a1.758,1.758,0,0,0-.725-2.923L63.536,12.334A17.58,17.58,0,0,0,30.451,11.01L1.234,20.121a1.758,1.758,0,0,0-.72,2.921L11.145,33.673,4.44,44.848a1.758,1.758,0,0,0,.952,2.572l9.725,3.241V77.7a1.758,1.758,0,0,0,1.141,1.646C22.2,81.572,44.3,89.858,44.415,89.9a1.751,1.751,0,0,0,1.125.016l.015,0L77.2,79.365A1.758,1.758,0,0,0,78.4,77.7V49.938l10.371-3.259a1.758,1.758,0,0,0,.716-2.92ZM64.335,17.58c0-.447-.019-.892-.052-1.336l20.653,6.375-8.771,8.771L61.834,26.613A17.628,17.628,0,0,0,64.335,17.58ZM33.455,13A14.062,14.062,0,0,1,60.82,17.58,14.061,14.061,0,0,1,46.757,31.643,14.074,14.074,0,0,1,33.455,13Zm-28.4,9.607,24.31-7.58a17.723,17.723,0,0,0-.187,2.549,17.472,17.472,0,0,0,1.948,8.045L13.834,31.389ZM8.582,44.778l5.558-9.264,28.224,9.408-5.558,9.264Zm34.659,40.93L18.632,76.479V51.833c19.362,6.42,18.417,6.224,18.956,6.224A1.758,1.758,0,0,0,39.1,57.2l4.146-6.91ZM45,42.094,18.918,33.4l14.2-4.734a17.573,17.573,0,0,0,26.486.909L71.081,33.4ZM74.882,76.43,46.757,85.8V48.958l6.232,7.789a1.758,1.758,0,0,0,1.9.579l19.994-6.283Zm-19.9-22.819-7.035-8.794,28.218-9.406,8.783,8.783Z" transform="translate(0 -0.002)" fill="#12263f"/>
        </g>
      </g>
      <g id="Grupo_153092" data-name="Grupo 153092" transform="translate(32.301 67.364)">
        <g id="Grupo_153091" data-name="Grupo 153091">
          <path id="Trazado_262777" data-name="Trazado 262777" d="M190.042,384.8l-3.909-1.466a1.758,1.758,0,0,0-1.235,3.292l3.909,1.466a1.758,1.758,0,1,0,1.235-3.292Z" transform="translate(-183.757 -383.219)" fill="#12263f"/>
        </g>
      </g>
      <g id="Grupo_153094" data-name="Grupo 153094" transform="translate(25.663 72.384)">
        <g id="Grupo_153093" data-name="Grupo 153093">
          <path id="Trazado_262778" data-name="Trazado 262778" d="M158.918,415.846l-10.547-3.955a1.758,1.758,0,1,0-1.235,3.292l10.547,3.955a1.758,1.758,0,1,0,1.235-3.292Z" transform="translate(-145.995 -411.779)" fill="#12263f"/>
        </g>
      </g>
      <g id="Grupo_153096" data-name="Grupo 153096" transform="translate(39.726 10.549)">
        <g id="Grupo_153095" data-name="Grupo 153095">
          <path id="Trazado_262779" data-name="Trazado 262779" d="M243.061,60.516a1.758,1.758,0,0,0-2.486,0l-9.3,9.3L229,67.547a1.758,1.758,0,1,0-2.486,2.486l3.516,3.515a1.758,1.758,0,0,0,2.486,0L243.061,63A1.758,1.758,0,0,0,243.061,60.516Z" transform="translate(-225.998 -60.001)" fill="#12263f"/>
        </g>
      </g>
    </g>
  </g>
</svg>
