<svg xmlns="http://www.w3.org/2000/svg" xmlns:xlink="http://www.w3.org/1999/xlink" width="1029.667" height="294.379" viewBox="0 0 1029.667 294.379">
  <defs>
    <linearGradient id="linear-gradient" x1="0.444" y1="1" x2="0.555" y2="0.161" gradientUnits="objectBoundingBox">
      <stop offset="0" stop-color="#dcdcdc"/>
      <stop offset="0.619" stop-color="#f5f5f5"/>
      <stop offset="1" stop-color="#fff"/>
    </linearGradient>
    <filter id="Trazado_263871" x="25.501" y="30.726" width="243.136" height="243.136" filterUnits="userSpaceOnUse">
      <feOffset dy="5" input="SourceAlpha"/>
      <feGaussianBlur stdDeviation="5" result="blur"/>
      <feFlood flood-opacity="0.161"/>
      <feComposite operator="in" in2="blur"/>
      <feComposite in="SourceGraphic"/>
    </filter>
    <clipPath id="clip-path">
      <path id="Trazado_263871-2" data-name="Trazado 263871" d="M96.533,203.636A106.568,106.568,0,1,0,203.1,97.068,106.567,106.567,0,0,0,96.533,203.636" transform="translate(-96.533 -97.068)" fill="url(#linear-gradient)"/>
    </clipPath>
    <filter id="Elipse_4955" x="109.668" y="13.765" width="75" height="75" filterUnits="userSpaceOnUse">
      <feOffset dy="5" input="SourceAlpha"/>
      <feGaussianBlur stdDeviation="5" result="blur-2"/>
      <feFlood flood-opacity="0.161"/>
      <feComposite operator="in" in2="blur-2"/>
      <feComposite in="SourceGraphic"/>
    </filter>
    <filter id="Trazado_263900" x="392.668" y="30.726" width="243.136" height="243.136" filterUnits="userSpaceOnUse">
      <feOffset dy="5" input="SourceAlpha"/>
      <feGaussianBlur stdDeviation="5" result="blur-3"/>
      <feFlood flood-opacity="0.161"/>
      <feComposite operator="in" in2="blur-3"/>
      <feComposite in="SourceGraphic"/>
    </filter>
    <filter id="Elipse_4956" x="476.668" y="13.765" width="75" height="75" filterUnits="userSpaceOnUse">
      <feOffset dy="5" input="SourceAlpha"/>
      <feGaussianBlur stdDeviation="5" result="blur-4"/>
      <feFlood flood-opacity="0.161"/>
      <feComposite operator="in" in2="blur-4"/>
      <feComposite in="SourceGraphic"/>
    </filter>
    <filter id="Elipse_4957" x="844.668" y="13.765" width="75" height="75" filterUnits="userSpaceOnUse">
      <feOffset dy="5" input="SourceAlpha"/>
      <feGaussianBlur stdDeviation="5" result="blur-5"/>
      <feFlood flood-opacity="0.161"/>
      <feComposite operator="in" in2="blur-5"/>
      <feComposite in="SourceGraphic"/>
    </filter>
    <clipPath id="clip-path-2">
      <path id="path5571" d="M0-682.665H60v60H0Z" transform="translate(0 682.665)"/>
    </clipPath>
  </defs>
  <g id="Grupo_223602" data-name="Grupo 223602" transform="translate(-285 -4560)">
    <g id="Grupo_156477" data-name="Grupo 156477" transform="translate(-2735.332 11621.766)">
      <path id="Trazado_263869" data-name="Trazado 263869" d="M306.381,129.459a125.07,125.07,0,0,0-230.344-.023l28.236,40.954a87.276,87.276,0,0,1,173.068-6.327h0l33.883,49.141a125.561,125.561,0,0,0-4.843-83.748" transform="translate(2976.197 -7092.595)" fill="#e8e8e8"/>
      <path id="Trazado_263870" data-name="Trazado 263870" d="M264.519,310.266A87.277,87.277,0,0,1,91.45,316.591l-33.88-49.14a125.043,125.043,0,0,0,235.185,83.771Z" transform="translate(2989.812 -7217.005)" fill="#81af1d"/>
      <g transform="matrix(1, 0, 0, 1, 3020.33, -7061.77)" filter="url(#Trazado_263871)">
        <path id="Trazado_263871-3" data-name="Trazado 263871" d="M96.533,203.636A106.568,106.568,0,1,0,203.1,97.068,106.567,106.567,0,0,0,96.533,203.636" transform="translate(-56.03 -56.34)" fill="url(#linear-gradient)"/>
      </g>
      <path id="Trazado_263872" data-name="Trazado 263872" d="M1182.794,129.459a125.07,125.07,0,0,0-230.344-.023l28.236,40.954a87.276,87.276,0,0,1,173.068-6.327h0l33.883,49.141a125.562,125.562,0,0,0-4.843-83.748" transform="translate(4602.724 -6736.349) rotate(180)" fill="#e2872c"/>
      <path id="Trazado_263873" data-name="Trazado 263873" d="M1140.932,310.266a87.277,87.277,0,0,1-173.069,6.325l-33.88-49.14a125.043,125.043,0,0,0,235.185,83.771Z" transform="translate(4589.109 -6611.938) rotate(180)" fill="#e8e8e8"/>
      <path id="Trazado_263875" data-name="Trazado 263875" d="M2059.206,129.459a125.07,125.07,0,0,0-230.344-.023l28.236,40.954a87.276,87.276,0,0,1,173.068-6.327h0l33.883,49.141a125.56,125.56,0,0,0-4.843-83.748" transform="translate(1958.782 -7092.595)" fill="#e8e8e8"/>
      <path id="Trazado_263876" data-name="Trazado 263876" d="M2017.345,310.266a87.277,87.277,0,0,1-173.069,6.325l-33.88-49.14a125.043,125.043,0,0,0,235.185,83.771Z" transform="translate(1972.396 -7217.005)" fill="#81af1d"/>
      <path id="Trazado_263880" data-name="Trazado 263880" d="M325.918,225.217A101.235,101.235,0,1,1,224.682,123.981,101.236,101.236,0,0,1,325.918,225.217" transform="translate(2942.553 -7139.688)" fill="#fff"/>
      <path id="Trazado_263881" data-name="Trazado 263881" d="M208.6,508.468a146.719,146.719,0,0,1-102.591-41.644l2.8-2.883a143.17,143.17,0,0,0,242.759-95.1l4.015.209A147.19,147.19,0,0,1,208.6,508.468" transform="translate(2958.799 -7275.854)" fill="#81af1d"/>
      <path id="Trazado_263882" data-name="Trazado 263882" d="M633.545,198.972a142.79,142.79,0,0,0-41.719-93.377l2.843-2.843a146.8,146.8,0,0,1,42.891,96Z" transform="translate(2676.811 -7121.407)" fill="#81af1d"/>
      <path id="Trazado_263883" data-name="Trazado 263883" d="M26.417,230.279a2.008,2.008,0,0,1-1.671-.89l-.12-.179a2.01,2.01,0,1,1,3.338-2.241l.121.18a2.011,2.011,0,0,1-1.667,3.13M12.188,203.315a2.011,2.011,0,0,1-1.868-1.266l-.081-.2a2.01,2.01,0,0,1,3.736-1.485l.079.2a2.011,2.011,0,0,1-1.867,2.756M3.939,173.966a2.01,2.01,0,0,1-1.979-1.675l-.036-.214a2.01,2.01,0,1,1,3.964-.669l.036.211a2.012,2.012,0,0,1-1.985,2.346M2.012,143.54l-.083,0A2.01,2.01,0,0,1,0,141.448l.009-.217a2.01,2.01,0,0,1,4.017.164l-.009.216a2.01,2.01,0,0,1-2.007,1.928m4.41-30.159a2.011,2.011,0,0,1-1.949-2.509l.055-.213a2.01,2.01,0,0,1,3.893,1l-.053.207a2.011,2.011,0,0,1-1.946,1.512M17.064,84.814a2.01,2.01,0,0,1-1.8-2.907l.1-.2a2.01,2.01,0,0,1,3.6,1.8l-.1.192a2.01,2.01,0,0,1-1.8,1.114m16.4-25.7a2.01,2.01,0,0,1-1.57-3.263l.136-.172a2.01,2.01,0,0,1,3.141,2.51l-.134.167a2.006,2.006,0,0,1-1.573.757M54.844,37.381a2.01,2.01,0,0,1-1.279-3.562l.168-.139a2.01,2.01,0,1,1,2.553,3.106l-.166.136a2,2,0,0,1-1.277.459m171.211-9.7a2,2,0,0,1-1.093-.324l-.18-.117a2.01,2.01,0,1,1,2.185-3.374l.184.119a2.01,2.01,0,0,1-1.1,3.7m-145.784-7.1a2.011,2.011,0,0,1-.928-3.794l.2-.1a2.01,2.01,0,1,1,1.846,3.571l-.188.1a2,2,0,0,1-.925.227m118.613-6.727a2,2,0,0,1-.718-.134l-.2-.076a2.01,2.01,0,1,1,1.43-3.758l.206.079a2.011,2.011,0,0,1-.719,3.888M108.653,9.466a2.01,2.01,0,0,1-.53-3.949l.212-.058a2.01,2.01,0,1,1,1.056,3.879l-.206.056a2,2,0,0,1-.532.072m60.762-3.428a1.974,1.974,0,0,1-.308-.024l-.211-.032a2.01,2.01,0,1,1,.605-3.974l.218.034a2.01,2.01,0,0,1-.3,4m-30.68-1.474a2.01,2.01,0,0,1-.111-4.017l.216-.012a2.01,2.01,0,0,1,.224,4.014l-.216.012c-.038,0-.076,0-.114,0" transform="translate(3020.332 -7062.073)" fill="#81af1d"/>
      <rect id="Rectángulo_296345" data-name="Rectángulo 296345" width="61.158" height="4.02" transform="translate(3320.396 -6916.586)" fill="#81af1d"/>
      <path id="Trazado_263884" data-name="Trazado 263884" d="M682.968,346.691a9.827,9.827,0,1,1,9.828-9.828,9.839,9.839,0,0,1-9.828,9.828m0-15.635a5.807,5.807,0,1,0,5.807,5.807,5.814,5.814,0,0,0-5.807-5.807" transform="translate(2629.613 -7251.591)" fill="#81af1d"/>
      <path id="Trazado_263885" data-name="Trazado 263885" d="M695.279,345.824a3.35,3.35,0,1,1-3.35-3.35,3.35,3.35,0,0,1,3.35,3.35" transform="translate(2620.652 -7260.552)" fill="#81af1d"/>
      <path id="Trazado_263886" data-name="Trazado 263886" d="M1022.662,514.2a147.044,147.044,0,0,1-146.7-135.164l4.007-.326a143.223,143.223,0,0,0,41.458,89.537c55.821,55.822,146.65,55.822,202.471,0a143.224,143.224,0,0,0,41.458-89.537l4.007.326a147.056,147.056,0,0,1-146.7,135.164" transform="translate(2512.038 -7281.582)" fill="#e2872c"/>
      <path id="Trazado_263887" data-name="Trazado 263887" d="M880.068,130.449a2.012,2.012,0,0,1-1.994-2.286l.031-.228a2.01,2.01,0,0,1,3.982.557l-.031.222a2.011,2.011,0,0,1-1.989,1.735m287.612-.041a2.01,2.01,0,0,1-1.989-1.738l-.03-.219a2.01,2.01,0,1,1,3.981-.556l.032.231a2.01,2.01,0,0,1-1.719,2.264,2.04,2.04,0,0,1-.275.019M887.873,99.495a2.012,2.012,0,0,1-1.883-2.713l.081-.217a2.01,2.01,0,0,1,3.763,1.415l-.078.207a2.01,2.01,0,0,1-1.884,1.309m271.991-.042a2.011,2.011,0,0,1-1.884-1.31l-.077-.207a2.01,2.01,0,0,1,3.764-1.413l.082.219a2.012,2.012,0,0,1-1.884,2.711M902.284,71.011A2.01,2.01,0,0,1,900.6,67.9l.125-.191a2.01,2.01,0,0,1,3.362,2.2l-.122.187a2.008,2.008,0,0,1-1.684.91m243.158-.043a2.009,2.009,0,0,1-1.685-.911l-.122-.187A2.01,2.01,0,0,1,1147,67.664l.128.195a2.01,2.01,0,0,1-1.681,3.109M922.594,46.377a2.01,2.01,0,0,1-1.4-3.45l.166-.161a2.01,2.01,0,1,1,2.8,2.886l-.16.155a2,2,0,0,1-1.4.57m202.525-.039a2,2,0,0,1-1.4-.567l-.164-.159a2.01,2.01,0,1,1,2.8-2.883l.161.156a2.01,2.01,0,0,1-1.4,3.453M947.764,26.725A2.01,2.01,0,0,1,946.707,23l.2-.122a2.01,2.01,0,0,1,2.1,3.428l-.19.117a2,2,0,0,1-1.053.3M1099.95,26.7a2,2,0,0,1-1.052-.3l-.193-.119a2.01,2.01,0,0,1,2.108-3.424l.192.118a2.01,2.01,0,0,1-1.055,3.723M976.628,13.081a2.01,2.01,0,0,1-.654-3.912l.22-.076a2.01,2.01,0,1,1,1.3,3.805l-.21.072a2,2,0,0,1-.654.11m94.463-.012a2,2,0,0,1-.654-.11l-.21-.072a2.01,2.01,0,0,1,1.3-3.8l.219.075a2.011,2.011,0,0,1-.654,3.912M1007.782,6.1a2.01,2.01,0,0,1-.218-4.008l.228-.025a2.01,2.01,0,0,1,.435,4l-.223.024a1.991,1.991,0,0,1-.222.012m32.158,0a1.987,1.987,0,0,1-.222-.012l-.223-.024a2.01,2.01,0,0,1,.435-4l.228.025a2.01,2.01,0,0,1-.218,4.008" transform="translate(2510.671 -7062.956)" fill="#e2872c"/>
      <rect id="Rectángulo_296346" data-name="Rectángulo 296346" width="62.275" height="4.02" transform="translate(3687.542 -6916.586)" fill="#e2872c"/>
      <path id="Trazado_263888" data-name="Trazado 263888" d="M865.991,347.3a9.828,9.828,0,1,1,9.827-9.828,9.839,9.839,0,0,1-9.827,9.828m0-15.635a5.807,5.807,0,1,0,5.807,5.807,5.814,5.814,0,0,0-5.807-5.807" transform="translate(2523.378 -7251.945)" fill="#e2872c"/>
      <path id="Trazado_263889" data-name="Trazado 263889" d="M1558.05,346.691a9.827,9.827,0,1,1,9.828-9.828,9.839,9.839,0,0,1-9.828,9.828m0-15.635a5.807,5.807,0,1,0,5.807,5.807,5.814,5.814,0,0,0-5.807-5.807" transform="translate(2121.677 -7251.591)" fill="#e2872c"/>
      <path id="Trazado_263890" data-name="Trazado 263890" d="M878.3,346.434a3.35,3.35,0,1,1-3.35-3.35,3.35,3.35,0,0,1,3.35,3.35" transform="translate(2514.417 -7260.906)" fill="#e2872c"/>
      <path id="Trazado_263891" data-name="Trazado 263891" d="M1570.362,345.824a3.35,3.35,0,1,1-3.35-3.35,3.35,3.35,0,0,1,3.35,3.35" transform="translate(2112.716 -7260.552)" fill="#e2872c"/>
      <path id="Trazado_263892" data-name="Trazado 263892" d="M1757.078,139.331l-4.015-.217A147.193,147.193,0,0,1,1900.033,0c1.682,0,3.36.029,4.987.084l-.138,4.018c-1.581-.054-3.213-.081-4.849-.081a143.113,143.113,0,0,0-142.955,135.31" transform="translate(2002.779 -7061.765)" fill="#81af1d"/>
      <path id="Trazado_263893" data-name="Trazado 263893" d="M1900.011,508.468a147.19,147.19,0,0,1-146.985-139.422l4.015-.209a143.055,143.055,0,0,0,142.971,135.61c1.636,0,3.268-.028,4.852-.082l.138,4.018c-1.629.056-3.308.084-4.989.084" transform="translate(2002.8 -7275.854)" fill="#81af1d"/>
      <path id="Trazado_263894" data-name="Trazado 263894" d="M2187.151,296.082a2.01,2.01,0,0,1-.5-3.958l.212-.055a2.01,2.01,0,1,1,1.013,3.891l-.226.059a2.024,2.024,0,0,1-.5.063m29.733-11.308a2.011,2.011,0,0,1-.919-3.8l.2-.1a2.01,2.01,0,0,1,1.845,3.572l-.2.105a2,2,0,0,1-.916.222m26.536-17.524a2.01,2.01,0,0,1-1.279-3.562l.164-.137a2.01,2.01,0,1,1,2.575,3.088l-.182.152a2,2,0,0,1-1.278.459m22.11-22.867a2.01,2.01,0,0,1-1.586-3.243l.133-.172a2.01,2.01,0,0,1,3.186,2.453l-.144.185a2.007,2.007,0,0,1-1.589.777m16.624-27.124a2.011,2.011,0,0,1-1.816-2.87l.093-.2a2.01,2.01,0,0,1,3.642,1.7l-.1.212a2.009,2.009,0,0,1-1.819,1.151m10.294-30.108a2.013,2.013,0,0,1-1.965-2.446l.048-.216a2.01,2.01,0,1,1,3.927.863l-.05.225a2.01,2.01,0,0,1-1.96,1.575m3.456-31.617a2.011,2.011,0,0,1-2.011-2.011V153.3a2.01,2.01,0,0,1,4.02,0v.226a2.01,2.01,0,0,1-2.01,2.011m-3.451-31.62a2.012,2.012,0,0,1-1.961-1.575l-.048-.219a2.01,2.01,0,1,1,3.924-.874l.05.222a2.01,2.01,0,0,1-1.527,2.4,2.033,2.033,0,0,1-.437.048m-10.273-30.1a2.009,2.009,0,0,1-1.821-1.158l-.094-.2a2.01,2.01,0,1,1,3.636-1.716l.1.209a2.011,2.011,0,0,1-1.819,2.863m-16.607-27.123a2.009,2.009,0,0,1-1.6-.785l-.131-.17a2.01,2.01,0,0,1,3.173-2.469l.146.187a2.01,2.01,0,0,1-1.592,3.236m-22.106-22.877a2,2,0,0,1-1.286-.467l-.17-.141a2.01,2.01,0,0,1,2.566-3.1l.178.148a2.01,2.01,0,0,1-1.289,3.554m-26.54-17.541a2.007,2.007,0,0,1-.914-.221l-.2-.1a2.01,2.01,0,0,1,1.831-3.58l.2.1a2.011,2.011,0,0,1-.916,3.8M2187.2,14.95a2,2,0,0,1-.506-.065l-.217-.056a2.01,2.01,0,1,1,1-3.893l.224.058a2.011,2.011,0,0,1-.5,3.956" transform="translate(1752.084 -7068.075)" fill="#81af1d"/>
      <path id="Trazado_263895" data-name="Trazado 263895" d="M1743.733,346.691a9.827,9.827,0,1,1,9.827-9.828,9.839,9.839,0,0,1-9.827,9.828m0-15.635a5.807,5.807,0,1,0,5.807,5.807,5.814,5.814,0,0,0-5.807-5.807" transform="translate(2013.899 -7251.591)" fill="#81af1d"/>
      <path id="Trazado_263896" data-name="Trazado 263896" d="M1756.045,345.829a3.35,3.35,0,1,1-3.351-3.35,3.35,3.35,0,0,1,3.351,3.35" transform="translate(2004.937 -7260.555)" fill="#81af1d"/>
      <g id="Grupo_156474" data-name="Grupo 156474" transform="translate(3796.243 -7021.04)">
        <g id="Grupo_156463" data-name="Grupo 156463" clip-path="url(#clip-path)">
          <rect id="Rectángulo_296340" data-name="Rectángulo 296340" width="301.419" height="301.419" transform="translate(-106.568 106.568) rotate(-45)" fill="url(#linear-gradient)"/>
        </g>
      </g>
      <path id="Trazado_263898" data-name="Trazado 263898" d="M325.918,225.217A101.235,101.235,0,1,1,224.682,123.981,101.236,101.236,0,0,1,325.918,225.217" transform="translate(3678.553 -7139.688)" fill="#fff"/>
      <text id="Ablandamiento" transform="translate(3092 -6871)" fill="#12263f" font-size="22" font-family="Roboto-Black, Roboto" font-weight="800"><tspan x="0" y="0">Ablandamiento</tspan></text>
      <text id="Microorganismos" transform="translate(3816 -6871)" fill="#12263f" font-size="22" font-family="Roboto-Black, Roboto" font-weight="800"><tspan x="0" y="0">Microorganismos</tspan></text>
      <g transform="matrix(1, 0, 0, 1, 3020.33, -7061.77)" filter="url(#Elipse_4955)">
        <circle id="Elipse_4955-2" data-name="Elipse 4955" cx="22.5" cy="22.5" r="22.5" transform="translate(124.67 23.77)" fill="#81af1d"/>
      </g>
      <g transform="matrix(1, 0, 0, 1, 3020.33, -7061.77)" filter="url(#Trazado_263900)">
        <path id="Trazado_263900-2" data-name="Trazado 263900" d="M96.533,203.636A106.568,106.568,0,1,0,203.1,97.068,106.567,106.567,0,0,0,96.533,203.636" transform="translate(311.13 -56.34)" fill="url(#linear-gradient)"/>
      </g>
      <path id="Trazado_263899" data-name="Trazado 263899" d="M325.918,225.217A101.235,101.235,0,1,1,224.682,123.981,101.236,101.236,0,0,1,325.918,225.217" transform="translate(3309.553 -7139.688)" fill="#fff"/>
      <text id="Cambio_de_color" data-name="Cambio de color" transform="translate(3454 -6871)" fill="#12263f" font-size="22" font-family="Roboto-Black, Roboto" font-weight="800"><tspan x="0" y="0">Cambio de color</tspan></text>
      <g transform="matrix(1, 0, 0, 1, 3020.33, -7061.77)" filter="url(#Elipse_4956)">
        <circle id="Elipse_4956-2" data-name="Elipse 4956" cx="22.5" cy="22.5" r="22.5" transform="translate(491.67 23.77)" fill="#e2872c"/>
      </g>
      <g transform="matrix(1, 0, 0, 1, 3020.33, -7061.77)" filter="url(#Elipse_4957)">
        <circle id="Elipse_4957-2" data-name="Elipse 4957" cx="22.5" cy="22.5" r="22.5" transform="translate(859.67 23.77)" fill="#81af1d"/>
      </g>
      <text id="_1." data-name="1." transform="translate(3158 -7008)" fill="#12263f" font-size="22" font-family="Roboto-Black, Roboto" font-weight="800"><tspan x="0" y="0">1.</tspan></text>
      <text id="_2." data-name="2." transform="translate(3525 -7008)" fill="#12263f" font-size="22" font-family="Roboto-Black, Roboto" font-weight="800"><tspan x="0" y="0">2.</tspan></text>
      <text id="_3." data-name="3." transform="translate(3893 -7008)" fill="#12263f" font-size="22" font-family="Roboto-Black, Roboto" font-weight="800"><tspan x="0" y="0">3.</tspan></text>
      <g id="control-de-plagas" transform="translate(3868.003 -6967.913)">
        <g id="Grupo_153137" data-name="Grupo 153137" transform="translate(1.092 5.564)">
          <path id="Trazado_262941" data-name="Trazado 262941" d="M34.353,48.953l3.588-3.588a21.53,21.53,0,0,0,5.878-1.876V43.5H57.254V43.49a5.458,5.458,0,1,1,0,10.916h-45.8a5.458,5.458,0,1,1,0-10.916V43.5H24.888V43.49a21.53,21.53,0,0,0,5.878,1.876Z" transform="translate(-0.549 -2.034)" fill="#a0d925"/>
          <path id="Trazado_262942" data-name="Trazado 262942" d="M35.559,22.824a8.789,8.789,0,0,0-2.148-2.552,9.66,9.66,0,0,0-1.091-.752,9.654,9.654,0,0,0-1.09.752,8.789,8.789,0,0,0-2.148,2.552,7.227,7.227,0,0,0-.5,1.058h7.481a7.233,7.233,0,0,0-.5-1.058Z" transform="translate(1.495 -4.203)" fill="#640ce8"/>
          <path id="Trazado_262943" data-name="Trazado 262943" d="M36.249,29.616a8.917,8.917,0,0,1-3.915,4.809,8.85,8.85,0,0,1-3.9-4.809l6.085-6.1h1.559a8.777,8.777,0,0,1,.622,3.271A9.228,9.228,0,0,1,36.249,29.616Z" transform="translate(1.481 -3.841)" fill="#640ce8"/>
          <g id="Grupo_153136" data-name="Grupo 153136" transform="translate(18.545 6.579)">
            <path id="Trazado_262944" data-name="Trazado 262944" d="M32.187,21a8.789,8.789,0,0,0-2.148,2.552,7.231,7.231,0,0,0-.5,1.058,8.777,8.777,0,0,0-.622,3.271,8.913,8.913,0,0,0,.458,2.824l-6.892,6.881a15.275,15.275,0,1,1,21.6-21.6l-.011.011-7.557,7.557A8.789,8.789,0,0,0,34.368,21a9.654,9.654,0,0,0-1.09-.752A9.654,9.654,0,0,0,32.187,21Z" transform="translate(-18.007 -11.507)" fill="#e6e9ed"/>
            <path id="Trazado_262945" data-name="Trazado 262945" d="M37.268,27.507a8.777,8.777,0,0,0-.622-3.271,7.23,7.23,0,0,0-.5-1.058L43.7,15.621l.011-.011a15.275,15.275,0,1,1-21.6,21.6L29,30.332a8.85,8.85,0,0,0,3.9,4.809,8.917,8.917,0,0,0,3.915-4.809,9.228,9.228,0,0,0,.447-2.824Z" transform="translate(-17.636 -11.136)" fill="#e6e9ed"/>
          </g>
          <path id="Trazado_262946" data-name="Trazado 262946" d="M34.553,23.52l-6.085,6.1a8.913,8.913,0,0,1-.458-2.824,8.777,8.777,0,0,1,.622-3.271Z" transform="translate(1.443 -3.841)" fill="#640ce8"/>
          <path id="Trazado_262947" data-name="Trazado 262947" d="M50.375,41.478A21.969,21.969,0,0,1,37.4,48.806l-3.588,3.588-3.588-3.588a21.53,21.53,0,0,1-5.878-1.876,21.807,21.807,0,1,1,26.03-5.452ZM49.1,27.312a15.17,15.17,0,1,0-4.443,10.846A15.275,15.275,0,0,0,49.1,27.312Z" transform="translate(-0.006 -5.474)" fill="#e2872c"/>
          <path id="Trazado_262948" data-name="Trazado 262948" d="M57.706,38.49a10.91,10.91,0,1,1,0,21.821H11.9a10.912,10.912,0,0,1-.556-21.81h6.892a21.983,21.983,0,0,0,7.1,5.442v.011H11.9v-.011a5.458,5.458,0,0,0,0,10.916h45.8a5.458,5.458,0,1,0,0-10.916v.011H44.271v-.011a21.636,21.636,0,0,0,7.1-5.452Z" transform="translate(-1.001 -2.486)" fill="#c0f748"/>
        </g>
        <g id="Grupo_153141" data-name="Grupo 153141" transform="translate(-0.003 4.479)">
          <g id="Grupo_153138" data-name="Grupo 153138">
            <path id="Trazado_262949" data-name="Trazado 262949" d="M12,61.49a12,12,0,1,1,0-24,1.09,1.09,0,1,1,0,2.181,9.818,9.818,0,1,0,0,19.635,1.09,1.09,0,0,1,0,2.181Z" transform="translate(0.003 -1.492)"/>
            <path id="Trazado_262950" data-name="Trazado 262950" d="M11.543,55.582a6.545,6.545,0,1,1,0-13.09,1.091,1.091,0,0,1,0,2.181,4.364,4.364,0,1,0,0,8.728,1.09,1.09,0,1,1,0,2.181Z" transform="translate(0.456 -1.039)"/>
            <path id="Trazado_262951" data-name="Trazado 262951" d="M53.091,61.49a1.09,1.09,0,1,1,0-2.181,9.818,9.818,0,0,0,0-19.635,1.09,1.09,0,0,1,0-2.181,12,12,0,0,1,0,24Z" transform="translate(4.709 -1.492)"/>
            <path id="Trazado_262952" data-name="Trazado 262952" d="M53.091,55.582a1.09,1.09,0,0,1,0-2.181,4.364,4.364,0,1,0,0-8.728,1.09,1.09,0,1,1,0-2.181,6.545,6.545,0,1,1,0,13.09Z" transform="translate(4.709 -1.039)"/>
            <path id="Trazado_262953" data-name="Trazado 262953" d="M56.891,59.681h-45.8a1.09,1.09,0,0,1,0-2.181h45.8a1.09,1.09,0,1,1,0,2.181Z" transform="translate(0.908 0.319)"/>
            <path id="Trazado_262954" data-name="Trazado 262954" d="M56.891,54.68h-45.8a1.09,1.09,0,0,1,0-2.181h45.8a1.09,1.09,0,1,1,0,2.181Z" transform="translate(0.908 -0.134)"/>
            <path id="Trazado_262955" data-name="Trazado 262955" d="M54.206,44.682H40.768a1.09,1.09,0,1,1,0-2.181H54.206a1.09,1.09,0,1,1,0,2.181Z" transform="translate(3.594 -1.038)"/>
            <path id="Trazado_262956" data-name="Trazado 262956" d="M24.528,44.682H11.091a1.09,1.09,0,1,1,0-2.181H24.528a1.09,1.09,0,1,1,0,2.181Z" transform="translate(0.908 -1.038)"/>
            <path id="Trazado_262957" data-name="Trazado 262957" d="M17.424,39.681H11.09a1.09,1.09,0,1,1,0-2.181h6.333a1.09,1.09,0,0,1,0,2.181Z" transform="translate(0.908 -1.491)"/>
            <path id="Trazado_262958" data-name="Trazado 262958" d="M40.357,49.68H25.09a1.09,1.09,0,0,1,0-2.181H40.357a1.09,1.09,0,0,1,0,2.181Z" transform="translate(2.175 -0.586)"/>
            <path id="Trazado_262959" data-name="Trazado 262959" d="M33.9,53.574a1.087,1.087,0,0,1-.771-.32l-3.348-3.348a22.9,22.9,0,1,1,8.238,0l-3.348,3.348a1.087,1.087,0,0,1-.771.32Zm0-46.891a20.707,20.707,0,0,0-3.413,41.133,1.092,1.092,0,0,1,.592.3L33.9,50.942l2.821-2.821a1.092,1.092,0,0,1,.592-.3A20.707,20.707,0,0,0,33.9,6.683Z" transform="translate(0.999 -4.479)"/>
            <path id="Trazado_262960" data-name="Trazado 262960" d="M53.617,39.674H47.275a1.09,1.09,0,0,1,0-2.181h6.342a1.09,1.09,0,0,1,0,2.181Z" transform="translate(4.183 -1.492)"/>
          </g>
          <g id="Grupo_153140" data-name="Grupo 153140" transform="translate(18.522 6.546)">
            <path id="Trazado_262961" data-name="Trazado 262961" d="M33.359,43.236A16.377,16.377,0,1,1,49.736,26.859,16.377,16.377,0,0,1,33.359,43.236Zm0-30.572a14.2,14.2,0,1,0,14.2,14.2,14.2,14.2,0,0,0-14.2-14.2Z" transform="translate(-16.982 -10.482)"/>
            <g id="Grupo_153139" data-name="Grupo 153139" transform="translate(4.501 4.398)">
              <path id="Trazado_262962" data-name="Trazado 262962" d="M32.461,35.965a1.088,1.088,0,0,1-.552-.15,9.951,9.951,0,0,1,0-17.149,1.1,1.1,0,0,1,1.1,0,9.951,9.951,0,0,1,0,17.149,1.088,1.088,0,0,1-.552.15Zm0-15.06a7.772,7.772,0,0,0,0,12.673,7.772,7.772,0,0,0,0-12.673Z" transform="translate(-20.576 -14.154)"/>
              <path id="Trazado_262963" data-name="Trazado 262963" d="M36.15,24.7H28.67a1.09,1.09,0,0,1,0-2.181h7.48a1.09,1.09,0,1,1,0,2.181Z" transform="translate(-20.524 -13.792)"/>
              <path id="Trazado_262964" data-name="Trazado 262964" d="M33.1,21.815a1.09,1.09,0,0,1-1-1.519l2.181-5.117a1.09,1.09,0,1,1,2.006.855L34.1,21.152a1.09,1.09,0,0,1-1,.662Z" transform="translate(-20.123 -14.516)"/>
              <path id="Trazado_262965" data-name="Trazado 262965" d="M31.28,21.815a1.09,1.09,0,0,1-1-.662L28.1,16.034a1.09,1.09,0,1,1,2.006-.855L32.284,20.3a1.09,1.09,0,0,1-1,1.519Z" transform="translate(-20.485 -14.516)"/>
              <path id="Trazado_262966" data-name="Trazado 262966" d="M40.461,27.7H36.1a1.09,1.09,0,1,1,0-2.181h4.362a1.09,1.09,0,1,1,0,2.181Z" transform="translate(-19.852 -13.52)"/>
              <path id="Trazado_262967" data-name="Trazado 262967" d="M28.461,27.7H24.1a1.09,1.09,0,0,1,0-2.181h4.362a1.09,1.09,0,0,1,0,2.181Z" transform="translate(-20.938 -13.52)"/>
              <path id="Trazado_262968" data-name="Trazado 262968" d="M22.2,38.389a1.09,1.09,0,0,1-.771-1.861L43.019,14.937a1.09,1.09,0,0,1,1.542,1.542L22.971,38.069a1.087,1.087,0,0,1-.771.319Z" transform="translate(-21.11 -14.507)"/>
              <path id="Trazado_262969" data-name="Trazado 262969" d="M39.409,34.007a1.087,1.087,0,0,1-.771-.32L34.91,29.96a1.09,1.09,0,0,1,1.542-1.542l3.727,3.727a1.09,1.09,0,0,1-.771,1.861Z" transform="translate(-19.89 -13.287)"/>
              <path id="Trazado_262970" data-name="Trazado 262970" d="M29.4,24a1.087,1.087,0,0,1-.771-.32l-3.306-3.306a1.09,1.09,0,0,1,1.542-1.542l3.306,3.306A1.09,1.09,0,0,1,29.4,24Z" transform="translate(-20.757 -14.154)"/>
            </g>
          </g>
        </g>
      </g>
      <g id="g5565" transform="translate(3504 -6280.769)">
        <g id="g5567" transform="translate(0 -682.665)">
          <g id="g5569" clip-path="url(#clip-path-2)">
            <g id="g5575" transform="translate(0.879 41.543)">
              <path id="path5577" d="M-599.558-182.421h-48.984a8.789,8.789,0,0,1-8.789-8.789A8.789,8.789,0,0,1-648.543-200h48.984a.469.469,0,0,1,.469.469v16.641a.469.469,0,0,1-.469.469" transform="translate(657.332 200)" fill="#c7c7c7"/>
            </g>
            <path id="path5579" d="M513.784-192.421H503.237V-210h10.547Z" transform="translate(-459.007 251.542)" fill="#3f009c"/>
            <path id="path5581" d="M273.785-192.421H263.238V-210h10.547Z" transform="translate(-240.102 251.542)" fill="#8533ff"/>
            <path id="path5583" d="M393.785-192.421H383.238V-210h10.547Z" transform="translate(-349.555 251.542)" fill="#640ce8"/>
            <g id="g5585" transform="translate(0.879 9.343)">
              <path id="path5587" d="M-515.162-130.416-549.8-95.779a8.789,8.789,0,0,1-12.43,0h0a8.789,8.789,0,0,1,0-12.43l34.637-34.637a.469.469,0,0,1,.663,0l11.767,11.767a.469.469,0,0,1,0,.663" transform="translate(564.804 142.983)" fill="#bfbfbf"/>
            </g>
            <g id="g5589" transform="translate(27.892 12.221)">
              <path id="path5591" d="M-206.387-128.991l-7.458,7.458-12.43-12.43,7.458-7.458Z" transform="translate(226.274 141.421)" fill="#e2872c"/>
            </g>
            <g id="g5593" transform="translate(12.977 27.136)">
              <path id="path5595" d="M-206.387-128.991l-7.458,7.458-12.43-12.43,7.458-7.458Z" transform="translate(226.274 141.421)" fill="#ebae70"/>
            </g>
            <g id="g5597" transform="translate(20.434 19.678)">
              <path id="path5599" d="M-206.387-128.991l-7.458,7.458-12.43-12.43,7.458-7.458Z" transform="translate(226.274 141.421)" fill="#eb9f52"/>
            </g>
            <g id="g5601" transform="translate(0.879 0.879)">
              <path id="path5603" d="M-182.421-4.865V44.12a8.789,8.789,0,0,1-8.789,8.789A8.789,8.789,0,0,1-200,44.12V-4.865a.469.469,0,0,1,.469-.469h16.641a.469.469,0,0,1,.469.469" transform="translate(200 5.333)" fill="#e8e8e8"/>
            </g>
            <path id="path5605" d="M27.578-612.69H10v-10.547H27.578Z" transform="translate(-9.121 628.46)" fill="#81af1d"/>
            <path id="path5607" d="M27.578-492.69H10v-10.547H27.578Z" transform="translate(-9.121 519.007)" fill="#a0d925"/>
            <path id="path5609" d="M27.578-372.691H10v-10.547H27.578Z" transform="translate(-9.121 409.555)" fill="#c0f748"/>
            <g id="g5611" transform="translate(5.941 46.567)">
              <path id="path5613" d="M-72.969-36.484a3.516,3.516,0,0,1-3.516,3.516A3.516,3.516,0,0,1-80-36.484,3.516,3.516,0,0,1-76.484-40a3.516,3.516,0,0,1,3.516,3.516" transform="translate(80 40)" fill="#4d4d4d"/>
            </g>
            <g id="g5615" transform="translate(0 40.664)">
              <path id="path5617" d="M-292.76,9.336h-48.984A9.6,9.6,0,0,1-348.58,6.5a9.6,9.6,0,0,1-2.832-6.836.879.879,0,0,1,.879-.879.879.879,0,0,1,.879.879,7.858,7.858,0,0,0,2.317,5.593,7.858,7.858,0,0,0,5.593,2.317h48.574V-8.242h-27.356a.879.879,0,0,1-.879-.879.879.879,0,0,1,.879-.879h27.766a1.349,1.349,0,0,1,1.348,1.348V7.988A1.349,1.349,0,0,1-292.76,9.336Z" transform="translate(351.413 10)"/>
            </g>
            <path id="path5619" d="M504.663-200.663H494.116a.879.879,0,0,1-.879-.879v-17.578a.879.879,0,0,1,.879-.879h10.547a.879.879,0,0,1,.879.879v17.578A.879.879,0,0,1,504.663-200.663ZM495-202.421h8.789v-15.82H495Z" transform="translate(-449.886 260.663)"/>
            <g id="g5621" transform="translate(22.257 48.414)">
              <path id="path5623" d="M-118.574-110.24h-10.547a.879.879,0,0,1-.879-.879v-9.829a.879.879,0,0,1,.879-.879.879.879,0,0,1,.879.879V-112h9.668a.879.879,0,0,1,.879.879A.879.879,0,0,1-118.574-110.24Z" transform="translate(130 121.826)"/>
            </g>
            <g id="g5625" transform="translate(32.804 40.664)">
              <path id="path5627" d="M1.426-115.33H-9.121a.879.879,0,0,1-.879-.879v-2.871a.879.879,0,0,1,.879-.879.879.879,0,0,1,.879.879v1.992H.547v-15.82H-8.242v10.078a.879.879,0,0,1-.879.879A.879.879,0,0,1-10-122.83v-10.957a.879.879,0,0,1,.879-.879H1.426a.879.879,0,0,1,.879.879v17.578A.879.879,0,0,1,1.426-115.33Z" transform="translate(10 134.666)"/>
            </g>
            <g id="g5629" transform="translate(15.004 35.066)">
              <path id="path5631" d="M-243.53,12.36a.876.876,0,0,1-.621-.257.879.879,0,0,1,0-1.243l20.6-20.6a.879.879,0,0,1,1.243,0,.879.879,0,0,1,0,1.243l-20.6,20.6A.876.876,0,0,1-243.53,12.36Z" transform="translate(244.409 10)"/>
            </g>
            <g id="g5633" transform="translate(17.578 8.464)">
              <path id="path5635" d="M11.558-209.237a.876.876,0,0,1-.621-.257.879.879,0,0,1,0-1.243L22.03-221.831,10.844-233.017-8.5-213.674a.879.879,0,0,1-1.243,0,.879.879,0,0,1,0-1.243L9.891-234.55a1.338,1.338,0,0,1,.953-.395,1.339,1.339,0,0,1,.953.395l11.767,11.766a1.339,1.339,0,0,1,.395.953,1.338,1.338,0,0,1-.395.953L12.18-209.494A.876.876,0,0,1,11.558-209.237Z" transform="translate(10 234.945)"/>
            </g>
            <g id="g5637" transform="translate(27.013 11.342)">
              <path id="path5639" d="M-222.966-129.776a.879.879,0,0,1-.621-.257l-12.43-12.43a.879.879,0,0,1-.257-.621.879.879,0,0,1,.257-.621l7.458-7.458a.879.879,0,0,1,1.243,0l12.43,12.43a.879.879,0,0,1,0,1.243l-7.458,7.458A.879.879,0,0,1-222.966-129.776Zm-11.187-13.309,11.187,11.187,6.215-6.215L-227.937-149.3Z" transform="translate(236.274 151.421)"/>
            </g>
            <g id="g5641" transform="translate(17.578 26.257)">
              <path id="path5643" d="M-2.172-135.567a.876.876,0,0,1-.621-.257l-6.949-6.949a.879.879,0,0,1,0-1.243.879.879,0,0,1,1.243,0l6.328,6.328L4.043-143.9-7.144-155.091-8.5-153.736a.879.879,0,0,1-1.243,0,.879.879,0,0,1,0-1.243l1.977-1.977a.879.879,0,0,1,1.243,0l12.43,12.43a.879.879,0,0,1,.257.621.879.879,0,0,1-.257.621l-7.458,7.458A.876.876,0,0,1-2.172-135.567Z" transform="translate(10 157.213)"/>
            </g>
            <g id="g5645" transform="translate(0 0)">
              <path id="path5647" d="M-208.652-15.333h16.641a1.349,1.349,0,0,1,1.348,1.348V35a9.679,9.679,0,0,1-9.668,9.668A9.679,9.679,0,0,1-210,35V-13.986A1.349,1.349,0,0,1-208.652-15.333Zm16.23,1.758h-15.82V35a7.919,7.919,0,0,0,7.91,7.91,7.919,7.919,0,0,0,7.91-7.91Z" transform="translate(210 15.333)"/>
            </g>
            <path id="path5649" d="M18.457-620.932H.879A.879.879,0,0,1,0-621.811v-10.547a.879.879,0,0,1,.879-.879H18.457a.879.879,0,0,1,.879.879v10.547A.879.879,0,0,1,18.457-620.932Zm-16.7-1.758h15.82v-8.789H1.758Z" transform="translate(0 637.581)"/>
            <g id="g5651" transform="translate(0 25.438)">
              <path id="path5653" d="M-109.209-117.695h-3.457a.879.879,0,0,1-.879-.879.879.879,0,0,1,.879-.879h2.578v-8.789h-15.82v8.789h9.463a.879.879,0,0,1,.879.879.879.879,0,0,1-.879.879h-10.342a.879.879,0,0,1-.879-.879v-10.547a.879.879,0,0,1,.879-.879h17.578a.879.879,0,0,1,.879.879v10.547A.879.879,0,0,1-109.209-117.695Z" transform="translate(127.666 130)"/>
            </g>
            <g id="g5655" transform="translate(5.062 45.689)">
              <path id="path5657" d="M-85.605-50a4.4,4.4,0,0,1,4.395,4.395,4.4,4.4,0,0,1-4.395,4.395A4.4,4.4,0,0,1-90-45.605,4.4,4.4,0,0,1-85.605-50Zm0,7.031a2.64,2.64,0,0,0,2.637-2.637,2.64,2.64,0,0,0-2.637-2.637,2.64,2.64,0,0,0-2.637,2.637A2.64,2.64,0,0,0-85.605-42.969Z" transform="translate(90 50)"/>
            </g>
          </g>
        </g>
      </g>
      <g id="Grupo_156475" data-name="Grupo 156475" transform="translate(3.25 303.011)">
        <path id="Trazado_263906" data-name="Trazado 263906" d="M-6256.113-9283.714v18.979l-1.875,1.964h-54.375l-2.053-1.964.446-15.625,3.572,2.053,9.821-5.407,10.714,7.282,12.232-7.282,11.965,6.211,8.125-6.211Z" transform="translate(9449.059 2048.503)" fill="#e2872c"/>
        <path id="Trazado_263904" data-name="Trazado 263904" d="M-6311.663-9303.714h53.418l2.143,1.989v11.48l-10.255,6.888-11.786-6.123-11.939,7.194-10.255-7.194-10.255,5.357-3.979-2.3v-15.307Z" transform="translate(9449.048 2047.074)" fill="#eb9f52"/>
        <path id="Trazado_263905" data-name="Trazado 263905" d="M-6314.571-9297.122h58.469v-5.2l-2.3-1.53h-54.489l-1.684,1.53Z" transform="translate(9449.048 2047.063)" fill="#ebae70"/>
        <path id="Trazado_263907" data-name="Trazado 263907" d="M0,6.735H58.47v-5.2L56.173,0H1.684L0,1.531Z" transform="translate(3192.947 -7214.267) rotate(180)" fill="#ba6f24"/>
        <g id="contrato" transform="translate(3133.75 -7213.286) rotate(-90)">
          <path id="Trazado_263901" data-name="Trazado 263901" d="M17,49.171l5.947-11.223a1.071,1.071,0,0,0-.025-1.047L15.861,25.015l6.933-9.769a1.07,1.07,0,0,0,.061-1.145l-3.4-6.055L17.725,4.974l1.782-3.408A1.08,1.08,0,0,0,18.557,0H3.311A3.32,3.32,0,0,0,0,3.321V46.286a1.071,1.071,0,1,0,2.143,0V3.321A1.174,1.174,0,0,1,3.311,2.143H16.791L15.555,4.488a1.072,1.072,0,0,0,.016,1.04L16.684,7.5H9.83a1.071,1.071,0,1,0,0,2.143H17.89l2.764,4.91-2.6,3.665H9.83a1.071,1.071,0,1,0,0,2.143h6.7l-2.823,3.977a1.071,1.071,0,0,0-.047,1.172l2.028,3.414H9.83a1.071,1.071,0,1,0,0,2.143h7.134l3.8,6.4-1.144,2.159H9.83a1.071,1.071,0,1,0,0,2.143h8.659L14.8,48.73c-.343.561.073,1.174.408,1.623H9.83a1.071,1.071,0,1,0,0,2.143h6.822l3.6,5.361H3.311a1.174,1.174,0,0,1-1.168-1.178V50.572a1.071,1.071,0,1,0-2.143,0v6.107A3.32,3.32,0,0,0,3.311,60H22.264a1.08,1.08,0,0,0,.889-1.67Z"/>
          <path id="Trazado_263902" data-name="Trazado 263902" d="M22.543,10.565a1.071,1.071,0,0,0,1.071-1.071V3.321A3.319,3.319,0,0,0,20.3,0H4.758a1.07,1.07,0,0,0-.949.574L1.793,4.421a1.071,1.071,0,0,0,.016,1.023l5.272,9.395L.2,24.559A1.072,1.072,0,0,0,.15,25.726L7.043,37.353,1.154,48.462a1.07,1.07,0,0,0,.058,1.1l6.706,9.964A1.075,1.075,0,0,0,8.807,60H20.3a3.319,3.319,0,0,0,3.311-3.321v-42.9a1.071,1.071,0,1,0-2.143,0v42.9A1.174,1.174,0,0,1,20.3,57.857H9.377L5.768,52.5h8.017a1.071,1.071,0,1,0,0-2.143H4.326L3.347,48.9l3.777-7.121h6.661a1.071,1.071,0,1,0,0-2.143H8.261l.956-1.8A1.073,1.073,0,0,0,9.2,36.785L5.809,31.071H7.371a1.071,1.071,0,1,0,0-2.143H4.54l-2.192-3.7,3.444-4.864h7.993a1.071,1.071,0,1,0,0-2.143H7.31l1.914-2.7a1.072,1.072,0,0,0,.058-1.14L6.626,9.647h7.16a1.071,1.071,0,1,0,0-2.143H5.423L3.961,4.9,5.406,2.143H20.3a1.174,1.174,0,0,1,1.168,1.178V9.493a1.071,1.071,0,0,0,1.071,1.071Z" transform="translate(20.85)"/>
          <path id="Trazado_263903" data-name="Trazado 263903" d="M3.2,0H1.072a1.071,1.071,0,1,0,0,2.143H3.2A1.071,1.071,0,1,0,3.2,0Z" transform="translate(31.436 28.928)"/>
        </g>
      </g>
    </g>
  </g>
</svg>
