<svg xmlns="http://www.w3.org/2000/svg" width="50" height="49.981" viewBox="0 0 50 49.981">
  <g id="Grupo_223586" data-name="Grupo 223586" transform="translate(953 12983)">
    <g id="caja" transform="translate(-960.997 -12991.2)">
      <path id="Trazado_263148" data-name="Trazado 263148" d="M8.481,38.744l19.234,8.014a.828.828,0,0,0,.887,0l4.718-1.965a.794.794,0,0,0-.645-1.452l-3.71,1.523V25.639l17.742-7.393v9.288a.806.806,0,1,0,1.613,0V17.051a.947.947,0,0,0-.145-.406.96.96,0,0,0-.438-.361L28.481,8.26a.883.883,0,0,0-.645,0L8.581,16.284A.762.762,0,0,0,8,17.051V38.018a.755.755,0,0,0,.484.726ZM28.159,24.228,23.041,22.1l17.242-7.184,5.134,2.135ZM38.217,14.056,20.975,21.24,17.31,19.716l17.242-7.184ZM16.062,20.935l4.032,1.68v7.5l-4.032-1.452Zm12.1-11.062,4.327,1.8L15.243,18.857,10.9,17.051ZM9.61,18.247l4.839,2.016v8.965a.706.706,0,0,0,.565.726l5.645,2.1c.25.251,1.048-.1,1.048-.726V23.287l5.645,2.352v19.22L9.61,37.454Z" fill="#81af1d"/>
      <path id="Trazado_263149" data-name="Trazado 263149" d="M287.387,220.032c-3.79,0-7.177-.323-10.726-3.79a.78.78,0,0,0-1.129,0c-3.548,3.468-6.935,3.79-10.726,3.79a.762.762,0,0,0-.806.806c0,15.887,4.677,21.129,11.774,24.113a.669.669,0,0,0,.645,0c7.1-2.984,11.774-8.226,11.774-24.113A.762.762,0,0,0,287.387,220.032ZM276.1,243.339c-6.371-2.742-10.323-7.5-10.484-21.693a14.33,14.33,0,0,0,10.484-3.71,14.33,14.33,0,0,0,10.484,3.71C286.419,235.839,282.468,240.6,276.1,243.339Z" transform="translate(-230.196 -186.853)" fill="#81af1d"/>
      <path id="Trazado_263150" data-name="Trazado 263150" d="M315.79,307.468a.78.78,0,0,0-1.129,0l-2.419,2.419a.78.78,0,0,0,0,1.129l5.645,5.645a.772.772,0,0,0,1.129,0l8.871-8.871a.78.78,0,0,0,0-1.129l-2.419-2.419a.78.78,0,0,0-1.129,0l-5.887,5.887Zm9.113-1.532,1.29,1.29-7.742,7.742-4.516-4.516,1.29-1.29,2.661,2.661a.78.78,0,0,0,1.129,0Z" transform="translate(-273.357 -265.982)" fill="#81af1d"/>
    </g>
  </g>
</svg>
