<svg xmlns="http://www.w3.org/2000/svg" width="49.596" height="50" viewBox="0 0 49.596 50">
  <g id="Grupo_223585" data-name="Grupo 223585" transform="translate(1201 12362)">
    <g id="abrir-caja" transform="translate(-1203.066 -12362)">
      <g id="Grupo_153076" data-name="Grupo 153076" transform="translate(2.066)">
        <path id="Trazado_262762" data-name="Trazado 262762" d="M45.962,16.547l5.488-5.532a.732.732,0,0,0-.171-1.16L33.262.089a.732.732,0,0,0-.867.126L26.864,5.747,21.333.216A.726.726,0,0,0,20.467.09L14.68,3.225a.733.733,0,0,0,.35,1.377.737.737,0,0,0,.349-.089l5.306-2.876,4.968,4.968L8.932,15.642,4.006,10.676l8.8-4.767a.73.73,0,0,0,.295-.992.732.732,0,0,0-.644-.384.74.74,0,0,0-.349.089L2.45,9.855a.731.731,0,0,0-.171,1.159l5.487,5.533L2.278,22.079a.732.732,0,0,0,.171,1.16l5.617,3.044V39.5a.717.717,0,0,0,0,.075c0,.011,0,.021,0,.032s0,.026.006.038.007.031.012.047,0,.014.006.021.011.031.016.046l.008.021c.006.014.012.027.019.04l.012.025.019.032.018.03.017.024.025.034.016.018c.01.012.021.024.032.035l.018.017.034.031.035.027.021.016q.031.021.065.039l18.06,9.762a.736.736,0,0,0,.081.038l.018.007c.02.008.041.014.062.02l.023.006.062.012.021,0a.682.682,0,0,0,.168,0l.022,0,.062-.012.023-.006q.032-.008.062-.02l.018-.007a.743.743,0,0,0,.081-.038l18.06-9.762q.034-.018.065-.039l.021-.016.035-.027.034-.031.018-.017c.011-.011.021-.023.032-.035l.016-.018c.009-.011.017-.023.025-.034l.017-.024.018-.03c.006-.011.013-.021.019-.032l.012-.025c.006-.013.013-.026.019-.04l.008-.021c.006-.015.012-.031.016-.046s0-.014.006-.021.008-.031.012-.047,0-.025.006-.038,0-.021,0-.032a.719.719,0,0,0,0-.075V26.283l5.616-3.044a.733.733,0,0,0,.172-1.16ZM33.044,1.638l16.677,9.039L44.8,15.643,28.077,6.605ZM9.144,25.2,4.007,22.417l4.926-4.966,16.719,9.038-4.967,4.967L9.15,25.2ZM26.132,48.039l-16.6-8.974V27.077L20.466,33a.733.733,0,0,0,.867-.126l4.8-4.8Zm.732-22.56L10.34,16.547,26.865,7.615l16.524,8.932ZM44.587,25.2l-.012.006-3.649,1.978a.733.733,0,0,0-.3.993.734.734,0,0,0,.993.295l2.574-1.4V39.066L27.6,48.039V28.079l4.8,4.8a.727.727,0,0,0,.518.215A.74.74,0,0,0,33.262,33l5.787-3.137a.732.732,0,1,0-.7-1.287l-5.306,2.875-4.968-4.967L44.8,17.451l4.926,4.966Z" transform="translate(-2.066 0)" fill="#81af1d"/>
      </g>
    </g>
  </g>
</svg>
