<svg xmlns="http://www.w3.org/2000/svg" xmlns:xlink="http://www.w3.org/1999/xlink" width="50" height="50" viewBox="0 0 50 50">
  <defs>
    <clipPath id="clip-path">
      <path id="path2272" d="M0-682.665H50v50H0Z" transform="translate(0 682.665)" fill="#81af1d"/>
    </clipPath>
  </defs>
  <g id="Grupo_223584" data-name="Grupo 223584" transform="translate(1449 11741.931)">
    <g id="g2262" transform="translate(-1449 -11059.266)">
      <g id="g2264" transform="translate(16.699 -658.642)">
        <path id="path2266" d="M-86.5-11.38h-5.859a.977.977,0,0,1-.977-.977.977.977,0,0,1,.977-.977H-86.5a.977.977,0,0,1,.977.977A.977.977,0,0,1-86.5-11.38Z" transform="translate(93.333 13.333)" fill="#81af1d"/>
      </g>
      <g id="g2268" transform="translate(0 -682.665)">
        <g id="g2270" clip-path="url(#clip-path)">
          <g id="g2276" transform="translate(16.699 36.328)">
            <path id="path2278" d="M-89.427-53.333a3.911,3.911,0,0,1,3.906,3.906,3.911,3.911,0,0,1-3.906,3.906,3.911,3.911,0,0,1-3.906-3.906A3.911,3.911,0,0,1-89.427-53.333Zm0,5.859a1.955,1.955,0,0,0,1.953-1.953,1.955,1.955,0,0,0-1.953-1.953,1.955,1.955,0,0,0-1.953,1.953A1.955,1.955,0,0,0-89.427-47.474Z" transform="translate(93.333 53.333)" fill="#81af1d"/>
          </g>
          <g id="g2280" transform="translate(28.418 6.445)">
            <path id="path2282" d="M-126.5-153.8a.974.974,0,0,1-.691-.286l-5.859-5.859a.977.977,0,0,1-.212-1.064.977.977,0,0,1,.9-.6h1.953v-10.742a.977.977,0,0,1,.977-.977h5.859a.977.977,0,0,1,.977.977v10.742h1.953a.977.977,0,0,1,.9.6.977.977,0,0,1-.212,1.064l-5.859,5.859A.974.974,0,0,1-126.5-153.8Zm-3.5-5.859,3.5,3.5,3.5-3.5h-.572a.977.977,0,0,1-.977-.977V-171.38h-3.906v10.742a.977.977,0,0,1-.977.977Z" transform="translate(133.333 173.333)" fill="#81af1d"/>
          </g>
          <g id="g2284" transform="translate(7.91 21.094)">
            <path id="path2286" d="M-9.427-11.38h-2.93a.977.977,0,0,1-.977-.977.977.977,0,0,1,.977-.977h2.93a.977.977,0,0,1,.977.977A.977.977,0,0,1-9.427-11.38Z" transform="translate(13.333 13.333)" fill="#81af1d"/>
          </g>
          <g id="g2288" transform="translate(7.91 15.234)">
            <path id="path2290" d="M-9.427-11.38h-2.93a.977.977,0,0,1-.977-.977.977.977,0,0,1,.977-.977h2.93a.977.977,0,0,1,.977.977A.977.977,0,0,1-9.427-11.38Z" transform="translate(13.333 13.333)" fill="#81af1d"/>
          </g>
          <g id="g2292" transform="translate(7.91 9.375)">
            <path id="path2294" d="M-9.427-11.38h-2.93a.977.977,0,0,1-.977-.977.977.977,0,0,1,.977-.977h2.93a.977.977,0,0,1,.977.977A.977.977,0,0,1-9.427-11.38Z" transform="translate(13.333 13.333)" fill="#81af1d"/>
          </g>
          <g id="g2296" transform="translate(7.91 3.516)">
            <path id="path2298" d="M-9.427-11.38h-2.93a.977.977,0,0,1-.977-.977.977.977,0,0,1,.977-.977h2.93a.977.977,0,0,1,.977.977A.977.977,0,0,1-9.427-11.38Z" transform="translate(13.333 13.333)" fill="#81af1d"/>
          </g>
          <g id="g2300" transform="translate(25.879 45.508)">
            <path id="path2302" d="M-12.357-24.713a.978.978,0,0,1-.977-.977.978.978,0,0,1,.977-.977.978.978,0,0,1,.977.977.978.978,0,0,1-.977.977" transform="translate(13.333 26.667)" fill="#81af1d"/>
          </g>
          <g id="g2304" transform="translate(10.84 0)">
            <path id="path2306" d="M-238.868-532.7a9.777,9.777,0,0,1-9.766-9.766,9.766,9.766,0,0,1,5.859-8.914v-27.414a3.911,3.911,0,0,1,3.906-3.906,3.911,3.911,0,0,1,3.906,3.906v27.414a9.766,9.766,0,0,1,5.859,8.914,9.782,9.782,0,0,1-.382,2.715.977.977,0,0,1-1.209.667.977.977,0,0,1-.667-1.209,7.829,7.829,0,0,0,.306-2.173,7.813,7.813,0,0,0-5.21-7.331.977.977,0,0,1-.649-.92v-28.077a1.955,1.955,0,0,0-1.953-1.953,1.955,1.955,0,0,0-1.953,1.953v28.077a.977.977,0,0,1-.649.92,7.813,7.813,0,0,0-5.21,7.331,7.821,7.821,0,0,0,7.813,7.813,7.827,7.827,0,0,0,2.173-.306.976.976,0,0,1,1.209.667.977.977,0,0,1-.667,1.209A9.78,9.78,0,0,1-238.868-532.7Z" transform="translate(248.634 582.699)" fill="#81af1d"/>
          </g>
        </g>
      </g>
    </g>
  </g>
</svg>
