<svg xmlns="http://www.w3.org/2000/svg" width="150" height="150" viewBox="0 0 150 150">
  <g id="Grupo_223580" data-name="Grupo 223580" transform="translate(-726 -1784)">
    <circle id="Elipse_4711" data-name="Elipse 4711" cx="75" cy="75" r="75" transform="translate(726 1784)" fill="#e2872c"/>
    <circle id="Elipse_4712" data-name="Elipse 4712" cx="63" cy="63" r="63" transform="translate(738 1796)" fill="#fff"/>
    <g id="control-de-plagas" transform="translate(760.003 1820.136)">
      <g id="Grupo_153137" data-name="Grupo 153137" transform="translate(1.252 5.723)">
        <path id="Trazado_262941" data-name="Trazado 262941" d="M38.5,49.752,42.61,45.64a24.677,24.677,0,0,0,6.737-2.15V43.5h15.4V43.49a6.256,6.256,0,1,1,0,12.511h-52.5a6.256,6.256,0,0,1,0-12.511V43.5h15.4V43.49a24.677,24.677,0,0,0,6.737,2.15Z" transform="translate(0.247 4.026)" fill="#a0d925"/>
        <path id="Trazado_262942" data-name="Trazado 262942" d="M36.579,23.307a10.074,10.074,0,0,0-2.462-2.925,11.072,11.072,0,0,0-1.25-.862,11.065,11.065,0,0,0-1.25.862,10.073,10.073,0,0,0-2.462,2.925,8.283,8.283,0,0,0-.575,1.212h8.574a8.291,8.291,0,0,0-.575-1.212Z" transform="translate(5.891 -1.964)" fill="#640ce8"/>
        <path id="Trazado_262943" data-name="Trazado 262943" d="M37.392,30.507A10.22,10.22,0,0,1,32.9,36.019a10.144,10.144,0,0,1-4.475-5.512L35.4,23.52h1.787a10.059,10.059,0,0,1,.712,3.75A10.577,10.577,0,0,1,37.392,30.507Z" transform="translate(5.853 -0.965)" fill="#640ce8"/>
        <g id="Grupo_153136" data-name="Grupo 153136" transform="translate(21.256 7.541)">
          <path id="Trazado_262944" data-name="Trazado 262944" d="M34.259,22.385A10.074,10.074,0,0,0,31.8,25.309a8.287,8.287,0,0,0-.575,1.212,10.06,10.06,0,0,0-.712,3.75,10.216,10.216,0,0,0,.525,3.237l-7.9,7.887A17.508,17.508,0,1,1,47.9,16.635l-.013.013-8.662,8.662a10.074,10.074,0,0,0-2.462-2.925,11.066,11.066,0,0,0-1.25-.862A11.066,11.066,0,0,0,34.259,22.385Z" transform="translate(-18.007 -11.507)" fill="#e6e9ed"/>
          <path id="Trazado_262945" data-name="Trazado 262945" d="M39.483,29.246a10.06,10.06,0,0,0-.712-3.75,8.287,8.287,0,0,0-.575-1.212l8.662-8.662.012-.012A17.508,17.508,0,1,1,22.11,40.37l7.9-7.887A10.144,10.144,0,0,0,34.484,38a10.22,10.22,0,0,0,4.487-5.512,10.577,10.577,0,0,0,.512-3.237Z" transform="translate(-16.982 -10.482)" fill="#e6e9ed"/>
        </g>
        <path id="Trazado_262946" data-name="Trazado 262946" d="M35.509,23.52l-6.974,6.987a10.216,10.216,0,0,1-.525-3.237,10.06,10.06,0,0,1,.712-3.75Z" transform="translate(5.748 -0.965)" fill="#640ce8"/>
        <path id="Trazado_262947" data-name="Trazado 262947" d="M55.986,46.74a25.18,25.18,0,0,1-14.874,8.4L37,59.252l-4.112-4.112a24.677,24.677,0,0,1-6.737-2.15A24.994,24.994,0,1,1,55.986,46.74ZM54.523,30.5a17.387,17.387,0,1,0-5.092,12.431A17.508,17.508,0,0,0,54.523,30.5Z" transform="translate(1.746 -5.474)" fill="#e2872c"/>
        <path id="Trazado_262948" data-name="Trazado 262948" d="M65.994,38.49a12.505,12.505,0,0,1,0,25.01H13.5a12.507,12.507,0,0,1-.637-25h7.9A25.2,25.2,0,0,0,28.9,44.739v.013H13.5v-.012a6.256,6.256,0,0,0,0,12.511h52.5a6.256,6.256,0,0,0,0-12.511v.012H50.6v-.012a24.8,24.8,0,0,0,8.137-6.249Z" transform="translate(-1.001 2.776)" fill="#c0f748"/>
      </g>
      <g id="Grupo_153141" data-name="Grupo 153141" transform="translate(-0.003 4.479)">
        <g id="Grupo_153138" data-name="Grupo 153138">
          <path id="Trazado_262949" data-name="Trazado 262949" d="M13.749,65a13.752,13.752,0,1,1,0-27.5,1.25,1.25,0,1,1,0,2.5,11.253,11.253,0,0,0,0,22.505,1.25,1.25,0,1,1,0,2.5Z" transform="translate(0.003 3.77)"/>
          <path id="Trazado_262950" data-name="Trazado 262950" d="M12.5,57.5a7.5,7.5,0,1,1,0-15,1.25,1.25,0,1,1,0,2.5,5,5,0,1,0,0,10,1.25,1.25,0,1,1,0,2.5Z" transform="translate(1.253 5.02)"/>
          <path id="Trazado_262951" data-name="Trazado 262951" d="M53.25,65a1.25,1.25,0,1,1,0-2.5,11.253,11.253,0,1,0,0-22.505,1.25,1.25,0,0,1,0-2.5,13.752,13.752,0,1,1,0,27.5Z" transform="translate(12.998 3.77)"/>
          <path id="Trazado_262952" data-name="Trazado 262952" d="M53.25,57.5a1.25,1.25,0,0,1,0-2.5,5,5,0,1,0,0-10,1.25,1.25,0,1,1,0-2.5,7.5,7.5,0,1,1,0,15Z" transform="translate(12.998 5.02)"/>
          <path id="Trazado_262953" data-name="Trazado 262953" d="M63.745,60H11.25a1.25,1.25,0,0,1,0-2.5h52.5a1.25,1.25,0,1,1,0,2.5Z" transform="translate(2.503 8.77)"/>
          <path id="Trazado_262954" data-name="Trazado 262954" d="M63.745,55H11.25a1.25,1.25,0,0,1,0-2.5h52.5a1.25,1.25,0,1,1,0,2.5Z" transform="translate(2.503 7.52)"/>
          <path id="Trazado_262955" data-name="Trazado 262955" d="M56.329,45h-15.4a1.25,1.25,0,1,1,0-2.5h15.4a1.25,1.25,0,1,1,0,2.5Z" transform="translate(9.919 5.022)"/>
          <path id="Trazado_262956" data-name="Trazado 262956" d="M26.651,45H11.25a1.25,1.25,0,1,1,0-2.5h15.4a1.25,1.25,0,1,1,0,2.5Z" transform="translate(2.503 5.022)"/>
          <path id="Trazado_262957" data-name="Trazado 262957" d="M18.509,40H11.25a1.25,1.25,0,1,1,0-2.5h7.259a1.25,1.25,0,0,1,0,2.5Z" transform="translate(2.503 3.772)"/>
          <path id="Trazado_262958" data-name="Trazado 262958" d="M42.748,50H25.25a1.25,1.25,0,1,1,0-2.5h17.5a1.25,1.25,0,1,1,0,2.5Z" transform="translate(6.001 6.271)"/>
          <path id="Trazado_262959" data-name="Trazado 262959" d="M37.248,60.75a1.246,1.246,0,0,1-.884-.366l-3.838-3.838a26.248,26.248,0,1,1,9.442,0l-3.838,3.838a1.246,1.246,0,0,1-.884.366ZM37.248,7A23.734,23.734,0,0,0,33.336,54.15a1.252,1.252,0,0,1,.679.349l3.233,3.233L40.481,54.5a1.252,1.252,0,0,1,.679-.349A23.734,23.734,0,0,0,37.248,7Z" transform="translate(2.752 -4.479)"/>
          <path id="Trazado_262960" data-name="Trazado 262960" d="M54.7,39.993H47.434a1.25,1.25,0,0,1,0-2.5H54.7a1.25,1.25,0,1,1,0,2.5Z" transform="translate(11.544 3.77)"/>
        </g>
        <g id="Grupo_153140" data-name="Grupo 153140" transform="translate(21.23 7.503)">
          <path id="Trazado_262961" data-name="Trazado 262961" d="M35.753,48.023a18.77,18.77,0,1,1,18.77-18.77A18.77,18.77,0,0,1,35.753,48.023Zm0-35.041A16.271,16.271,0,1,0,52.023,29.253,16.271,16.271,0,0,0,35.753,12.982Z" transform="translate(-16.982 -10.482)"/>
          <g id="Grupo_153139" data-name="Grupo 153139" transform="translate(5.159 5.041)">
            <path id="Trazado_262962" data-name="Trazado 262962" d="M33.258,38.515a1.247,1.247,0,0,1-.632-.172,11.406,11.406,0,0,1,0-19.655,1.259,1.259,0,0,1,1.265,0,11.406,11.406,0,0,1,0,19.655,1.247,1.247,0,0,1-.632.172Zm0-17.262a8.908,8.908,0,0,0,0,14.525,8.908,8.908,0,0,0,0-14.525Z" transform="translate(-19.635 -13.516)"/>
            <path id="Trazado_262963" data-name="Trazado 262963" d="M37.4,25.016H28.829a1.25,1.25,0,0,1,0-2.5H37.4a1.25,1.25,0,1,1,0,2.5Z" transform="translate(-19.493 -12.517)"/>
            <path id="Trazado_262964" data-name="Trazado 262964" d="M33.259,22.882a1.25,1.25,0,0,1-1.15-1.741l2.5-5.865a1.25,1.25,0,1,1,2.3.98l-2.5,5.866a1.249,1.249,0,0,1-1.15.759Z" transform="translate(-18.386 -14.516)"/>
            <path id="Trazado_262965" data-name="Trazado 262965" d="M31.759,22.882a1.249,1.249,0,0,1-1.15-.759l-2.5-5.866a1.25,1.25,0,1,1,2.3-.98l2.5,5.865a1.25,1.25,0,0,1-1.15,1.741Z" transform="translate(-19.386 -14.516)"/>
            <path id="Trazado_262966" data-name="Trazado 262966" d="M41.258,28.016h-5a1.25,1.25,0,0,1,0-2.5h5a1.25,1.25,0,1,1,0,2.5Z" transform="translate(-17.636 -11.767)"/>
            <path id="Trazado_262967" data-name="Trazado 262967" d="M29.258,28.016h-5a1.25,1.25,0,1,1,0-2.5h5a1.25,1.25,0,1,1,0,2.5Z" transform="translate(-20.635 -11.767)"/>
            <path id="Trazado_262968" data-name="Trazado 262968" d="M22.359,41.863a1.25,1.25,0,0,1-.884-2.134L46.222,14.983a1.25,1.25,0,0,1,1.767,1.767L23.243,41.5a1.246,1.246,0,0,1-.884.366Z" transform="translate(-21.11 -14.491)"/>
            <path id="Trazado_262969" data-name="Trazado 262969" d="M40.113,34.87a1.246,1.246,0,0,1-.884-.366l-4.272-4.272a1.25,1.25,0,1,1,1.767-1.767L41,32.737a1.25,1.25,0,0,1-.884,2.134Z" transform="translate(-17.741 -11.122)"/>
            <path id="Trazado_262970" data-name="Trazado 262970" d="M30.047,24.805a1.246,1.246,0,0,1-.884-.366L25.375,20.65a1.25,1.25,0,0,1,1.767-1.767l3.789,3.789a1.25,1.25,0,0,1-.884,2.134Z" transform="translate(-20.135 -13.516)"/>
          </g>
        </g>
      </g>
    </g>
  </g>
</svg>
