<svg xmlns="http://www.w3.org/2000/svg" xmlns:xlink="http://www.w3.org/1999/xlink" width="150" height="150" viewBox="0 0 150 150">
  <defs>
    <clipPath id="clip-path">
      <path id="path5571" d="M0-682.665H80v80H0Z" transform="translate(0 682.665)"/>
    </clipPath>
  </defs>
  <g id="Grupo_223579" data-name="Grupo 223579" transform="translate(-306 -1784)">
    <circle id="Elipse_4713" data-name="Elipse 4713" cx="75" cy="75" r="75" transform="translate(306 1784)" fill="#e2872c"/>
    <circle id="Elipse_4714" data-name="Elipse 4714" cx="63" cy="63" r="63" transform="translate(318 1796)" fill="#fff"/>
    <g id="g5565" transform="translate(341 2501.665)">
      <g id="g5567" transform="translate(0 -682.665)">
        <g id="g5569" clip-path="url(#clip-path)">
          <g id="g5575" transform="translate(1.172 55.391)">
            <path id="path5577" d="M-580.3-176.562h-65.312a11.719,11.719,0,0,1-11.719-11.719A11.719,11.719,0,0,1-645.613-200H-580.3a.625.625,0,0,1,.625.625v22.188a.625.625,0,0,1-.625.625" transform="translate(657.332 200)" fill="#c7c7c7"/>
          </g>
          <path id="path5579" d="M517.3-186.562H503.237V-210H517.3Z" transform="translate(-444.264 265.39)" fill="#3f009c"/>
          <path id="path5581" d="M277.3-186.562H263.238V-210H277.3Z" transform="translate(-232.39 265.39)" fill="#8533ff"/>
          <path id="path5583" d="M397.3-186.562H383.238V-210H397.3Z" transform="translate(-338.327 265.39)" fill="#640ce8"/>
          <g id="g5585" transform="translate(1.172 12.457)">
            <path id="path5587" d="M-498.616-126.227-544.8-80.044a11.719,11.719,0,0,1-16.573,0h0a11.719,11.719,0,0,1,0-16.573l46.183-46.183a.625.625,0,0,1,.884,0l15.689,15.689a.625.625,0,0,1,0,.884" transform="translate(564.804 142.983)" fill="#bfbfbf"/>
          </g>
          <g id="g5589" transform="translate(37.189 16.294)">
            <path id="path5591" d="M-199.758-124.848-209.7-114.9l-16.573-16.573,9.944-9.944Z" transform="translate(226.274 141.421)" fill="#e2872c"/>
          </g>
          <g id="g5593" transform="translate(17.302 36.181)">
            <path id="path5595" d="M-199.758-124.848-209.7-114.9l-16.573-16.573,9.944-9.944Z" transform="translate(226.274 141.421)" fill="#ebae70"/>
          </g>
          <g id="g5597" transform="translate(27.246 26.238)">
            <path id="path5599" d="M-199.758-124.848-209.7-114.9l-16.573-16.573,9.944-9.944Z" transform="translate(226.274 141.421)" fill="#eb9f52"/>
          </g>
          <g id="g5601" transform="translate(1.172 1.172)">
            <path id="path5603" d="M-176.562-4.708V60.6a11.719,11.719,0,0,1-11.719,11.719A11.719,11.719,0,0,1-200,60.6V-4.708a.625.625,0,0,1,.625-.625h22.188a.625.625,0,0,1,.625.625" transform="translate(200 5.333)" fill="#e8e8e8"/>
          </g>
          <path id="path5605" d="M33.437-609.175H10v-14.062H33.437Z" transform="translate(-8.828 630.201)" fill="#81af1d"/>
          <path id="path5607" d="M33.437-489.175H10v-14.062H33.437Z" transform="translate(-8.828 524.264)" fill="#a0d925"/>
          <path id="path5609" d="M33.437-369.175H10v-14.062H33.437Z" transform="translate(-8.828 418.327)" fill="#c0f748"/>
          <g id="g5611" transform="translate(7.921 62.09)">
            <path id="path5613" d="M-70.625-35.312a4.688,4.688,0,0,1-4.687,4.687A4.688,4.688,0,0,1-80-35.312,4.688,4.688,0,0,1-75.312-40a4.688,4.688,0,0,1,4.688,4.688" transform="translate(80 40)" fill="#4d4d4d"/>
          </g>
          <g id="g5615" transform="translate(0 54.219)">
            <path id="path5617" d="M-273.209,15.781h-65.313a12.806,12.806,0,0,1-9.115-3.776,12.806,12.806,0,0,1-3.776-9.115,1.172,1.172,0,0,1,1.172-1.172,1.172,1.172,0,0,1,1.172,1.172,10.477,10.477,0,0,0,3.09,7.457,10.477,10.477,0,0,0,7.457,3.09h64.766V-7.656h-36.475A1.172,1.172,0,0,1-311.4-8.828,1.172,1.172,0,0,1-310.231-10h37.022a1.8,1.8,0,0,1,1.8,1.8V13.984A1.8,1.8,0,0,1-273.209,15.781Z" transform="translate(351.413 10)"/>
          </g>
          <path id="path5619" d="M508.472-194.218H494.409a1.172,1.172,0,0,1-1.172-1.172v-23.437A1.172,1.172,0,0,1,494.409-220h14.063a1.172,1.172,0,0,1,1.172,1.172v23.438A1.172,1.172,0,0,1,508.472-194.218Zm-12.891-2.344H507.3v-21.094H495.581Z" transform="translate(-435.436 274.218)"/>
          <g id="g5621" transform="translate(29.677 64.552)">
            <path id="path5623" d="M-114.765-106.378h-14.062A1.172,1.172,0,0,1-130-107.55v-13.1a1.172,1.172,0,0,1,1.172-1.172,1.172,1.172,0,0,1,1.172,1.172v11.933h12.891a1.172,1.172,0,0,1,1.172,1.172A1.172,1.172,0,0,1-114.765-106.378Z" transform="translate(130 121.826)"/>
          </g>
          <g id="g5625" transform="translate(43.739 54.219)">
            <path id="path5627" d="M5.234-108.885H-8.828A1.172,1.172,0,0,1-10-110.057v-3.828a1.172,1.172,0,0,1,1.172-1.172,1.172,1.172,0,0,1,1.172,1.172v2.656H4.063v-21.094H-7.656v13.438a1.172,1.172,0,0,1-1.172,1.172A1.172,1.172,0,0,1-10-118.885v-14.609a1.172,1.172,0,0,1,1.172-1.172H5.234a1.172,1.172,0,0,1,1.172,1.172v23.438A1.172,1.172,0,0,1,5.234-108.885Z" transform="translate(10 134.666)"/>
          </g>
          <g id="g5629" transform="translate(20.005 46.754)">
            <path id="path5631" d="M-243.237,19.814a1.168,1.168,0,0,1-.829-.343,1.172,1.172,0,0,1,0-1.657l27.47-27.47a1.172,1.172,0,0,1,1.657,0,1.172,1.172,0,0,1,0,1.657l-27.47,27.47A1.168,1.168,0,0,1-243.237,19.814Z" transform="translate(244.409 10)"/>
          </g>
          <g id="g5633" transform="translate(23.437 11.285)">
            <path id="path5635" d="M18.744-200.667a1.168,1.168,0,0,1-.829-.343,1.172,1.172,0,0,1,0-1.657l14.792-14.792L17.792-232.375-8-206.584a1.172,1.172,0,0,1-1.657,0,1.172,1.172,0,0,1,0-1.657l26.178-26.178a1.785,1.785,0,0,1,1.271-.526,1.785,1.785,0,0,1,1.271.527L34.751-218.73a1.785,1.785,0,0,1,.526,1.271,1.785,1.785,0,0,1-.527,1.271L19.573-201.01A1.168,1.168,0,0,1,18.744-200.667Z" transform="translate(10 234.945)"/>
          </g>
          <g id="g5637" transform="translate(36.018 15.122)">
            <path id="path5639" d="M-218.529-122.561a1.172,1.172,0,0,1-.829-.343l-16.573-16.573a1.172,1.172,0,0,1-.343-.829,1.172,1.172,0,0,1,.343-.829l9.944-9.944a1.172,1.172,0,0,1,1.657,0l16.573,16.573a1.172,1.172,0,0,1,0,1.657L-217.7-122.9A1.172,1.172,0,0,1-218.529-122.561Zm-14.916-17.745,14.916,14.916,8.286-8.286-14.916-14.916Z" transform="translate(236.274 151.421)"/>
          </g>
          <g id="g5641" transform="translate(23.437 35.009)">
            <path id="path5643" d="M.438-128.352a1.168,1.168,0,0,1-.829-.343l-9.266-9.266a1.172,1.172,0,0,1,0-1.657,1.172,1.172,0,0,1,1.657,0l8.437,8.437,8.286-8.286L-6.192-154.384-8-152.576a1.172,1.172,0,0,1-1.657,0,1.172,1.172,0,0,1,0-1.657l2.636-2.636a1.172,1.172,0,0,1,1.657,0L11.21-140.3a1.172,1.172,0,0,1,.343.829,1.172,1.172,0,0,1-.343.829L1.266-128.7A1.168,1.168,0,0,1,.438-128.352Z" transform="translate(10 157.213)"/>
          </g>
          <g id="g5645" transform="translate(0 0)">
            <path id="path5647" d="M-208.2-15.333h22.188a1.8,1.8,0,0,1,1.8,1.8V51.776a12.905,12.905,0,0,1-12.891,12.891A12.905,12.905,0,0,1-210,51.776V-13.536A1.8,1.8,0,0,1-208.2-15.333Zm21.641,2.344h-21.094V51.776a10.559,10.559,0,0,0,10.547,10.547,10.559,10.559,0,0,0,10.547-10.547Z" transform="translate(210 15.333)"/>
          </g>
          <path id="path5649" d="M24.609-616.831H1.172A1.172,1.172,0,0,1,0-618v-14.062a1.172,1.172,0,0,1,1.172-1.172H24.609a1.172,1.172,0,0,1,1.172,1.172V-618A1.172,1.172,0,0,1,24.609-616.831ZM2.344-619.175H23.438v-11.719H2.344Z" transform="translate(0 639.029)"/>
          <g id="g5651" transform="translate(0 33.917)">
            <path id="path5653" d="M-103.057-113.593h-4.609a1.172,1.172,0,0,1-1.172-1.172,1.172,1.172,0,0,1,1.172-1.172h3.438v-11.719h-21.094v11.719h12.617a1.172,1.172,0,0,1,1.172,1.172,1.172,1.172,0,0,1-1.172,1.172h-13.789a1.172,1.172,0,0,1-1.172-1.172v-14.062A1.172,1.172,0,0,1-126.494-130h23.438a1.172,1.172,0,0,1,1.172,1.172v14.062A1.172,1.172,0,0,1-103.057-113.593Z" transform="translate(127.666 130)"/>
          </g>
          <g id="g5655" transform="translate(6.749 60.918)">
            <path id="path5657" d="M-84.14-50a5.866,5.866,0,0,1,5.859,5.859,5.866,5.866,0,0,1-5.859,5.859A5.866,5.866,0,0,1-90-44.14,5.866,5.866,0,0,1-84.14-50Zm0,9.375a3.52,3.52,0,0,0,3.516-3.516,3.52,3.52,0,0,0-3.516-3.516,3.52,3.52,0,0,0-3.516,3.516A3.52,3.52,0,0,0-84.14-40.625Z" transform="translate(90 50)"/>
          </g>
        </g>
      </g>
    </g>
  </g>
</svg>
