<svg xmlns="http://www.w3.org/2000/svg" width="50" height="35.294" viewBox="0 0 50 35.294">
  <g id="Grupo_223582" data-name="Grupo 223582" transform="translate(-278.945 -587.103)">
    <g id="moho" transform="translate(237.226 573.103)">
      <path id="Trazado_262768" data-name="Trazado 262768" d="M91.719,20.863V17.922A3.922,3.922,0,0,0,87.8,14H45.641a3.922,3.922,0,0,0-3.922,3.922c0,7.1,0,22.452,0,27.451a3.922,3.922,0,0,0,3.922,3.922H87.8a3.922,3.922,0,0,0,3.922-3.922V20.863Zm-1.961,24.51A1.961,1.961,0,0,1,87.8,47.333H45.641a1.961,1.961,0,0,1-1.961-1.961V17.922a1.961,1.961,0,0,1,1.961-1.961H87.8a1.961,1.961,0,0,1,1.961,1.961Zm1.961-4.9v0Z" fill="#81af1d"/>
      <path id="Trazado_262769" data-name="Trazado 262769" d="M21.284,18H12.461A1.961,1.961,0,0,0,10.5,19.961v8.824a1.961,1.961,0,0,0,1.961,1.961h8.824a1.961,1.961,0,0,0,1.961-1.961V19.961A1.961,1.961,0,0,0,21.284,18ZM12.461,28.784V19.961h8.824v8.824Z" transform="translate(35.141 -0.078)" fill="#81af1d"/>
      <path id="Trazado_262770" data-name="Trazado 262770" d="M36.284,18H27.461A1.961,1.961,0,0,0,25.5,19.961v8.824a1.961,1.961,0,0,0,1.961,1.961h8.824a1.961,1.961,0,0,0,1.961-1.961V19.961A1.961,1.961,0,0,0,36.284,18ZM27.461,28.784V19.961h8.824v8.824Z" transform="translate(34.847 -0.078)" fill="#81af1d"/>
      <path id="Trazado_262771" data-name="Trazado 262771" d="M51.284,18H42.461A1.961,1.961,0,0,0,40.5,19.961v8.824a1.961,1.961,0,0,0,1.961,1.961h8.824a1.961,1.961,0,0,0,1.961-1.961V19.961A1.961,1.961,0,0,0,51.284,18ZM42.461,28.784V19.961h8.824v8.824Z" transform="translate(34.553 -0.078)" fill="#81af1d"/>
      <path id="Trazado_262772" data-name="Trazado 262772" d="M21.284,33H12.461A1.961,1.961,0,0,0,10.5,34.961v8.824a1.961,1.961,0,0,0,1.961,1.961h8.824a1.961,1.961,0,0,0,1.961-1.961V34.961A1.961,1.961,0,0,0,21.284,33ZM12.461,43.784V34.961h8.824v8.824Z" transform="translate(35.141 -0.373)" fill="#81af1d"/>
      <path id="Trazado_262773" data-name="Trazado 262773" d="M36.284,33H27.461A1.961,1.961,0,0,0,25.5,34.961v8.824a1.961,1.961,0,0,0,1.961,1.961h8.824a1.961,1.961,0,0,0,1.961-1.961V34.961A1.961,1.961,0,0,0,36.284,33ZM27.461,43.784V34.961h8.824v8.824Z" transform="translate(34.847 -0.373)" fill="#81af1d"/>
      <path id="Trazado_262774" data-name="Trazado 262774" d="M51.284,33H42.461A1.961,1.961,0,0,0,40.5,34.961v8.824a1.961,1.961,0,0,0,1.961,1.961h8.824a1.961,1.961,0,0,0,1.961-1.961V34.961A1.961,1.961,0,0,0,51.284,33ZM42.461,43.784V34.961h8.824v8.824Z" transform="translate(34.553 -0.373)" fill="#81af1d"/>
    </g>
  </g>
</svg>
