<svg xmlns="http://www.w3.org/2000/svg" width="50" height="37.499" viewBox="0 0 50 37.499">
  <g id="Grupo_223583" data-name="Grupo 223583" transform="translate(1698 11114)">
    <g id="ladrillo" transform="translate(-1698.001 -11178.006)">
      <g id="Grupo_153078" data-name="Grupo 153078" transform="translate(12.501 74.423)">
        <g id="Grupo_153077" data-name="Grupo 153077" transform="translate(0 0)">
          <path id="Trazado_262763" data-name="Trazado 262763" d="M134.79,173.955l-5.208-3.125a1.041,1.041,0,1,0-1.071,1.785l5.208,3.125a1.041,1.041,0,1,0,1.071-1.785Z" transform="translate(-128.005 -170.682)" fill="#81af1d"/>
        </g>
      </g>
      <g id="Grupo_153084" data-name="Grupo 153084" transform="translate(31.251 68.173)">
        <g id="Grupo_153083" data-name="Grupo 153083" transform="translate(0 0)">
          <path id="Trazado_262766" data-name="Trazado 262766" d="M326.79,109.955l-5.208-3.125a1.041,1.041,0,1,0-1.071,1.785l5.208,3.125a1.041,1.041,0,1,0,1.071-1.785Z" transform="translate(-320.005 -106.682)" fill="#81af1d"/>
        </g>
      </g>
      <g id="Grupo_153086" data-name="Grupo 153086" transform="translate(0.001 64.005)">
        <g id="Grupo_153085" data-name="Grupo 153085" transform="translate(0 0)">
          <path id="Trazado_262767" data-name="Trazado 262767" d="M49.976,73.281a1.037,1.037,0,0,0-.069-.287.946.946,0,0,0-.073-.146.976.976,0,0,0-.185-.219c-.029-.027-.042-.065-.075-.087-.015-.01-.035-.01-.05-.021s-.029-.031-.05-.044L34.891,64.144a1.028,1.028,0,0,0-.827-.09L.73,74.471a.8.8,0,0,0-.125.067c-.027.012-.058.008-.083.023s-.031.037-.052.052a1.015,1.015,0,0,0-.29.292c-.013.021-.031.033-.044.054a1.041,1.041,0,0,0-.125.469c0,.012-.01.023-.01.035V92.13a1.042,1.042,0,0,0,.525.9l14.583,8.333a1.037,1.037,0,0,0,.517.137.98.98,0,0,0,.308-.048L49.268,91.04A1.041,1.041,0,0,0,50,90.046V73.379A.957.957,0,0,0,49.976,73.281ZM14.584,98.667l-12.5-7.142V77.258l12.5,7.142Zm1.165-16L3.634,75.744l30.617-9.569L46.366,73.1Zm32.169,6.613-31.25,9.767V84.561L47.918,74.8Z" transform="translate(-0.001 -64.005)" fill="#81af1d"/>
        </g>
      </g>
    </g>
  </g>
</svg>
