<svg xmlns="http://www.w3.org/2000/svg" width="120" height="120" viewBox="0 0 120 120">
  <g id="Grupo_223605" data-name="Grupo 223605" transform="translate(-1389 5582)">
    <rect id="Rectángulo_294992" data-name="Rectángulo 294992" width="120" height="120" rx="15" transform="translate(1389 -5582)" fill="#a0d925"/>
    <g id="precios" transform="translate(1404 -5567.004)">
      <path id="Trazado_263117" data-name="Trazado 263117" d="M30.441,260.467a1.5,1.5,0,0,0,2.121,0l7.5-7.5-2.121-2.121L31.5,257.286,3.623,229.407l16.939-16.939-2.121-2.121-18,18a1.5,1.5,0,0,0,0,2.121Zm0,0" transform="translate(-0.002 -170.904)" fill="#12263f"/>
      <path id="Trazado_263118" data-name="Trazado 263118" d="M293.395,31.341l-3-27a1.5,1.5,0,0,0-1.326-1.326l-27-3a1.516,1.516,0,0,0-1.225.431l-10.5,10.5,2.121,2.121,9.99-9.99,25.1,2.787,2.787,25.092-5.886,5.886L281.6,17.669a4.52,4.52,0,1,0-3.016.114l2.32,15.6L259.965,12.445a1.5,1.5,0,0,0-2.121,0l-7.5,7.5,2.121,2.121,6.439-6.439,18.879,18.879-3.439,3.439,2.121,2.121,4.5-4.5a1.453,1.453,0,0,0,.213-.319l.63,4.234-2.964,2.964,2.121,2.121,1.392-1.392.953,6.393a5.067,5.067,0,1,0,9.992-1.643l-2.76-12.934,2.424-2.424a1.5,1.5,0,0,0,.431-1.225ZM279.9,12.006a1.5,1.5,0,1,1-1.5,1.5A1.5,1.5,0,0,1,279.9,12.006Zm10.46,36.527a2.067,2.067,0,1,1-4.083.627L285,40.534l3.017-3.017Zm0,0" transform="translate(-203.405 -0.002)" fill="#12263f"/>
      <path id="Trazado_263119" data-name="Trazado 263119" d="M58.352,268.9l9.749-9.749,2.121,2.121-9.749,9.749Zm0,0" transform="translate(-47.411 -210.558)" fill="#12263f"/>
      <path id="Trazado_263120" data-name="Trazado 263120" d="M83.137,293.7l9.749-9.749,2.122,2.121-9.75,9.749Zm0,0" transform="translate(-67.549 -230.706)" fill="#12263f"/>
      <path id="Trazado_263121" data-name="Trazado 263121" d="M107.941,336.043l5.7-5.7,2.122,2.121-5.7,5.7Zm0,0" transform="translate(-87.702 -268.402)" fill="#12263f"/>
      <path id="Trazado_263122" data-name="Trazado 263122" d="M132.742,368l4.051-4.05,2.121,2.121-4.05,4.051Zm0,0" transform="translate(-107.853 -295.703)" fill="#12263f"/>
      <path id="Trazado_263123" data-name="Trazado 263123" d="M157.543,397.351l3-3,2.121,2.121-3,3Zm0,0" transform="translate(-128.004 -320.409)" fill="#12263f"/>
      <path id="Trazado_263124" data-name="Trazado 263124" d="M183.986,232.207a23.845,23.845,0,0,0,14.19-4.689l10.818,10.818a4.682,4.682,0,0,0,6.621-6.621l-11.068-11.068-.192.192a23.975,23.975,0,1,0-20.368,11.369Zm29.507,1.629a1.682,1.682,0,0,1-2.379,2.379l-10.629-10.627a24.169,24.169,0,0,0,2.279-2.479Zm-29.507-46.628a21,21,0,1,1-21,21,21,21,0,0,1,21-21Zm0,0" transform="translate(-129.986 -149.704)" fill="#12263f"/>
      <path id="Trazado_263125" data-name="Trazado 263125" d="M210,252a18,18,0,1,0-18-18A18,18,0,0,0,210,252Zm0-33a15,15,0,1,1-15,15A15,15,0,0,1,210,219Zm0,0" transform="translate(-156.001 -175.501)" fill="#12263f"/>
      <path id="Trazado_263126" data-name="Trazado 263126" d="M263.5,266h-3a1.5,1.5,0,0,1-1.5-1.5h-3a4.5,4.5,0,0,0,4.5,4.5v3h3v-3a4.5,4.5,0,0,0,4.5-4.5V263a4.5,4.5,0,0,0-4.5-4.5h-3A1.5,1.5,0,0,1,259,257v-1.5a1.5,1.5,0,0,1,1.5-1.5h3a1.5,1.5,0,0,1,1.5,1.5h3a4.5,4.5,0,0,0-4.5-4.5v-3h-3v3a4.5,4.5,0,0,0-4.5,4.5V257a4.5,4.5,0,0,0,4.5,4.5h3A1.5,1.5,0,0,1,265,263v1.5A1.5,1.5,0,0,1,263.5,266Zm0,0" transform="translate(-208.001 -201.501)" fill="#12263f"/>
      <path id="Trazado_263127" data-name="Trazado 263127" d="M7.5,36H17.52l10.108,7.219a1.5,1.5,0,0,0,.872.281,1.516,1.516,0,0,0,.814-.24,1.5,1.5,0,0,0,.656-1.56L28.83,36H37.5A7.509,7.509,0,0,0,45,28.5V7.5A7.509,7.509,0,0,0,37.5,0H7.5A7.509,7.509,0,0,0,0,7.5v21A7.509,7.509,0,0,0,7.5,36ZM3,7.5A4.5,4.5,0,0,1,7.5,3h30A4.5,4.5,0,0,1,42,7.5v21A4.5,4.5,0,0,1,37.5,33H27a1.5,1.5,0,0,0-1.47,1.8l.75,3.781L18.867,33.29A1.489,1.489,0,0,0,18,33H7.5A4.5,4.5,0,0,1,3,28.5Zm0,0" fill="#12263f"/>
      <path id="Trazado_263128" data-name="Trazado 263128" d="M33.5,62.5H65v-3H35v-4l3-4,3.3,4.4a1.6,1.6,0,0,0,1.24.6,1.5,1.5,0,0,0,1.208-.668l4.885-7.328,6.213,7.458A1.51,1.51,0,0,0,56,56.5a1.138,1.138,0,0,0,.141,0,1.5,1.5,0,0,0,1.17-.765l7.5-13.5-2.622-1.455L55.751,52.37l-6.1-7.32a1.474,1.474,0,0,0-1.235-.546,1.5,1.5,0,0,0-1.167.666l-4.824,7.239L39.2,48.1a1.553,1.553,0,0,0-2.4,0L35,50.5V40H32V61a1.5,1.5,0,0,0,1.5,1.5Zm0,0" transform="translate(-26 -32.5)" fill="#12263f"/>
    </g>
  </g>
</svg>
