<svg xmlns="http://www.w3.org/2000/svg" width="190" height="110" viewBox="0 0 190 110">
  <g id="Grupo_223601" data-name="Grupo 223601" transform="translate(-179.945 -4350)">
    <g id="Grupo_153168" data-name="Grupo 153168" transform="translate(-0.055 954)">
      <rect id="Rectángulo_40420" data-name="Rectángulo 40420" width="190" height="110" transform="translate(180 3396)" fill="none"/>
      <g id="Grupo_131655" data-name="Grupo 131655" transform="translate(0 -4286)">
        <rect id="Rectángulo_40418" data-name="Rectángulo 40418" width="50" height="50" rx="8" transform="translate(207 7687)" fill="#e2872c" opacity="0.2"/>
        <rect id="Rectángulo_40419" data-name="Rectángulo 40419" width="50" height="50" rx="8" transform="translate(293 7737)" fill="#81af1d" opacity="0.2"/>
      </g>
      <g id="cana-de-azucar" transform="translate(214.272 3276.667)">
        <g id="Grupo_153179" data-name="Grupo 153179" transform="translate(2.432 133.098)">
          <g id="Grupo_153178" data-name="Grupo 153178" transform="translate(45.712 0)">
            <ellipse id="Elipse_4949" data-name="Elipse 4949" cx="35.44" cy="13.916" rx="35.44" ry="13.916" transform="translate(0 25.842)" fill="#eb9f52"/>
            <ellipse id="Elipse_4950" data-name="Elipse 4950" cx="28.454" cy="12.681" rx="28.454" ry="12.681" transform="translate(6.986)" fill="#eb9f52"/>
            <path id="Trazado_263169" data-name="Trazado 263169" d="M273.832,221.453l-6.986-27.077H209.938l-6.986,27.077" transform="translate(-202.952 -181.695)" fill="#eb9f52"/>
          </g>
          <path id="Trazado_263170" data-name="Trazado 263170" d="M273.106,177.86l-6.259-24.26c0-7-12.739-12.681-28.454-12.681q-1.813,0-3.568.1c11.2.694,19.822,4.978,19.822,10.161l5.064,19.628a4.876,4.876,0,0,1,.588,2.279c0,6.218-12.837,11.259-28.673,11.259-13.044,0-24.053-3.421-27.528-8.1l-.418,1.618a6.028,6.028,0,0,0-.727,2.817c0,7.686,15.867,13.916,35.44,13.916s35.44-6.231,35.44-13.916a6.025,6.025,0,0,0-.727-2.816Z" transform="translate(-157.241 -140.918)" fill="#e2872c"/>
          <ellipse id="Elipse_4951" data-name="Elipse 4951" cx="35.44" cy="13.916" rx="35.44" ry="13.916" transform="translate(0 54.636)" fill="#eb9f52"/>
          <ellipse id="Elipse_4952" data-name="Elipse 4952" cx="28.454" cy="12.681" rx="28.454" ry="12.681" transform="translate(6.986 28.794)" fill="#eb9f52"/>
          <path id="Trazado_263171" data-name="Trazado 263171" d="M81.132,342.836l-6.986-27.077H17.239l-6.986,27.077" transform="translate(-10.253 -274.284)" fill="#eb9f52"/>
          <path id="Trazado_263172" data-name="Trazado 263172" d="M151.039,298.017a2.451,2.451,0,0,1-.365-.028,46.517,46.517,0,0,0-10.457-.38,2.432,2.432,0,1,1-.371-4.85,51.366,51.366,0,0,1,11.552.419,2.432,2.432,0,0,1-.359,4.838Z" transform="translate(-107.391 -256.626)" fill="#fff"/>
          <path id="Trazado_263173" data-name="Trazado 263173" d="M85.4,307.445a2.433,2.433,0,0,1-.981-4.659,26.1,26.1,0,0,1,2.679-.994,2.432,2.432,0,1,1,1.464,4.639,21.334,21.334,0,0,0-2.183.807A2.43,2.43,0,0,1,85.4,307.445Z" transform="translate(-65.717 -263.544)" fill="#fff"/>
          <path id="Trazado_263174" data-name="Trazado 263174" d="M80.406,347.876l-5.629-21.817c-.618.715-1.257,1.4-1.9,2.039a17.327,17.327,0,0,1-6.932,4.561l2.894,11.215a5.034,5.034,0,0,1,.607,2.352c0,6.418-13.25,11.621-29.594,11.621-14.489,0-26.544-4.089-29.1-9.488a5.868,5.868,0,0,0-.5,2.333c0,7.686,15.867,13.916,35.44,13.916s35.44-6.231,35.44-13.916a6.025,6.025,0,0,0-.727-2.816Z" transform="translate(-10.253 -282.14)" fill="#e2872c"/>
        </g>
        <g id="Grupo_153180" data-name="Grupo 153180" transform="translate(0 130.666)">
          <path id="Trazado_263175" data-name="Trazado 263175" d="M121.453,172.943c0-.029,0-.058,0-.087s0-.054,0-.081,0-.038,0-.057a8.318,8.318,0,0,0-.856-3.5l-6.134-23.775c-.175-4.269-3.627-8.111-9.767-10.847-5.679-2.531-13.176-3.925-21.11-3.925s-15.431,1.394-21.11,3.925c-6.141,2.737-9.593,6.578-9.768,10.848L48.846,160.4a63.022,63.022,0,0,0-10.974-.94c-7.934,0-15.431,1.394-21.11,3.925-6.141,2.737-9.593,6.578-9.767,10.848L.859,198.011a8.32,8.32,0,0,0-.854,3.49c0,.027,0,.053,0,.079s0,.046,0,.07,0,.058,0,.087,0,.031,0,.047c.078,4.733,4.3,8.98,11.92,11.971C18.893,216.492,28.108,218,37.872,218s18.978-1.507,25.949-4.244c7.617-2.991,11.841-7.238,11.919-11.971,0-.015,0-.031,0-.047s0-.058,0-.087,0-.044,0-.067,0-.057,0-.085a8.318,8.318,0,0,0-.856-3.5l-2.448-9.488a89.366,89.366,0,0,0,11.149.689c9.763,0,18.979-1.507,25.949-4.244,7.617-2.991,11.842-7.238,11.92-11.971,0-.016,0-.031,0-.047Zm-57-33.909c5.069-2.259,11.863-3.5,19.13-3.5s14.06,1.244,19.13,3.5c4.315,1.923,6.892,4.445,6.892,6.746s-2.576,4.822-6.892,6.745c-5.069,2.259-11.863,3.5-19.13,3.5s-14.06-1.244-19.13-3.5c-4.315-1.923-6.892-4.445-6.892-6.745S60.138,140.957,64.454,139.034ZM18.742,167.828c5.069-2.259,11.863-3.5,19.13-3.5s14.06,1.244,19.13,3.5c4.315,1.923,6.892,4.445,6.892,6.745S61.317,179.4,57,181.319c-5.069,2.26-11.863,3.5-19.13,3.5s-14.06-1.244-19.13-3.5c-4.315-1.923-6.892-4.445-6.892-6.745s2.576-4.822,6.892-6.745Zm19.13,45.306c-18.585,0-32.548-5.868-33-11.22l5.279-20.46a21.933,21.933,0,0,0,6.607,4.308c5.679,2.531,13.176,3.925,21.11,3.925s15.431-1.394,21.11-3.925a21.933,21.933,0,0,0,6.607-4.308l5.279,20.46C70.42,207.266,56.457,213.134,37.872,213.134ZM83.584,184.34a81.925,81.925,0,0,1-12.466-.928l-2.368-9.179c-.175-4.269-3.627-8.111-9.767-10.848a39.1,39.1,0,0,0-5.389-1.911l2.274-8.814a21.933,21.933,0,0,0,6.607,4.308c5.679,2.531,13.176,3.925,21.11,3.925s15.431-1.394,21.11-3.925a21.933,21.933,0,0,0,6.607-4.308l5.279,20.461c-.448,5.352-14.411,11.22-33,11.22Z" transform="translate(0 -130.666)"/>
          <path id="Trazado_263176" data-name="Trazado 263176" d="M241.651,393.393a1.46,1.46,0,0,0-1.459,1.459v3.686a1.459,1.459,0,0,0,2.919,0v-3.686A1.459,1.459,0,0,0,241.651,393.393Z" transform="translate(-182.502 -331.069)" fill="#ba6f24"/>
          <path id="Trazado_263177" data-name="Trazado 263177" d="M195.481,423.751a1.46,1.46,0,0,0-1.459,1.459V428.9a1.459,1.459,0,1,0,2.919,0V425.21A1.459,1.459,0,0,0,195.481,423.751Z" transform="translate(-147.285 -354.226)" fill="#ba6f24"/>
          <path id="Trazado_263178" data-name="Trazado 263178" d="M417.057,278.8a1.46,1.46,0,0,0-1.459,1.459v3.685a1.459,1.459,0,1,0,2.919,0v-3.685A1.459,1.459,0,0,0,417.057,278.8Z" transform="translate(-316.299 -243.663)" fill="#ba6f24"/>
        </g>
      </g>
    </g>
  </g>
</svg>
