<svg xmlns="http://www.w3.org/2000/svg" width="120" height="120" viewBox="0 0 120 120">
  <g id="Grupo_223607" data-name="Grupo 223607" transform="translate(-1389 5071)">
    <rect id="Rectángulo_294994" data-name="Rectángulo 294994" width="120" height="120" rx="15" transform="translate(1389 -5071)" fill="#a0d925"/>
    <g id="Grupo_153171" data-name="Grupo 153171" transform="translate(1393.227 -5056)">
      <path id="Trazado_262897" data-name="Trazado 262897" d="M70.549,338.55a1.318,1.318,0,0,0-1.318,1.318v21.147a.44.44,0,0,1-.439.439H15.849a.44.44,0,0,1-.439-.439V333.865a1.318,1.318,0,1,0-2.637,0v27.149a3.08,3.08,0,0,0,3.076,3.076H68.791a3.08,3.08,0,0,0,3.076-3.076V339.868A1.318,1.318,0,0,0,70.549,338.55Z" transform="translate(0 -274.091)" fill="#12263f"/>
      <path id="Trazado_262898" data-name="Trazado 262898" d="M52.326,445.128a1.318,1.318,0,0,0,1.318,1.318H67.365a1.318,1.318,0,0,0,0-2.637H53.644A1.318,1.318,0,0,0,52.326,445.128Z" transform="translate(-32.6 -365.796)" fill="#12263f"/>
      <path id="Trazado_262899" data-name="Trazado 262899" d="M65.642,342.743h3.241a2.2,2.2,0,0,0,2.2-2.2v-7.455h.837a2.2,2.2,0,0,0,1.511-3.792l-4.435-4.2a2.186,2.186,0,0,0-2.966-.052l-4.758,4.2a2.2,2.2,0,0,0,1.455,3.844h.72v7.455A2.2,2.2,0,0,0,65.642,342.743Zm1.83-15.456,3.343,3.167H69.762a1.318,1.318,0,0,0-1.318,1.318v8.334H66.082v-8.334a1.318,1.318,0,0,0-1.318-1.318h-.877Z" transform="translate(-39.358 -267.451)" fill="#12263f"/>
      <path id="Trazado_262900" data-name="Trazado 262900" d="M252.421,446.447h8.48a1.318,1.318,0,1,0,0-2.637h-8.48a1.318,1.318,0,0,0,0,2.637Z" transform="translate(-196.436 -365.796)" fill="#12263f"/>
      <path id="Trazado_262901" data-name="Trazado 262901" d="M252.421,415.967h8.48a1.318,1.318,0,1,0,0-2.637h-8.48a1.318,1.318,0,0,0,0,2.637Z" transform="translate(-196.436 -340.674)" fill="#12263f"/>
      <path id="Trazado_262902" data-name="Trazado 262902" d="M95.206,11.167H88.649V9.406A3.08,3.08,0,0,0,85.573,6.33H83.451A5.8,5.8,0,1,0,71.883,5.8c0,.178.008.357.025.535H69.786A3.08,3.08,0,0,0,66.71,9.406v1.761H60.153a3.08,3.08,0,0,0-3.076,3.076V24.453a1.318,1.318,0,1,0,2.637,0V14.244a.44.44,0,0,1,.439-.439H66.71v.648a3.08,3.08,0,0,0,3.076,3.076H85.573a3.08,3.08,0,0,0,3.076-3.076V13.8h6.557a.44.44,0,0,1,.439.439V57.877a.44.44,0,0,1-.439.439H60.153a.44.44,0,0,1-.439-.439v-27a1.318,1.318,0,1,0-2.637,0v3.441H15.849a3.08,3.08,0,0,0-3.076,3.076V53.361a1.318,1.318,0,0,0,2.637,0V37.394a.44.44,0,0,1,.439-.439H35.088V50.3A2.2,2.2,0,0,0,38.65,52.02l3.67-2.907,3.67,2.907A2.2,2.2,0,0,0,49.552,50.3V36.954h7.525V57.877a3.08,3.08,0,0,0,3.076,3.076H95.206a3.08,3.08,0,0,0,3.076-3.076V14.244a3.079,3.079,0,0,0-3.076-3.076Zm-9.194,3.284a.44.44,0,0,1-.439.439H69.786a.44.44,0,0,1-.439-.439V9.406a.44.44,0,0,1,.439-.439h2.4A2.4,2.4,0,0,0,74,8.133a2.353,2.353,0,0,0,.549-1.883A3.118,3.118,0,0,1,74.52,5.8,3.16,3.16,0,1,1,80.8,6.26a2.343,2.343,0,0,0,.544,1.879,2.379,2.379,0,0,0,1.805.828h2.42a.44.44,0,0,1,.439.439v5.045Zm-39.1,34.937L43.684,46.83a2.189,2.189,0,0,0-2.728,0l-3.231,2.559V36.954h9.19V49.389Z" transform="translate(0 0)" fill="#12263f"/>
      <path id="Trazado_262903" data-name="Trazado 262903" d="M317.653,123a1.318,1.318,0,0,0-1.865,0l-2.506,2.506-.787-.787a1.318,1.318,0,0,0-1.865,1.864l1.719,1.719a1.319,1.319,0,0,0,1.865,0l3.438-3.438A1.319,1.319,0,0,0,317.653,123Z" transform="translate(-245.182 -101.059)" fill="#12263f"/>
      <path id="Trazado_262904" data-name="Trazado 262904" d="M375.659,135.028h12.625a1.318,1.318,0,0,0,0-2.637H375.659a1.318,1.318,0,0,0,0,2.637Z" transform="translate(-298.011 -109.119)" fill="#12263f"/>
      <path id="Trazado_262905" data-name="Trazado 262905" d="M315.788,168.54l-2.506,2.506-.787-.787a1.318,1.318,0,0,0-1.865,1.864l1.719,1.719a1.319,1.319,0,0,0,1.865,0l3.438-3.438a1.318,1.318,0,0,0-1.865-1.864Z" transform="translate(-245.181 -138.595)" fill="#12263f"/>
      <path id="Trazado_262906" data-name="Trazado 262906" d="M375.659,180.57h12.625a1.318,1.318,0,0,0,0-2.637H375.659a1.318,1.318,0,0,0,0,2.637Z" transform="translate(-298.011 -146.656)" fill="#12263f"/>
      <path id="Trazado_262907" data-name="Trazado 262907" d="M310.631,217.665l1.719,1.719a1.319,1.319,0,0,0,1.865,0l3.438-3.438a1.318,1.318,0,0,0-1.865-1.864l-2.506,2.506-.787-.787a1.318,1.318,0,0,0-1.865,1.864Z" transform="translate(-245.182 -176.131)" fill="#12263f"/>
      <path id="Trazado_262908" data-name="Trazado 262908" d="M375.659,226.112h12.625a1.318,1.318,0,0,0,0-2.637H375.659a1.318,1.318,0,0,0,0,2.637Z" transform="translate(-298.011 -184.192)" fill="#12263f"/>
      <path id="Trazado_262909" data-name="Trazado 262909" d="M315.788,259.623l-2.506,2.506-.787-.787a1.318,1.318,0,0,0-1.865,1.864l1.719,1.719a1.319,1.319,0,0,0,1.865,0l3.438-3.438a1.318,1.318,0,0,0-1.865-1.864Z" transform="translate(-245.181 -213.668)" fill="#12263f"/>
      <path id="Trazado_262910" data-name="Trazado 262910" d="M375.659,271.653h12.625a1.318,1.318,0,1,0,0-2.637H375.659a1.318,1.318,0,1,0,0,2.637Z" transform="translate(-298.011 -221.728)" fill="#12263f"/>
    </g>
  </g>
</svg>
