<svg xmlns="http://www.w3.org/2000/svg" xmlns:xlink="http://www.w3.org/1999/xlink" width="190" height="110" viewBox="0 0 190 110">
  <defs>
    <clipPath id="clip-path">
      <path id="path1790" d="M0-682.665H100.234v100.234H0Z" transform="translate(0 682.665)"/>
    </clipPath>
  </defs>
  <g id="Grupo_223598" data-name="Grupo 223598" transform="translate(-179.945 -2889)">
    <g id="Grupo_153167" data-name="Grupo 153167" transform="translate(-0.055 -507)">
      <rect id="Rectángulo_40420" data-name="Rectángulo 40420" width="190" height="110" transform="translate(180 3396)" fill="none"/>
      <g id="Grupo_131655" data-name="Grupo 131655" transform="translate(0 -4286)">
        <rect id="Rectángulo_40418" data-name="Rectángulo 40418" width="50" height="50" rx="8" transform="translate(207 7687)" fill="#e2872c" opacity="0.2"/>
        <rect id="Rectángulo_40419" data-name="Rectángulo 40419" width="50" height="50" rx="8" transform="translate(293 7737)" fill="#81af1d" opacity="0.2"/>
      </g>
      <g id="g1686" transform="translate(224.883 4083.43)">
        <path id="path1688" d="M177.142-438.179H158.157v-18.985h18.985Z" transform="translate(-134.935 -192.391)" fill="#eb9f52"/>
        <path id="path1690" d="M259.879-438.179h-4.746v-18.985h4.746Z" transform="translate(-217.672 -192.391)" fill="#e2872c"/>
        <path id="path1694" d="M395.207-438.179h18.985v-18.985H395.207Z" transform="translate(-337.18 -192.391)" fill="#eb9f52"/>
        <path id="path1696" d="M496.93-438.179h-4.746v-18.985h4.746Z" transform="translate(-419.918 -192.391)" fill="#e2872c"/>
        <path id="path1700" d="M173.893-321.535H104.281v-6.328h69.612Z" transform="translate(-88.97 -302.707)" fill="#e8e8e8"/>
        <path id="path1702" d="M109.027-321.535h-4.746v-6.328h4.746Z" transform="translate(-88.97 -302.707)" fill="#afafaf"/>
        <path id="path1704" d="M550.8-321.535h-4.746v-6.328H550.8Z" transform="translate(-465.882 -302.707)" fill="#b4d0d5"/>
        <path id="path1706" d="M173.893-537.036H104.281v-6.328h69.612Z" transform="translate(-88.97 -118.848)" fill="#e8e8e8"/>
        <path id="path1708" d="M109.027-537.036h-4.746v-6.328h4.746Z" transform="translate(-88.97 -118.848)" fill="#afafaf"/>
        <path id="path1710" d="M550.8-537.036h-4.746v-6.328H550.8Z" transform="translate(-465.882 -118.848)" fill="#b4d0d5"/>
        <path id="path1712" d="M67.509-60.561H61.181v-8.7h6.328Z" transform="translate(-52.198 -523.338)" fill="#a0d925"/>
        <path id="path1714" d="M584.712-60.561h-6.328v-8.7h6.328Z" transform="translate(-493.461 -523.338)" fill="#a0d925"/>
        <path id="path1716" d="M67.509-584.069H61.181v-88.6h6.328Z" transform="translate(-52.198 -8.532)" fill="#b0c0d2"/>
        <path id="path1718" d="M584.712-584.069h-6.328v-88.6h6.328Z" transform="translate(-493.461 -8.532)" fill="#b0c0d2"/>
        <path id="path1720" d="M166.366-222.678H147.381v-18.985h18.985Z" transform="translate(-125.741 -376.25)" fill="#eb9f52"/>
        <path id="path1722" d="M249.1-222.678h-4.746v-18.985H249.1Z" transform="translate(-208.479 -376.25)" fill="#e2872c"/>
        <path id="path1726" d="M424.968-222.678H405.983v-18.985h18.985Z" transform="translate(-346.373 -376.25)" fill="#eb9f52"/>
        <path id="path1728" d="M507.7-222.678h-4.746v-18.985H507.7Z" transform="translate(-429.11 -376.25)" fill="#e2872c"/>
        <path id="path1732" d="M276.682-222.678h18.985v-18.985H276.682Z" transform="translate(-236.057 -376.25)" fill="#eb9f52"/>
        <path id="path1734" d="M378.4-222.678h-4.746v-18.985H378.4Z" transform="translate(-318.794 -376.25)" fill="#e2872c"/>
        <path id="path1738" d="M166.366-653.68H147.381v-18.985h18.985Z" transform="translate(-125.741 -8.532)" fill="#eb9f52"/>
        <path id="path1740" d="M249.1-653.68h-4.746v-18.985H249.1Z" transform="translate(-208.479 -8.532)" fill="#e2872c"/>
        <path id="path1744" d="M424.968-653.68H405.983v-18.985h18.985Z" transform="translate(-346.373 -8.532)" fill="#eb9f52"/>
        <path id="path1746" d="M507.7-653.68h-4.746v-18.985H507.7Z" transform="translate(-429.11 -8.532)" fill="#e2872c"/>
        <path id="path1750" d="M276.682-653.68h18.985v-18.985H276.682Z" transform="translate(-236.057 -8.532)" fill="#eb9f52"/>
        <path id="path1752" d="M378.4-653.68h-4.746v-18.985H378.4Z" transform="translate(-318.794 -8.532)" fill="#e2872c"/>
        <path id="path1756" d="M173.893-106.034H104.281v-6.328h69.612Z" transform="translate(-88.97 -486.566)" fill="#e8e8e8"/>
        <path id="path1758" d="M550.8-106.034h-4.746v-6.328H550.8Z" transform="translate(-465.882 -486.566)" fill="#b4d0d5"/>
        <path id="path1760" d="M109.027-106.034h-4.746v-6.328h4.746Z" transform="translate(-88.97 -486.566)" fill="#afafaf"/>
        <path id="path1764" d="M168.61-445.243H149.625a1.468,1.468,0,0,1-1.468-1.468V-465.7a1.468,1.468,0,0,1,1.468-1.468H168.61a1.468,1.468,0,0,1,1.468,1.468v18.985A1.468,1.468,0,0,1,168.61-445.243Zm-17.517-2.937h16.048v-16.048H151.094Z" transform="translate(-126.403 -183.859)"/>
        <path id="path1768" d="M405.66-445.243H386.675a1.468,1.468,0,0,1-1.468-1.468V-465.7a1.468,1.468,0,0,1,1.468-1.468H405.66a1.468,1.468,0,0,1,1.468,1.468v18.985A1.468,1.468,0,0,1,405.66-445.243Zm-17.517-2.937h16.048v-16.048H388.144Z" transform="translate(-328.648 -183.859)"/>
        <g id="g1770" transform="translate(13.843 -625.71)">
          <path id="path1772" d="M-413.023-7.063h-69.612A1.468,1.468,0,0,1-484.1-8.532,1.468,1.468,0,0,1-482.635-10h69.612a1.468,1.468,0,0,1,1.468,1.468A1.468,1.468,0,0,1-413.023-7.063Z" transform="translate(484.103 10)"/>
        </g>
        <g id="g1774" transform="translate(13.843 -632.039)">
          <path id="path1776" d="M61.08-7.063H-8.532A1.468,1.468,0,0,1-10-8.532,1.468,1.468,0,0,1-8.532-10H61.08a1.468,1.468,0,0,1,1.468,1.468A1.468,1.468,0,0,1,61.08-7.063Z" transform="translate(10 10)"/>
        </g>
        <g id="g1778" transform="translate(13.843 -657.352)">
          <path id="path1780" d="M-413.023-7.063h-69.612A1.468,1.468,0,0,1-484.1-8.532,1.468,1.468,0,0,1-482.635-10h69.612a1.468,1.468,0,0,1,1.468,1.468A1.468,1.468,0,0,1-413.023-7.063Z" transform="translate(484.103 10)"/>
        </g>
        <g id="g1782" transform="translate(13.843 -663.68)">
          <path id="path1784" d="M61.08-7.063H-8.532A1.468,1.468,0,0,1-10-8.532,1.468,1.468,0,0,1-8.532-10H61.08a1.468,1.468,0,0,1,1.468,1.468A1.468,1.468,0,0,1,61.08-7.063Z" transform="translate(10 10)"/>
        </g>
        <g id="g1786" transform="translate(0 -682.665)">
          <g id="g1788" clip-path="url(#clip-path)">
            <path id="path1794" d="M58.978-67.625H52.649a1.468,1.468,0,0,1-1.468-1.468v-8.7a1.468,1.468,0,0,1,1.468-1.468h6.328a1.468,1.468,0,0,1,1.468,1.468v8.7A1.468,1.468,0,0,1,58.978-67.625Zm-4.86-2.937h3.392v-5.765H54.118Z" transform="translate(-43.666 167.859)"/>
            <path id="path1796" d="M576.18-67.625h-6.328a1.468,1.468,0,0,1-1.468-1.468v-8.7a1.468,1.468,0,0,1,1.468-1.468h6.328a1.468,1.468,0,0,1,1.468,1.468v8.7A1.468,1.468,0,0,1,576.18-67.625Zm-4.86-2.937h3.392v-5.765H571.32Z" transform="translate(-484.929 167.859)"/>
          </g>
        </g>
        <path id="path1800" d="M157.834-229.742H138.849a1.468,1.468,0,0,1-1.468-1.468V-250.2a1.468,1.468,0,0,1,1.468-1.468h18.985A1.468,1.468,0,0,1,159.3-250.2v18.985A1.468,1.468,0,0,1,157.834-229.742Zm-17.517-2.937h16.048v-16.048H140.318Z" transform="translate(-117.21 -367.719)"/>
        <path id="path1804" d="M416.436-229.742H397.451a1.468,1.468,0,0,1-1.468-1.468V-250.2a1.468,1.468,0,0,1,1.468-1.468h18.985A1.468,1.468,0,0,1,417.9-250.2v18.985A1.468,1.468,0,0,1,416.436-229.742Zm-17.517-2.937h16.048v-16.048H398.92Z" transform="translate(-337.842 -367.719)"/>
        <path id="path1808" d="M287.135-229.742H268.15a1.468,1.468,0,0,1-1.468-1.468V-250.2a1.468,1.468,0,0,1,1.468-1.468h18.985A1.468,1.468,0,0,1,288.6-250.2v18.985A1.468,1.468,0,0,1,287.135-229.742Zm-17.517-2.937h16.049v-16.048H269.619Z" transform="translate(-227.526 -367.719)"/>
        <g id="g1810" transform="translate(0 -682.665)">
          <g id="g1812" clip-path="url(#clip-path)">
            <path id="path1820" d="M157.834-660.743H138.849a1.468,1.468,0,0,1-1.468-1.468V-681.2a1.468,1.468,0,0,1,1.468-1.468h18.985A1.468,1.468,0,0,1,159.3-681.2v18.985A1.468,1.468,0,0,1,157.834-660.743Zm-17.517-2.936h16.048v-16.049H140.318Z" transform="translate(-117.21 682.665)"/>
            <path id="path1824" d="M416.436-660.743H397.451a1.468,1.468,0,0,1-1.468-1.468V-681.2a1.468,1.468,0,0,1,1.468-1.468h18.985A1.468,1.468,0,0,1,417.9-681.2v18.985A1.468,1.468,0,0,1,416.436-660.743ZM398.92-663.68h16.048v-16.049H398.92Z" transform="translate(-337.842 682.665)"/>
            <path id="path1828" d="M287.135-660.743H268.15a1.468,1.468,0,0,1-1.468-1.468V-681.2a1.468,1.468,0,0,1,1.468-1.468h18.985A1.468,1.468,0,0,1,288.6-681.2v18.985A1.468,1.468,0,0,1,287.135-660.743Zm-17.517-2.936h16.049v-16.049H269.619Z" transform="translate(-227.526 682.665)"/>
          </g>
        </g>
        <g id="g1830" transform="translate(13.843 -594.069)">
          <path id="path1832" d="M-286.039-7.063H-333.8a1.468,1.468,0,0,1-1.468-1.468A1.468,1.468,0,0,1-333.8-10h47.758a1.468,1.468,0,0,1,1.468,1.468A1.468,1.468,0,0,1-286.039-7.063Z" transform="translate(335.266 10)"/>
        </g>
        <g id="g1834" transform="translate(68.453 -594.069)">
          <path id="path1836" d="M-95.7-7.063h-15a1.468,1.468,0,0,1-1.468-1.468A1.468,1.468,0,0,1-110.7-10h15a1.468,1.468,0,0,1,1.468,1.468A1.468,1.468,0,0,1-95.7-7.063Z" transform="translate(112.173 10)"/>
        </g>
        <g id="g1838" transform="translate(13.843 -600.397)">
          <path id="path1840" d="M61.08-7.063H-8.532A1.468,1.468,0,0,1-10-8.532,1.468,1.468,0,0,1-8.532-10H61.08a1.468,1.468,0,0,1,1.468,1.468A1.468,1.468,0,0,1,61.08-7.063Z" transform="translate(10 10)"/>
        </g>
        <g id="g1842" transform="translate(0 -682.665)">
          <g id="g1844" clip-path="url(#clip-path)">
            <g id="g1850" transform="translate(7.516 0)">
              <path id="path1852" d="M-2.2-65.321H-8.532A1.468,1.468,0,0,1-10-66.789v-67.034a1.468,1.468,0,0,1,1.468-1.468,1.468,1.468,0,0,1,1.468,1.468v65.565h3.391v-85.659H-7.063v13.242a1.468,1.468,0,0,1-1.468,1.468A1.468,1.468,0,0,1-10-140.674v-14.71a1.468,1.468,0,0,1,1.468-1.468H-2.2a1.468,1.468,0,0,1,1.468,1.468v88.6A1.468,1.468,0,0,1-2.2-65.321Z" transform="translate(10 156.853)"/>
            </g>
            <g id="g1854" transform="translate(83.455 0)">
              <path id="path1856" d="M-45.3-269.52h-6.327a1.468,1.468,0,0,1-1.468-1.468v-88.6a1.468,1.468,0,0,1,1.468-1.468H-45.3a1.468,1.468,0,0,1,1.468,1.468v44.692a1.468,1.468,0,0,1-1.468,1.468,1.468,1.468,0,0,1-1.468-1.468v-43.224h-3.391v85.659h3.391V-308.04a1.468,1.468,0,0,1,1.468-1.468,1.468,1.468,0,0,1,1.468,1.468v37.051A1.468,1.468,0,0,1-45.3-269.52Z" transform="translate(53.093 361.052)"/>
            </g>
          </g>
        </g>
      </g>
    </g>
  </g>
</svg>
