<svg xmlns="http://www.w3.org/2000/svg" width="190" height="110" viewBox="0 0 190 110">
  <g id="Grupo_223603" data-name="Grupo 223603" transform="translate(-179.945 -5994)">
    <g id="Grupo_153169" data-name="Grupo 153169" transform="translate(-0.055 2598)">
      <rect id="Rectángulo_40420" data-name="Rectángulo 40420" width="190" height="110" transform="translate(180 3396)" fill="none"/>
      <g id="Grupo_131655" data-name="Grupo 131655" transform="translate(0 -4286)">
        <rect id="Rectángulo_40418" data-name="Rectángulo 40418" width="50" height="50" rx="8" transform="translate(207 7687)" fill="#e2872c" opacity="0.2"/>
        <rect id="Rectángulo_40419" data-name="Rectángulo 40419" width="50" height="50" rx="8" transform="translate(293 7737)" fill="#81af1d" opacity="0.2"/>
      </g>
      <g id="pagar" transform="translate(220.531 3401)">
        <g id="Grupo_153176" data-name="Grupo 153176" transform="translate(7.019 1.464)">
          <g id="Grupo_153172" data-name="Grupo 153172" transform="translate(30.918 32.003)">
            <circle id="Elipse_4948" data-name="Elipse 4948" cx="16.533" cy="16.533" r="16.533" fill="#a0d925"/>
          </g>
          <g id="Grupo_153175" data-name="Grupo 153175">
            <g id="Grupo_153173" data-name="Grupo 153173" transform="translate(33.728 58.016)">
              <path id="Trazado_263153" data-name="Trazado 263153" d="M259.7,390.68l-20.149.032a4.719,4.719,0,0,0-1.521,9.214l20.923-2.56Z" transform="translate(-225.176 -373.856)" fill="#eaac9d"/>
              <path id="Trazado_263154" data-name="Trazado 263154" d="M228.856,411.17l-20.149.032a4.719,4.719,0,0,0-1.521,9.214l20.923-2.56Z" transform="translate(-200.356 -390.344)" fill="#ffcbbe"/>
              <path id="Trazado_263155" data-name="Trazado 263155" d="M186.383,336.682a4.706,4.706,0,0,0,2.642,2.121l4.58,1.463,9.4,3a6.863,6.863,0,0,0,4.765-.217l27.714-11.733-.079-15.3c0-.112,0-.223,0-.336,0-.018,0-.036,0-.053l0-.769c0-.012,0-.025,0-.035l-.046-8.88-8.78-1.128a34.329,34.329,0,0,0-12.231.632c-.17.04-.338.08-.506.123a34.431,34.431,0,0,0-3.56,1.1l-1.158.428a4.715,4.715,0,0,0,1.194,9.116l9.489.9-16.644,12.693-12.607-.226a4.721,4.721,0,0,0-4.163,7.093Z" transform="translate(-185.742 -304.539)" fill="#ffddce"/>
              <path id="Trazado_263156" data-name="Trazado 263156" d="M225.994,387.566l9.4,3a6.863,6.863,0,0,0,4.765-.217l27.714-11.733-.079-15.3C267.674,381.052,231.133,389.208,225.994,387.566Z" transform="translate(-218.132 -351.84)" fill="#ffcbbe"/>
              <path id="Trazado_263157" data-name="Trazado 263157" d="M439.963,357.395c0,.253,0,.508,0,.769Z" transform="translate(-390.309 -347.072)" fill="#ffcbbe"/>
              <path id="Trazado_263158" data-name="Trazado 263158" d="M439.865,337.117l11.433.476-.062-12.065-.07-13.305-11.433-.476.075,14.525Z" transform="translate(-390.126 -310.338)" fill="#eb9f52"/>
              <path id="Trazado_263159" data-name="Trazado 263159" d="M440.172,393.894l11.433.476-.062-12.065a11.309,11.309,0,0,1-11.428.744Z" transform="translate(-390.433 -367.116)" fill="#e2872c"/>
            </g>
            <g id="Grupo_153174" data-name="Grupo 153174">
              <path id="Trazado_263160" data-name="Trazado 263160" d="M149.489,83.221l20.149-.032a4.719,4.719,0,0,0,1.521-9.214l-20.924,2.56Z" transform="translate(-122.841 -60.991)" fill="#eaac9d"/>
              <path id="Trazado_263161" data-name="Trazado 263161" d="M180.334,62.731l20.149-.032A4.719,4.719,0,0,0,202,53.485l-20.924,2.56Z" transform="translate(-147.662 -44.503)" fill="#ffcbbe"/>
              <path id="Trazado_263162" data-name="Trazado 263162" d="M120.689,14.41a4.706,4.706,0,0,0-2.642-2.121l-4.58-1.463-9.4-3a6.863,6.863,0,0,0-4.765.217L71.59,19.775l.079,15.3c0,.112,0,.223,0,.336,0,.018,0,.036,0,.053l0,.769c0,.012,0,.025,0,.035l.046,8.881,8.78,1.128a34.329,34.329,0,0,0,12.231-.632q.254-.059.506-.123a34.442,34.442,0,0,0,3.56-1.1l1.158-.428a4.715,4.715,0,0,0-1.194-9.116l-9.489-.9,16.644-12.692,12.607.226a4.72,4.72,0,0,0,4.163-7.093Z" transform="translate(-60.157 -7.498)" fill="#ffddce"/>
              <path id="Trazado_263163" data-name="Trazado 263163" d="M113.467,10.826l-9.4-3a6.863,6.863,0,0,0-4.765.217L71.59,19.774l.079,15.3c.119-17.731,36.659-25.887,41.8-24.245Z" transform="translate(-60.157 -7.498)" fill="#ffcbbe"/>
              <path id="Trazado_263164" data-name="Trazado 263164" d="M72.01,151.432c0-.253,0-.508,0-.769Z" transform="translate(-60.491 -122.701)" fill="#ffcbbe"/>
              <path id="Trazado_263165" data-name="Trazado 263165" d="M24.487,68.393l-11.433-.476.062,12.065.069,13.305,11.433.476-.075-14.525Z" transform="translate(-13.054 -56.116)" fill="#ff807d"/>
              <path id="Trazado_263166" data-name="Trazado 263166" d="M24.487,68.393l-11.433-.476.062,12.065a11.308,11.308,0,0,1,11.428-.744Z" transform="translate(-13.054 -56.116)" fill="#ff5854"/>
            </g>
          </g>
        </g>
        <g id="Grupo_153177" data-name="Grupo 153177" transform="translate(5.554 -0.001)">
          <path id="Trazado_263167" data-name="Trazado 263167" d="M225.056,214.741a1.465,1.465,0,0,0,1.465-1.465v-1.328a7,7,0,0,0,6.1-5.65c.4-2.872-1.449-5.343-4.716-6.294a25.4,25.4,0,0,1-5.909-2.279,1.575,1.575,0,0,1-.663-1.634,2.805,2.805,0,0,1,2.246-2.17,7.643,7.643,0,0,1,1.467-.219h.012a1.47,1.47,0,0,0,.15-.008,6.05,6.05,0,0,1,3.533.926,1.465,1.465,0,0,0,1.762-2.34,8.667,8.667,0,0,0-3.98-1.449v-1.076a1.465,1.465,0,1,0-2.93,0v1.169c-.236.042-.475.091-.72.152a5.777,5.777,0,0,0-4.43,4.532,4.476,4.476,0,0,0,1.964,4.577,25.752,25.752,0,0,0,6.68,2.631c1.87.545,2.83,1.665,2.633,3.075-.224,1.6-1.9,3.23-4.67,3.245a8.553,8.553,0,0,1-5.167-1.126,1.465,1.465,0,0,0-1.39,2.579,10.439,10.439,0,0,0,5.1,1.457v1.228A1.466,1.466,0,0,0,225.056,214.741Z" transform="translate(-176.281 -151.517)"/>
          <path id="Trazado_263168" data-name="Trazado 263168" d="M103.253,61.356a1.465,1.465,0,0,0-1.4-1.456l-11.37-.473-8.718-1.12a35.9,35.9,0,0,0-11.543.4,18.012,18.012,0,0,0,.862-1.772,1.465,1.465,0,1,0-2.7-1.131,15.017,15.017,0,0,1-2.521,4.056c-.365.122-.728.248-1.088.382l-1.158.429a6.158,6.158,0,0,0-3.52,3.306,15.065,15.065,0,0,1-17-23.848c.363-.121.725-.246,1.084-.379l1.158-.429a6.156,6.156,0,0,0,3.518-3.3A15.066,15.066,0,0,1,69.538,50c0,.257-.006.5-.018.729a1.465,1.465,0,0,0,1.388,1.538l.077,0a1.465,1.465,0,0,0,1.462-1.389c.014-.277.021-.573.021-.88A18.012,18.012,0,0,0,49.314,32.751a6.327,6.327,0,0,0-.279-1.2,6.173,6.173,0,0,0-5.27-4.171L38,26.83l2.2-1.681,13.6-.022H53.9a6.21,6.21,0,0,0,5.785-4h.145a6.187,6.187,0,0,0,6.1-4.7,6.182,6.182,0,0,0-.575-11.562L51.376.395A8.33,8.33,0,0,0,45.6.658L32.087,6.377a1.465,1.465,0,0,0,1.142,2.7L46.737,3.356a5.4,5.4,0,0,1,3.747-.171L64.463,7.65a3.239,3.239,0,0,1,2.262,3.1,3.2,3.2,0,0,1-.031.454A3.256,3.256,0,0,1,63.472,14h-.059l-12.606-.225a1.474,1.474,0,0,0-.914.3L33.249,26.77A1.465,1.465,0,0,0,34,29.393l9.488.9a3.25,3.25,0,0,1,.822,6.283l-1.158.429a32.982,32.982,0,0,1-15.6,1.78l-7.508-.965-.055-10.514-.065-12.6,7.923-3.353a1.465,1.465,0,1,0-1.142-2.7l-8.517,3.605L7.08,11.8a1.465,1.465,0,0,0-1.526,1.471l.131,25.37a1.465,1.465,0,0,0,1.4,1.456l11.372.473,8.715,1.121a35.578,35.578,0,0,0,4.533.289,36.024,36.024,0,0,0,7.006-.689A18.01,18.01,0,0,0,59.623,67.249a6.318,6.318,0,0,0,.279,1.2,6.188,6.188,0,0,0,5.272,4.174l5.761.546-2.2,1.681-13.6.022a6.2,6.2,0,0,0-5.879,4H49.01a6.187,6.187,0,0,0-6,4.7,6.183,6.183,0,0,0,.574,11.565L57.562,99.6a8.333,8.333,0,0,0,5.781-.264L90.753,87.736l11.1.462h.061a1.465,1.465,0,0,0,1.465-1.472ZM53.841,22.2a.194.194,0,0,0-.028,0l-9.757.016,1.4-1.066L56.3,21.13A3.262,3.262,0,0,1,53.841,22.2Zm-2.577-5.481,11.239.2A3.274,3.274,0,0,1,59.867,18.2h-.029L49.3,18.212ZM8.607,37.23,8.491,14.792l8.5.354.073,13.867.044,8.57ZM55.04,77.8h.085l9.757-.016-1.4,1.066-10.847.017a3.257,3.257,0,0,1,2.4-1.068Zm-6.029,4H49.1l10.534-.017-1.961,1.5-11.242-.2A3.251,3.251,0,0,1,49.011,81.8ZM62.2,96.643a5.4,5.4,0,0,1-3.747.171L44.476,92.349a3.254,3.254,0,0,1,.99-6.354h.059l12.606.226a1.49,1.49,0,0,0,.915-.3L75.689,73.228a1.465,1.465,0,0,0-.75-2.623l-9.487-.9a3.251,3.251,0,0,1-.823-6.284l1.158-.429a32.978,32.978,0,0,1,15.6-1.78l7.509.965.119,23.112Zm29.743-11.79-.116-22.437,8.5.354.116,22.437Z" transform="translate(-5.554 0.001)"/>
        </g>
      </g>
    </g>
  </g>
</svg>
